<svg width="654" height="654" viewBox="0 0 654 654" fill="none" xmlns="http://www.w3.org/2000/svg">
<mask id="path-1-outside-1_22_166" maskUnits="userSpaceOnUse" x="0" y="0" width="654" height="654" fill="black">
<rect fill="white" width="654" height="654"/>
<path fill-rule="evenodd" clip-rule="evenodd" d="M426.118 140.159C414.473 133.969 402.181 128.835 389.369 124.886L385.208 122.112C379.839 118.533 376.413 112.684 375.918 106.25L375.347 98.8201V84.9477C375.347 83.0535 375.197 81.1623 374.9 79.2916L372.717 65.569C372.362 63.3419 371.8 61.153 371.036 59.0312L364.051 39.6289L349.592 8H327H304.408L289.949 39.6289L282.964 59.0312C282.2 61.153 281.637 63.3419 281.283 65.569L279.1 79.2916C278.802 81.1623 278.653 83.0535 278.653 84.9477V98.3683L278.064 106.224C277.58 112.672 274.152 118.539 268.771 122.126L264.631 124.886C251.815 128.836 239.519 133.972 227.871 140.165L223.378 141.064C217.05 142.329 210.492 140.615 205.592 136.416L199.935 131.566L190.126 121.757C188.786 120.418 187.343 119.186 185.81 118.074L174.563 109.914C172.738 108.59 170.792 107.44 168.751 106.48L150.093 97.6994L117.504 85.5584L101.529 101.533L85.5538 117.508L97.6948 150.097L106.475 168.756C107.436 170.796 108.585 172.742 109.91 174.567L118.069 185.815C119.182 187.348 120.413 188.791 121.753 190.13L131.242 199.62L136.38 205.591C140.598 210.493 142.322 217.065 141.054 223.407L140.159 227.882C133.969 239.527 128.835 251.819 124.886 264.631L122.126 268.771C118.539 274.152 112.672 277.58 106.224 278.064L98.3683 278.653H84.9478C83.0535 278.653 81.1623 278.802 79.2916 279.1L65.569 281.283C63.3419 281.638 61.153 282.2 59.0312 282.964L39.6289 289.949L8 304.408V327V349.592L39.6289 364.051L59.0312 371.036C61.153 371.8 63.3419 372.362 65.569 372.717L79.2916 374.9C81.1623 375.198 83.0535 375.347 84.9478 375.347H98.8201L106.25 375.919C112.684 376.413 118.533 379.839 122.112 385.208L124.886 389.369C128.754 401.918 133.759 413.969 139.78 425.402L140.858 430.79C142.126 437.131 140.402 443.703 136.184 448.605L131.046 454.577L121.556 464.066C120.217 465.406 118.985 466.849 117.873 468.382L109.713 479.629C108.389 481.454 107.239 483.4 106.279 485.44L97.4983 504.099L85.3573 536.688L101.332 552.663L117.307 568.638L149.896 556.497L168.555 547.717C170.595 546.756 172.541 545.607 174.366 544.282L185.613 536.123C187.147 535.01 188.59 533.779 189.929 532.439L199.738 522.63L205.396 517.781C210.295 513.581 216.854 511.867 223.181 513.133L228.587 514.214C240.023 520.238 252.077 525.245 264.631 529.114L268.771 531.874C274.152 535.461 277.58 541.328 278.064 547.776L278.653 555.632V569.052C278.653 570.946 278.802 572.838 279.1 574.708L281.283 588.431C281.637 590.658 282.2 592.847 282.964 594.969L289.949 614.371L304.408 646H327H349.592L364.051 614.371L371.036 594.969C371.8 592.847 372.362 590.658 372.717 588.431L374.9 574.708C375.197 572.838 375.347 570.946 375.347 569.052V555.18L375.918 547.75C376.413 541.316 379.839 535.467 385.208 531.888L389.369 529.114C401.918 525.246 413.969 520.241 425.402 514.22L430.79 513.142C437.131 511.874 443.703 513.598 448.605 517.816L454.576 522.954L464.066 532.444C465.406 533.783 466.849 535.015 468.382 536.127L479.629 544.287C481.454 545.611 483.4 546.761 485.44 547.721L504.099 556.502L536.688 568.643L552.663 552.668L568.638 536.693L556.497 504.104L547.716 485.445C546.756 483.405 545.606 481.459 544.282 479.634L536.122 468.386C535.01 466.853 533.779 465.41 532.439 464.071L522.63 454.262L517.78 448.604C513.581 443.704 511.867 437.146 513.133 430.819L514.214 425.413C520.238 413.977 525.244 401.923 529.114 389.369L531.888 385.208C535.467 379.839 541.316 376.413 547.75 375.919L555.18 375.347H569.052C570.946 375.347 572.838 375.198 574.708 374.9L588.431 372.717C590.658 372.362 592.847 371.8 594.969 371.036L614.371 364.051L646 349.592V327V304.408L614.371 289.949L594.969 282.964C592.847 282.2 590.658 281.638 588.431 281.283L574.708 279.1C572.838 278.802 570.946 278.653 569.052 278.653H555.632L547.776 278.064C541.328 277.58 535.461 274.152 531.874 268.771L529.114 264.631C525.163 251.815 520.028 239.519 513.835 227.871L512.936 223.378C511.671 217.05 513.385 210.492 517.584 205.593L522.433 199.935L532.243 190.126C533.582 188.786 534.814 187.343 535.926 185.81L544.086 174.563C545.41 172.738 546.56 170.792 547.52 168.751L556.3 150.093L568.441 117.504L552.466 101.529L536.491 85.5539L503.902 97.6949L485.244 106.475C483.203 107.436 481.258 108.585 479.432 109.91L468.185 118.069C466.652 119.182 465.209 120.413 463.87 121.753L454.38 131.242L448.409 136.38C443.507 140.598 436.935 142.323 430.593 141.054L426.118 140.159Z"/>
</mask>
<path fill-rule="evenodd" clip-rule="evenodd" d="M426.118 140.159C414.473 133.969 402.181 128.835 389.369 124.886L385.208 122.112C379.839 118.533 376.413 112.684 375.918 106.25L375.347 98.8201V84.9477C375.347 83.0535 375.197 81.1623 374.9 79.2916L372.717 65.569C372.362 63.3419 371.8 61.153 371.036 59.0312L364.051 39.6289L349.592 8H327H304.408L289.949 39.6289L282.964 59.0312C282.2 61.153 281.637 63.3419 281.283 65.569L279.1 79.2916C278.802 81.1623 278.653 83.0535 278.653 84.9477V98.3683L278.064 106.224C277.58 112.672 274.152 118.539 268.771 122.126L264.631 124.886C251.815 128.836 239.519 133.972 227.871 140.165L223.378 141.064C217.05 142.329 210.492 140.615 205.592 136.416L199.935 131.566L190.126 121.757C188.786 120.418 187.343 119.186 185.81 118.074L174.563 109.914C172.738 108.59 170.792 107.44 168.751 106.48L150.093 97.6994L117.504 85.5584L101.529 101.533L85.5538 117.508L97.6948 150.097L106.475 168.756C107.436 170.796 108.585 172.742 109.91 174.567L118.069 185.815C119.182 187.348 120.413 188.791 121.753 190.13L131.242 199.62L136.38 205.591C140.598 210.493 142.322 217.065 141.054 223.407L140.159 227.882C133.969 239.527 128.835 251.819 124.886 264.631L122.126 268.771C118.539 274.152 112.672 277.58 106.224 278.064L98.3683 278.653H84.9478C83.0535 278.653 81.1623 278.802 79.2916 279.1L65.569 281.283C63.3419 281.638 61.153 282.2 59.0312 282.964L39.6289 289.949L8 304.408V327V349.592L39.6289 364.051L59.0312 371.036C61.153 371.8 63.3419 372.362 65.569 372.717L79.2916 374.9C81.1623 375.198 83.0535 375.347 84.9478 375.347H98.8201L106.25 375.919C112.684 376.413 118.533 379.839 122.112 385.208L124.886 389.369C128.754 401.918 133.759 413.969 139.78 425.402L140.858 430.79C142.126 437.131 140.402 443.703 136.184 448.605L131.046 454.577L121.556 464.066C120.217 465.406 118.985 466.849 117.873 468.382L109.713 479.629C108.389 481.454 107.239 483.4 106.279 485.44L97.4983 504.099L85.3573 536.688L101.332 552.663L117.307 568.638L149.896 556.497L168.555 547.717C170.595 546.756 172.541 545.607 174.366 544.282L185.613 536.123C187.147 535.01 188.59 533.779 189.929 532.439L199.738 522.63L205.396 517.781C210.295 513.581 216.854 511.867 223.181 513.133L228.587 514.214C240.023 520.238 252.077 525.245 264.631 529.114L268.771 531.874C274.152 535.461 277.58 541.328 278.064 547.776L278.653 555.632V569.052C278.653 570.946 278.802 572.838 279.1 574.708L281.283 588.431C281.637 590.658 282.2 592.847 282.964 594.969L289.949 614.371L304.408 646H327H349.592L364.051 614.371L371.036 594.969C371.8 592.847 372.362 590.658 372.717 588.431L374.9 574.708C375.197 572.838 375.347 570.946 375.347 569.052V555.18L375.918 547.75C376.413 541.316 379.839 535.467 385.208 531.888L389.369 529.114C401.918 525.246 413.969 520.241 425.402 514.22L430.79 513.142C437.131 511.874 443.703 513.598 448.605 517.816L454.576 522.954L464.066 532.444C465.406 533.783 466.849 535.015 468.382 536.127L479.629 544.287C481.454 545.611 483.4 546.761 485.44 547.721L504.099 556.502L536.688 568.643L552.663 552.668L568.638 536.693L556.497 504.104L547.716 485.445C546.756 483.405 545.606 481.459 544.282 479.634L536.122 468.386C535.01 466.853 533.779 465.41 532.439 464.071L522.63 454.262L517.78 448.604C513.581 443.704 511.867 437.146 513.133 430.819L514.214 425.413C520.238 413.977 525.244 401.923 529.114 389.369L531.888 385.208C535.467 379.839 541.316 376.413 547.75 375.919L555.18 375.347H569.052C570.946 375.347 572.838 375.198 574.708 374.9L588.431 372.717C590.658 372.362 592.847 371.8 594.969 371.036L614.371 364.051L646 349.592V327V304.408L614.371 289.949L594.969 282.964C592.847 282.2 590.658 281.638 588.431 281.283L574.708 279.1C572.838 278.802 570.946 278.653 569.052 278.653H555.632L547.776 278.064C541.328 277.58 535.461 274.152 531.874 268.771L529.114 264.631C525.163 251.815 520.028 239.519 513.835 227.871L512.936 223.378C511.671 217.05 513.385 210.492 517.584 205.593L522.433 199.935L532.243 190.126C533.582 188.786 534.814 187.343 535.926 185.81L544.086 174.563C545.41 172.738 546.56 170.792 547.52 168.751L556.3 150.093L568.441 117.504L552.466 101.529L536.491 85.5539L503.902 97.6949L485.244 106.475C483.203 107.436 481.258 108.585 479.432 109.91L468.185 118.069C466.652 119.182 465.209 120.413 463.87 121.753L454.38 131.242L448.409 136.38C443.507 140.598 436.935 142.323 430.593 141.054L426.118 140.159Z" fill="#3E6579"/>
<path d="M389.369 124.886L384.931 131.543L385.9 132.188L387.013 132.531L389.369 124.886ZM426.118 140.159L422.363 147.223L423.399 147.774L424.549 148.004L426.118 140.159ZM385.208 122.112L380.77 128.769L380.77 128.769L385.208 122.112ZM375.918 106.25L367.942 106.863V106.863L375.918 106.25ZM375.347 98.8201H367.347V99.1273L367.371 99.4337L375.347 98.8201ZM374.9 79.2916L382.8 78.0347L374.9 79.2916ZM372.717 65.569L380.617 64.3121L372.717 65.569ZM371.036 59.0312L378.563 56.3215L378.563 56.3215L371.036 59.0312ZM364.051 39.6289L371.578 36.9191L371.465 36.6057L371.327 36.3028L364.051 39.6289ZM349.592 8L356.868 4.67392L354.731 0H349.592V8ZM304.408 8V0H299.269L297.132 4.67392L304.408 8ZM289.949 39.6289L282.673 36.3028L282.535 36.6057L282.422 36.9191L289.949 39.6289ZM282.964 59.0312L275.437 56.3215L275.437 56.3215L282.964 59.0312ZM281.283 65.569L273.383 64.3121L281.283 65.569ZM279.1 79.2916L271.199 78.0347L279.1 79.2916ZM278.653 98.3683L286.63 98.9666L286.653 98.6678V98.3683H278.653ZM278.064 106.224L286.041 106.822V106.822L278.064 106.224ZM268.771 122.126L273.209 128.782V128.782L268.771 122.126ZM264.631 124.886L266.987 132.531L268.1 132.188L269.068 131.543L264.631 124.886ZM227.871 140.165L229.44 148.01L230.59 147.78L231.627 147.229L227.871 140.165ZM223.378 141.064L224.947 148.908H224.947L223.378 141.064ZM205.592 136.416L200.386 142.49L205.592 136.416ZM199.935 131.566L194.278 137.223L194.495 137.441L194.729 137.641L199.935 131.566ZM185.81 118.074L181.112 124.549L181.112 124.549L185.81 118.074ZM174.563 109.914L179.261 103.439L179.261 103.439L174.563 109.914ZM168.751 106.48L172.158 99.2414L168.751 106.48ZM150.093 97.6994L153.499 90.4609L153.198 90.3191L152.886 90.2028L150.093 97.6994ZM117.504 85.5584L120.297 78.0618L115.481 76.2676L111.847 79.9016L117.504 85.5584ZM85.5538 117.508L79.8969 111.852L76.263 115.486L78.0571 120.301L85.5538 117.508ZM97.6948 150.097L90.1981 152.89L90.3144 153.202L90.4563 153.504L97.6948 150.097ZM106.475 168.756L99.2367 172.162L106.475 168.756ZM109.91 174.567L103.434 179.265L109.91 174.567ZM118.069 185.815L124.545 181.117L124.545 181.117L118.069 185.815ZM121.753 190.13L127.409 184.473L127.409 184.473L121.753 190.13ZM131.242 199.62L137.306 194.402L137.111 194.175L136.899 193.963L131.242 199.62ZM136.38 205.591L142.444 200.373L142.444 200.373L136.38 205.591ZM141.054 223.407L133.21 221.838L133.21 221.838L141.054 223.407ZM140.159 227.882L147.223 231.637L147.774 230.601L148.004 229.451L140.159 227.882ZM124.886 264.631L131.542 269.069L132.188 268.1L132.531 266.988L124.886 264.631ZM122.126 268.771L115.47 264.334L115.47 264.334L122.126 268.771ZM106.224 278.064L106.822 286.041H106.822L106.224 278.064ZM98.3683 278.653V286.653H98.6679L98.9666 286.631L98.3683 278.653ZM79.2916 279.1L78.0347 271.199H78.0346L79.2916 279.1ZM65.569 281.283L64.312 273.383H64.312L65.569 281.283ZM59.0312 282.964L61.741 290.491L61.7411 290.491L59.0312 282.964ZM39.6289 289.949L36.9192 282.422L36.6058 282.535L36.3028 282.673L39.6289 289.949ZM8 304.408L4.67392 297.132L0 299.269V304.408H8ZM8 349.592H0V354.731L4.67392 356.868L8 349.592ZM39.6289 364.051L36.3028 371.327L36.6058 371.465L36.9192 371.578L39.6289 364.051ZM59.0312 371.036L61.7411 363.509L61.741 363.509L59.0312 371.036ZM65.569 372.717L64.312 380.617H64.312L65.569 372.717ZM79.2916 374.9L78.0346 382.801H78.0347L79.2916 374.9ZM98.8201 375.347L99.4337 367.371L99.1274 367.347H98.8201V375.347ZM106.25 375.919L105.636 383.895H105.636L106.25 375.919ZM122.112 385.208L128.769 380.77L128.769 380.77L122.112 385.208ZM124.886 389.369L132.531 387.012L132.188 385.9L131.542 384.931L124.886 389.369ZM139.78 425.402L147.625 423.833L147.398 422.698L146.858 421.674L139.78 425.402ZM140.858 430.79L133.013 432.359L133.013 432.359L140.858 430.79ZM136.184 448.605L130.12 443.388L136.184 448.605ZM131.046 454.577L136.703 460.233L136.915 460.022L137.11 459.794L131.046 454.577ZM121.556 464.066L127.213 469.723H127.213L121.556 464.066ZM117.873 468.382L124.348 473.08H124.348L117.873 468.382ZM109.713 479.629L116.188 484.327L116.188 484.327L109.713 479.629ZM106.279 485.44L113.517 488.847L113.517 488.847L106.279 485.44ZM97.4983 504.099L90.2598 500.693L90.118 500.994L90.0017 501.306L97.4983 504.099ZM85.3573 536.688L77.8607 533.895L76.0665 538.711L79.7005 542.345L85.3573 536.688ZM101.332 552.663L106.989 547.006H106.989L101.332 552.663ZM117.307 568.638L111.65 574.295L115.284 577.929L120.1 576.135L117.307 568.638ZM149.896 556.497L152.689 563.994L153.001 563.877L153.303 563.736L149.896 556.497ZM168.555 547.717L165.149 540.478H165.149L168.555 547.717ZM174.366 544.282L179.064 550.758H179.064L174.366 544.282ZM185.613 536.123L190.311 542.598L190.311 542.598L185.613 536.123ZM189.929 532.439L195.586 538.096H195.586L189.929 532.439ZM199.738 522.63L194.532 516.556L194.299 516.756L194.082 516.973L199.738 522.63ZM205.396 517.781L210.602 523.855H210.602L205.396 517.781ZM223.181 513.133L224.75 505.288L224.75 505.288L223.181 513.133ZM228.587 514.214L232.315 507.136L231.291 506.596L230.156 506.369L228.587 514.214ZM264.631 529.114L269.069 522.457L268.1 521.812L266.987 521.469L264.631 529.114ZM268.771 531.874L264.334 538.53L264.334 538.53L268.771 531.874ZM278.064 547.776L286.041 547.178L278.064 547.776ZM278.653 555.632H286.653V555.332L286.63 555.033L278.653 555.632ZM279.1 574.708L271.199 575.965L279.1 574.708ZM281.283 588.431L273.383 589.688V589.688L281.283 588.431ZM282.964 594.969L275.437 597.678V597.679L282.964 594.969ZM289.949 614.371L282.422 617.081L282.535 617.394L282.673 617.697L289.949 614.371ZM304.408 646L297.132 649.326L299.269 654H304.408V646ZM349.592 646V654H354.731L356.868 649.326L349.592 646ZM364.051 614.371L371.327 617.697L371.465 617.394L371.578 617.081L364.051 614.371ZM371.036 594.969L378.563 597.679V597.678L371.036 594.969ZM372.717 588.431L380.617 589.688V589.688L372.717 588.431ZM374.9 574.708L382.8 575.965L374.9 574.708ZM375.347 555.18L367.371 554.566L367.347 554.873V555.18H375.347ZM375.918 547.75L367.942 547.137L375.918 547.75ZM385.208 531.888L380.77 525.231L380.77 525.231L385.208 531.888ZM389.369 529.114L387.012 521.469L385.9 521.812L384.931 522.457L389.369 529.114ZM425.402 514.22L423.833 506.375L422.698 506.602L421.674 507.141L425.402 514.22ZM430.79 513.142L432.359 520.987H432.359L430.79 513.142ZM448.605 517.816L453.823 511.752H453.823L448.605 517.816ZM454.576 522.954L460.233 517.297L460.021 517.085L459.794 516.89L454.576 522.954ZM468.382 536.127L463.684 542.602H463.684L468.382 536.127ZM479.629 544.287L474.931 550.762L474.931 550.762L479.629 544.287ZM485.44 547.721L482.034 554.96V554.96L485.44 547.721ZM504.099 556.502L500.693 563.74L500.994 563.882L501.306 563.998L504.099 556.502ZM536.688 568.643L533.895 576.139L538.711 577.933L542.345 574.299L536.688 568.643ZM552.663 552.668L547.006 547.011L552.663 552.668ZM568.638 536.693L574.295 542.349L577.929 538.716L576.135 533.9L568.638 536.693ZM556.497 504.104L563.994 501.311L563.877 500.999L563.735 500.697L556.497 504.104ZM547.716 485.445L554.955 482.039H554.955L547.716 485.445ZM544.282 479.634L550.758 474.936L550.758 474.936L544.282 479.634ZM536.122 468.386L542.598 463.689V463.689L536.122 468.386ZM522.63 454.262L516.556 459.468L516.756 459.701L516.973 459.918L522.63 454.262ZM517.78 448.604L523.855 443.398L517.78 448.604ZM513.133 430.819L505.288 429.25L505.288 429.25L513.133 430.819ZM514.214 425.413L507.136 421.685L506.596 422.709L506.369 423.844L514.214 425.413ZM529.114 389.369L522.457 384.932L521.811 385.9L521.469 387.013L529.114 389.369ZM531.888 385.208L538.544 389.646V389.646L531.888 385.208ZM547.75 375.919L547.137 367.942L547.75 375.919ZM555.18 375.347V367.347H554.873L554.566 367.371L555.18 375.347ZM574.708 374.9L573.452 366.999L574.708 374.9ZM588.431 372.717L589.688 380.617H589.688L588.431 372.717ZM594.969 371.036L592.259 363.509L592.259 363.509L594.969 371.036ZM614.371 364.051L617.081 371.578L617.394 371.465L617.697 371.327L614.371 364.051ZM646 349.592L649.326 356.868L654 354.731V349.592H646ZM646 304.408H654V299.269L649.326 297.132L646 304.408ZM614.371 289.949L617.697 282.673L617.394 282.535L617.081 282.422L614.371 289.949ZM594.969 282.964L592.259 290.491L592.259 290.491L594.969 282.964ZM588.431 281.283L589.688 273.383H589.688L588.431 281.283ZM574.708 279.1L573.452 287.001L574.708 279.1ZM555.632 278.653L555.033 286.631L555.332 286.653H555.632V278.653ZM547.776 278.064L547.178 286.041L547.776 278.064ZM531.874 268.771L538.53 264.334L538.53 264.334L531.874 268.771ZM529.114 264.631L521.469 266.987L521.811 268.1L522.457 269.068L529.114 264.631ZM513.835 227.871L505.99 229.44L506.22 230.591L506.771 231.627L513.835 227.871ZM512.936 223.378L520.781 221.809L512.936 223.378ZM517.584 205.593L511.51 200.386L511.51 200.386L517.584 205.593ZM522.433 199.935L516.777 194.278L516.559 194.495L516.359 194.729L522.433 199.935ZM532.243 190.126L526.586 184.469L526.586 184.469L532.243 190.126ZM535.926 185.81L542.401 190.508L542.401 190.508L535.926 185.81ZM544.086 174.563L537.61 169.865L537.61 169.865L544.086 174.563ZM547.52 168.751L540.281 165.345L540.281 165.345L547.52 168.751ZM556.3 150.093L563.539 153.499L563.681 153.198L563.797 152.886L556.3 150.093ZM568.441 117.504L575.938 120.297L577.732 115.481L574.098 111.847L568.441 117.504ZM552.466 101.529L558.123 95.872V95.872L552.466 101.529ZM536.491 85.5539L542.148 79.897L538.514 76.2631L533.699 78.0572L536.491 85.5539ZM503.902 97.6949L501.11 90.1982L500.797 90.3145L500.496 90.4564L503.902 97.6949ZM485.244 106.475L488.65 113.714L488.65 113.714L485.244 106.475ZM479.432 109.91L474.735 103.434L474.735 103.434L479.432 109.91ZM468.185 118.069L463.488 111.594L463.488 111.594L468.185 118.069ZM463.87 121.753L469.527 127.41L469.527 127.409L463.87 121.753ZM454.38 131.242L459.598 137.306L459.825 137.111L460.037 136.899L454.38 131.242ZM448.409 136.38L453.627 142.444L453.627 142.444L448.409 136.38ZM430.593 141.054L432.162 133.21L430.593 141.054ZM387.013 132.531C399.335 136.33 411.16 141.268 422.363 147.223L429.873 133.095C417.786 126.67 405.026 121.341 391.725 117.241L387.013 132.531ZM393.807 118.23L389.645 115.456L380.77 128.769L384.931 131.543L393.807 118.23ZM389.646 115.456C386.322 113.24 384.201 109.619 383.895 105.636L367.942 106.863C368.625 115.748 373.356 123.826 380.77 128.769L389.646 115.456ZM383.895 105.636L383.323 98.2066L367.371 99.4337L367.942 106.863L383.895 105.636ZM383.347 98.8201V84.9477H367.347V98.8201H383.347ZM383.347 84.9477C383.347 82.6326 383.164 80.321 382.8 78.0347L366.999 80.5485C367.231 82.0035 367.347 83.4745 367.347 84.9477H383.347ZM382.8 78.0347L380.617 64.3121L364.816 66.8259L366.999 80.5485L382.8 78.0347ZM380.617 64.3121C380.184 61.59 379.496 58.9148 378.563 56.3215L363.509 61.7409C364.103 63.3913 364.54 65.0938 364.816 66.8259L380.617 64.3121ZM378.563 56.3215L371.578 36.9191L356.524 42.3387L363.509 61.741L378.563 56.3215ZM371.327 36.3028L356.868 4.67392L342.316 11.3261L356.775 42.955L371.327 36.3028ZM349.592 0H327V16H349.592V0ZM327 0H304.408V16H327V0ZM297.132 4.67392L282.673 36.3028L297.225 42.955L311.684 11.3261L297.132 4.67392ZM282.422 36.9191L275.437 56.3215L290.491 61.741L297.476 42.3387L282.422 36.9191ZM275.437 56.3215C274.503 58.9148 273.816 61.59 273.383 64.3121L289.184 66.8259C289.459 65.0938 289.897 63.3913 290.491 61.7409L275.437 56.3215ZM273.383 64.3121L271.199 78.0347L287.001 80.5485L289.184 66.8259L273.383 64.3121ZM271.199 78.0347C270.836 80.321 270.653 82.6326 270.653 84.9477H286.653C286.653 83.4745 286.769 82.0035 287.001 80.5485L271.199 78.0347ZM270.653 84.9477V98.3683H286.653V84.9477H270.653ZM270.675 97.77L270.086 105.625L286.041 106.822L286.63 98.9666L270.675 97.77ZM270.086 105.625C269.787 109.617 267.665 113.249 264.334 115.47L273.209 128.782C280.64 123.829 285.373 115.727 286.041 106.822L270.086 105.625ZM264.334 115.47L260.193 118.23L269.068 131.543L273.209 128.782L264.334 115.47ZM231.627 147.229C242.833 141.271 254.661 136.331 266.987 132.531L262.274 117.241C248.97 121.342 236.206 126.673 224.115 133.101L231.627 147.229ZM226.302 132.32L221.809 133.219L224.947 148.908L229.44 148.01L226.302 132.32ZM221.809 133.219C217.892 134.002 213.832 132.942 210.799 130.342L200.386 142.49C207.152 148.289 216.208 150.656 224.947 148.908L221.809 133.219ZM210.799 130.342L205.141 125.492L194.729 137.641L200.386 142.49L210.799 130.342ZM205.592 125.91L195.782 116.1L184.469 127.414L194.278 137.223L205.592 125.91ZM195.782 116.1C194.145 114.463 192.382 112.958 190.508 111.598L181.112 124.549C182.305 125.414 183.427 126.372 184.469 127.414L195.782 116.1ZM190.508 111.598L179.261 103.439L169.865 116.39L181.112 124.549L190.508 111.598ZM179.261 103.439C177.03 101.82 174.652 100.415 172.158 99.2414L165.345 113.718C166.932 114.465 168.445 115.36 169.865 116.39L179.261 103.439ZM172.158 99.2414L153.499 90.4609L146.686 104.938L165.345 113.718L172.158 99.2414ZM152.886 90.2028L120.297 78.0618L114.711 93.0551L147.3 105.196L152.886 90.2028ZM111.847 79.9016L95.8719 95.8766L107.186 107.19L123.161 91.2153L111.847 79.9016ZM95.8719 95.8766L79.8969 111.852L91.2106 123.165L107.186 107.19L95.8719 95.8766ZM78.0571 120.301L90.1981 152.89L105.191 147.305L93.0505 114.716L78.0571 120.301ZM90.4563 153.504L99.2367 172.162L113.714 165.35L104.933 146.691L90.4563 153.504ZM99.2367 172.162C100.41 174.656 101.816 177.034 103.434 179.265L116.385 169.87C115.355 168.45 114.461 166.937 113.714 165.35L99.2367 172.162ZM103.434 179.265L111.594 190.512L124.545 181.117L116.385 169.87L103.434 179.265ZM111.594 190.512C112.953 192.386 114.459 194.15 116.096 195.787L127.409 184.473C126.368 183.432 125.41 182.309 124.545 181.117L111.594 190.512ZM116.096 195.787L125.585 205.277L136.899 193.963L127.409 184.473L116.096 195.787ZM125.178 204.838L130.316 210.809L142.444 200.373L137.306 194.402L125.178 204.838ZM130.316 210.809C132.927 213.844 133.995 217.912 133.21 221.838L148.899 224.976C150.65 216.218 148.269 207.143 142.444 200.373L130.316 210.809ZM133.21 221.838L132.314 226.313L148.004 229.451L148.899 224.975L133.21 221.838ZM132.531 266.988C136.329 254.665 141.267 242.84 147.223 231.637L133.095 224.127C126.67 236.214 121.341 248.974 117.241 262.275L132.531 266.988ZM118.23 260.194L115.47 264.334L128.782 273.209L131.542 269.069L118.23 260.194ZM115.47 264.334C113.249 267.665 109.617 269.787 105.625 270.086L106.822 286.041C115.727 285.374 123.829 280.64 128.782 273.209L115.47 264.334ZM105.625 270.086L97.77 270.675L98.9666 286.631L106.822 286.041L105.625 270.086ZM98.3683 270.653H84.9478V286.653H98.3683V270.653ZM84.9478 270.653C82.6326 270.653 80.3211 270.836 78.0347 271.199L80.5485 287.001C82.0035 286.769 83.4745 286.653 84.9478 286.653V270.653ZM78.0346 271.199L64.312 273.383L66.8259 289.184L80.5485 287.001L78.0346 271.199ZM64.312 273.383C61.5901 273.816 58.9148 274.503 56.3214 275.437L61.7411 290.491C63.3912 289.897 65.0937 289.459 66.8259 289.184L64.312 273.383ZM56.3215 275.437L36.9192 282.422L42.3387 297.476L61.741 290.491L56.3215 275.437ZM36.3028 282.673L4.67392 297.132L11.3261 311.684L42.955 297.225L36.3028 282.673ZM0 304.408V327H16V304.408H0ZM0 327V349.592H16V327H0ZM4.67392 356.868L36.3028 371.327L42.955 356.775L11.3261 342.316L4.67392 356.868ZM36.9192 371.578L56.3215 378.563L61.741 363.509L42.3387 356.524L36.9192 371.578ZM56.3214 378.563C58.9148 379.497 61.5901 380.184 64.312 380.617L66.8259 364.816C65.0937 364.541 63.3912 364.103 61.7411 363.509L56.3214 378.563ZM64.312 380.617L78.0346 382.801L80.5485 366.999L66.8259 364.816L64.312 380.617ZM78.0347 382.801C80.3212 383.164 82.6327 383.347 84.9478 383.347V367.347C83.4744 367.347 82.0034 367.231 80.5485 366.999L78.0347 382.801ZM84.9478 383.347H98.8201V367.347H84.9478V383.347ZM98.2065 383.323L105.636 383.895L106.863 367.942L99.4337 367.371L98.2065 383.323ZM105.636 383.895C109.619 384.201 113.24 386.322 115.456 389.646L128.769 380.77C123.826 373.356 115.748 368.626 106.863 367.942L105.636 383.895ZM115.456 389.646L118.23 393.806L131.542 384.931L128.769 380.77L115.456 389.646ZM146.858 421.674C141.066 410.675 136.252 399.083 132.531 387.012L117.241 391.725C121.257 404.754 126.452 417.263 132.702 429.13L146.858 421.674ZM131.935 426.971L133.013 432.359L148.702 429.221L147.625 423.833L131.935 426.971ZM133.013 432.359C133.798 436.284 132.731 440.353 130.12 443.388L142.248 453.823C148.073 447.054 150.454 437.978 148.702 429.221L133.013 432.359ZM130.12 443.388L124.982 449.359L137.11 459.794L142.248 453.823L130.12 443.388ZM125.389 448.92L115.899 458.409L127.213 469.723L136.703 460.233L125.389 448.92ZM115.899 458.409C114.262 460.046 112.757 461.81 111.397 463.684L124.348 473.08C125.213 471.887 126.171 470.765 127.213 469.723L115.899 458.409ZM111.397 463.684L103.238 474.931L116.188 484.327L124.348 473.08L111.397 463.684ZM103.238 474.931C101.619 477.162 100.214 479.54 99.0403 482.034L113.517 488.847C114.264 487.26 115.159 485.746 116.188 484.327L103.238 474.931ZM99.0403 482.034L90.2598 500.693L104.737 507.505L113.517 488.847L99.0403 482.034ZM90.0017 501.306L77.8607 533.895L92.854 539.481L104.995 506.892L90.0017 501.306ZM79.7005 542.345L95.6755 558.32L106.989 547.006L91.0142 531.031L79.7005 542.345ZM95.6755 558.32L111.65 574.295L122.964 562.981L106.989 547.006L95.6755 558.32ZM120.1 576.135L152.689 563.994L147.103 549L114.514 561.141L120.1 576.135ZM153.303 563.736L171.961 554.955L165.149 540.478L146.49 549.259L153.303 563.736ZM171.961 554.955C174.455 553.781 176.833 552.376 179.064 550.758L169.669 537.807C168.249 538.837 166.736 539.731 165.149 540.478L171.961 554.955ZM179.064 550.758L190.311 542.598L180.916 529.647L169.669 537.807L179.064 550.758ZM190.311 542.598C192.185 541.238 193.949 539.733 195.586 538.096L184.272 526.782C183.23 527.824 182.108 528.782 180.916 529.647L190.311 542.598ZM195.586 538.096L205.395 528.287L194.082 516.973L184.272 526.782L195.586 538.096ZM204.945 528.704L210.602 523.855L200.19 511.707L194.532 516.556L204.945 528.704ZM210.602 523.855C213.635 521.255 217.695 520.194 221.612 520.977L224.75 505.288C216.012 503.541 206.956 505.907 200.19 511.707L210.602 523.855ZM221.612 520.977L227.018 522.059L230.156 506.369L224.75 505.288L221.612 520.977ZM266.987 521.469C254.913 517.747 243.317 512.931 232.315 507.136L224.859 521.292C236.728 527.544 249.242 532.742 262.275 536.759L266.987 521.469ZM260.193 535.77L264.334 538.53L273.209 525.218L269.069 522.457L260.193 535.77ZM264.334 538.53C267.665 540.751 269.787 544.383 270.086 548.375L286.041 547.178C285.373 538.273 280.64 530.171 273.209 525.218L264.334 538.53ZM270.086 548.375L270.675 556.23L286.63 555.033L286.041 547.178L270.086 548.375ZM270.653 555.632V569.052H286.653V555.632H270.653ZM270.653 569.052C270.653 571.367 270.836 573.679 271.199 575.965L287.001 573.452C286.769 571.996 286.653 570.526 286.653 569.052H270.653ZM271.199 575.965L273.383 589.688L289.184 587.174L287.001 573.452L271.199 575.965ZM273.383 589.688C273.816 592.41 274.503 595.085 275.437 597.678L290.491 592.259C289.897 590.609 289.459 588.906 289.184 587.174L273.383 589.688ZM275.437 597.679L282.422 617.081L297.476 611.661L290.491 592.259L275.437 597.679ZM282.673 617.697L297.132 649.326L311.684 642.674L297.225 611.045L282.673 617.697ZM304.408 654H327V638H304.408V654ZM327 654H349.592V638H327V654ZM356.868 649.326L371.327 617.697L356.775 611.045L342.316 642.674L356.868 649.326ZM371.578 617.081L378.563 597.679L363.509 592.259L356.524 611.661L371.578 617.081ZM378.563 597.678C379.496 595.085 380.184 592.41 380.617 589.688L364.816 587.174C364.54 588.906 364.103 590.609 363.509 592.259L378.563 597.678ZM380.617 589.688L382.8 575.965L366.999 573.452L364.816 587.174L380.617 589.688ZM382.8 575.965C383.164 573.679 383.347 571.367 383.347 569.052H367.347C367.347 570.526 367.231 571.996 366.999 573.452L382.8 575.965ZM383.347 569.052V555.18H367.347V569.052H383.347ZM383.323 555.793L383.895 548.364L367.942 547.137L367.371 554.566L383.323 555.793ZM383.895 548.364C384.201 544.381 386.322 540.76 389.646 538.544L380.77 525.231C373.356 530.174 368.625 538.252 367.942 547.137L383.895 548.364ZM389.645 538.544L393.806 535.77L384.931 522.457L380.77 525.231L389.645 538.544ZM421.674 507.141C410.675 512.934 399.083 517.748 387.012 521.469L391.725 536.759C404.754 532.743 417.264 527.548 429.13 521.298L421.674 507.141ZM426.971 522.064L432.359 520.987L429.221 505.298L423.833 506.375L426.971 522.064ZM432.359 520.987C436.284 520.202 440.353 521.269 443.387 523.88L453.823 511.752C447.054 505.927 437.978 503.546 429.221 505.298L432.359 520.987ZM443.387 523.88L449.358 529.018L459.794 516.89L453.823 511.752L443.387 523.88ZM448.92 528.611L458.409 538.101L469.723 526.787L460.233 517.297L448.92 528.611ZM458.409 538.101C460.046 539.738 461.81 541.243 463.684 542.602L473.08 529.652C471.887 528.787 470.765 527.829 469.723 526.787L458.409 538.101ZM463.684 542.602L474.931 550.762L484.327 537.811L473.08 529.652L463.684 542.602ZM474.931 550.762C477.162 552.381 479.54 553.786 482.034 554.96L488.847 540.483C487.26 539.736 485.746 538.841 484.327 537.811L474.931 550.762ZM482.034 554.96L500.693 563.74L507.505 549.263L488.847 540.482L482.034 554.96ZM501.306 563.998L533.895 576.139L539.481 561.146L506.892 549.005L501.306 563.998ZM542.345 574.299L558.32 558.324L547.006 547.011L531.031 562.986L542.345 574.299ZM558.32 558.324L574.295 542.349L562.981 531.036L547.006 547.011L558.32 558.324ZM576.135 533.9L563.994 501.311L549 506.896L561.141 539.485L576.135 533.9ZM563.735 500.697L554.955 482.039L540.478 488.851L549.258 507.51L563.735 500.697ZM554.955 482.039C553.781 479.545 552.376 477.167 550.758 474.936L537.807 484.331C538.837 485.751 539.731 487.264 540.478 488.851L554.955 482.039ZM550.758 474.936L542.598 463.689L529.647 473.084L537.807 484.331L550.758 474.936ZM542.598 463.689C541.238 461.815 539.733 460.051 538.096 458.414L526.782 469.728C527.824 470.769 528.782 471.892 529.647 473.084L542.598 463.689ZM538.096 458.414L528.287 448.605L516.973 459.918L526.782 469.728L538.096 458.414ZM528.704 449.055L523.855 443.398L511.706 453.81L516.556 459.468L528.704 449.055ZM523.855 443.398C521.255 440.365 520.194 436.305 520.977 432.388L505.288 429.25C503.54 437.988 505.907 447.044 511.706 453.81L523.855 443.398ZM520.977 432.388L522.058 426.982L506.369 423.844L505.288 429.25L520.977 432.388ZM521.469 387.013C517.747 399.087 512.931 410.683 507.136 421.685L521.292 429.141C527.544 417.272 532.742 404.758 536.759 391.726L521.469 387.013ZM535.77 393.807L538.544 389.646L525.231 380.77L522.457 384.932L535.77 393.807ZM538.544 389.646C540.76 386.322 544.381 384.201 548.364 383.895L547.137 367.942C538.252 368.626 530.174 373.356 525.231 380.77L538.544 389.646ZM548.364 383.895L555.793 383.323L554.566 367.371L547.137 367.942L548.364 383.895ZM555.18 383.347H569.052V367.347H555.18V383.347ZM569.052 383.347C571.367 383.347 573.679 383.164 575.965 382.801L573.452 366.999C571.997 367.231 570.526 367.347 569.052 367.347V383.347ZM575.965 382.801L589.688 380.617L587.174 364.816L573.452 366.999L575.965 382.801ZM589.688 380.617C592.41 380.184 595.085 379.497 597.679 378.563L592.259 363.509C590.609 364.103 588.906 364.541 587.174 364.816L589.688 380.617ZM597.679 378.563L617.081 371.578L611.661 356.524L592.259 363.509L597.679 378.563ZM617.697 371.327L649.326 356.868L642.674 342.316L611.045 356.775L617.697 371.327ZM654 349.592V327H638V349.592H654ZM654 327V304.408H638V327H654ZM649.326 297.132L617.697 282.673L611.045 297.225L642.674 311.684L649.326 297.132ZM617.081 282.422L597.679 275.437L592.259 290.491L611.661 297.476L617.081 282.422ZM597.679 275.437C595.085 274.503 592.41 273.816 589.688 273.383L587.174 289.184C588.906 289.459 590.609 289.897 592.259 290.491L597.679 275.437ZM589.688 273.383L575.965 271.199L573.452 287.001L587.174 289.184L589.688 273.383ZM575.965 271.199C573.679 270.836 571.367 270.653 569.052 270.653V286.653C570.526 286.653 571.997 286.769 573.452 287.001L575.965 271.199ZM569.052 270.653H555.632V286.653H569.052V270.653ZM556.23 270.675L548.375 270.086L547.178 286.041L555.033 286.631L556.23 270.675ZM548.375 270.086C544.383 269.787 540.751 267.665 538.53 264.334L525.218 273.209C530.171 280.64 538.273 285.374 547.178 286.041L548.375 270.086ZM538.53 264.334L535.77 260.193L522.457 269.068L525.218 273.209L538.53 264.334ZM506.771 231.627C512.729 242.833 517.669 254.66 521.469 266.987L536.759 262.274C532.658 248.97 527.327 236.205 520.899 224.115L506.771 231.627ZM521.68 226.302L520.781 221.809L505.092 224.947L505.99 229.44L521.68 226.302ZM520.781 221.809C519.997 217.892 521.058 213.832 523.658 210.799L511.51 200.386C505.711 207.152 503.344 216.209 505.092 224.947L520.781 221.809ZM523.658 210.799L528.508 205.141L516.359 194.729L511.51 200.386L523.658 210.799ZM528.09 205.592L537.9 195.783L526.586 184.469L516.777 194.278L528.09 205.592ZM537.9 195.783C539.537 194.145 541.042 192.382 542.401 190.508L529.451 181.112C528.586 182.305 527.628 183.427 526.586 184.469L537.9 195.783ZM542.401 190.508L550.561 179.261L537.61 169.865L529.451 181.112L542.401 190.508ZM550.561 179.261C552.18 177.03 553.585 174.652 554.759 172.158L540.281 165.345C539.535 166.932 538.64 168.445 537.61 169.865L550.561 179.261ZM554.758 172.158L563.539 153.499L549.062 146.687L540.281 165.345L554.758 172.158ZM563.797 152.886L575.938 120.297L560.945 114.711L548.804 147.3L563.797 152.886ZM574.098 111.847L558.123 95.872L546.81 107.186L562.785 123.161L574.098 111.847ZM558.123 95.872L542.148 79.897L530.835 91.2108L546.81 107.186L558.123 95.872ZM533.699 78.0572L501.11 90.1982L506.695 105.192L539.284 93.0506L533.699 78.0572ZM500.496 90.4564L481.838 99.2368L488.65 113.714L507.309 104.933L500.496 90.4564ZM481.838 99.2368C479.344 100.41 476.966 101.816 474.735 103.434L484.13 116.385C485.55 115.355 487.063 114.461 488.65 113.714L481.838 99.2368ZM474.735 103.434L463.488 111.594L472.883 124.545L484.13 116.385L474.735 103.434ZM463.488 111.594C461.614 112.953 459.85 114.459 458.213 116.096L469.527 127.409C470.568 126.368 471.691 125.41 472.883 124.545L463.488 111.594ZM458.213 116.096L448.723 125.586L460.037 136.899L469.527 127.41L458.213 116.096ZM449.162 125.178L443.191 130.316L453.627 142.444L459.598 137.306L449.162 125.178ZM443.191 130.316C440.156 132.927 436.088 133.995 432.162 133.21L429.024 148.899C437.782 150.65 446.857 148.269 453.627 142.444L443.191 130.316ZM432.162 133.21L427.687 132.315L424.549 148.004L429.024 148.899L432.162 133.21Z" fill="#259FFD" mask="url(#path-1-outside-1_22_166)"/>
<path d="M389.369 124.886L384.931 131.543L385.9 132.188L387.013 132.531L389.369 124.886ZM426.118 140.159L422.363 147.223L423.399 147.774L424.549 148.004L426.118 140.159ZM385.208 122.112L380.77 128.769L380.77 128.769L385.208 122.112ZM375.918 106.25L367.942 106.863V106.863L375.918 106.25ZM375.347 98.8201H367.347V99.1273L367.371 99.4337L375.347 98.8201ZM374.9 79.2916L382.8 78.0347L374.9 79.2916ZM372.717 65.569L380.617 64.3121L372.717 65.569ZM371.036 59.0312L378.563 56.3215L378.563 56.3215L371.036 59.0312ZM364.051 39.6289L371.578 36.9191L371.465 36.6057L371.327 36.3028L364.051 39.6289ZM349.592 8L356.868 4.67392L354.731 0H349.592V8ZM304.408 8V0H299.269L297.132 4.67392L304.408 8ZM289.949 39.6289L282.673 36.3028L282.535 36.6057L282.422 36.9191L289.949 39.6289ZM282.964 59.0312L275.437 56.3215L275.437 56.3215L282.964 59.0312ZM281.283 65.569L273.383 64.3121L281.283 65.569ZM279.1 79.2916L271.199 78.0347L279.1 79.2916ZM278.653 98.3683L286.63 98.9666L286.653 98.6678V98.3683H278.653ZM278.064 106.224L286.041 106.822V106.822L278.064 106.224ZM268.771 122.126L273.209 128.782V128.782L268.771 122.126ZM264.631 124.886L266.987 132.531L268.1 132.188L269.068 131.543L264.631 124.886ZM227.871 140.165L229.44 148.01L230.59 147.78L231.627 147.229L227.871 140.165ZM223.378 141.064L224.947 148.908H224.947L223.378 141.064ZM205.592 136.416L200.386 142.49L205.592 136.416ZM199.935 131.566L194.278 137.223L194.495 137.441L194.729 137.641L199.935 131.566ZM185.81 118.074L181.112 124.549L181.112 124.549L185.81 118.074ZM174.563 109.914L179.261 103.439L179.261 103.439L174.563 109.914ZM168.751 106.48L172.158 99.2414L168.751 106.48ZM150.093 97.6994L153.499 90.4609L153.198 90.3191L152.886 90.2028L150.093 97.6994ZM117.504 85.5584L120.297 78.0618L115.481 76.2676L111.847 79.9016L117.504 85.5584ZM85.5538 117.508L79.8969 111.852L76.263 115.486L78.0571 120.301L85.5538 117.508ZM97.6948 150.097L90.1981 152.89L90.3144 153.202L90.4563 153.504L97.6948 150.097ZM106.475 168.756L99.2367 172.162L106.475 168.756ZM109.91 174.567L103.434 179.265L109.91 174.567ZM118.069 185.815L124.545 181.117L124.545 181.117L118.069 185.815ZM121.753 190.13L127.409 184.473L127.409 184.473L121.753 190.13ZM131.242 199.62L137.306 194.402L137.111 194.175L136.899 193.963L131.242 199.62ZM136.38 205.591L142.444 200.373L142.444 200.373L136.38 205.591ZM141.054 223.407L133.21 221.838L133.21 221.838L141.054 223.407ZM140.159 227.882L147.223 231.637L147.774 230.601L148.004 229.451L140.159 227.882ZM124.886 264.631L131.542 269.069L132.188 268.1L132.531 266.988L124.886 264.631ZM122.126 268.771L115.47 264.334L115.47 264.334L122.126 268.771ZM106.224 278.064L106.822 286.041H106.822L106.224 278.064ZM98.3683 278.653V286.653H98.6679L98.9666 286.631L98.3683 278.653ZM79.2916 279.1L78.0347 271.199H78.0346L79.2916 279.1ZM65.569 281.283L64.312 273.383H64.312L65.569 281.283ZM59.0312 282.964L61.741 290.491L61.7411 290.491L59.0312 282.964ZM39.6289 289.949L36.9192 282.422L36.6058 282.535L36.3028 282.673L39.6289 289.949ZM8 304.408L4.67392 297.132L0 299.269V304.408H8ZM8 349.592H0V354.731L4.67392 356.868L8 349.592ZM39.6289 364.051L36.3028 371.327L36.6058 371.465L36.9192 371.578L39.6289 364.051ZM59.0312 371.036L61.7411 363.509L61.741 363.509L59.0312 371.036ZM65.569 372.717L64.312 380.617H64.312L65.569 372.717ZM79.2916 374.9L78.0346 382.801H78.0347L79.2916 374.9ZM98.8201 375.347L99.4337 367.371L99.1274 367.347H98.8201V375.347ZM106.25 375.919L105.636 383.895H105.636L106.25 375.919ZM122.112 385.208L128.769 380.77L128.769 380.77L122.112 385.208ZM124.886 389.369L132.531 387.012L132.188 385.9L131.542 384.931L124.886 389.369ZM139.78 425.402L147.625 423.833L147.398 422.698L146.858 421.674L139.78 425.402ZM140.858 430.79L133.013 432.359L133.013 432.359L140.858 430.79ZM136.184 448.605L130.12 443.388L136.184 448.605ZM131.046 454.577L136.703 460.233L136.915 460.022L137.11 459.794L131.046 454.577ZM121.556 464.066L127.213 469.723H127.213L121.556 464.066ZM117.873 468.382L124.348 473.08H124.348L117.873 468.382ZM109.713 479.629L116.188 484.327L116.188 484.327L109.713 479.629ZM106.279 485.44L113.517 488.847L113.517 488.847L106.279 485.44ZM97.4983 504.099L90.2598 500.693L90.118 500.994L90.0017 501.306L97.4983 504.099ZM85.3573 536.688L77.8607 533.895L76.0665 538.711L79.7005 542.345L85.3573 536.688ZM101.332 552.663L106.989 547.006H106.989L101.332 552.663ZM117.307 568.638L111.65 574.295L115.284 577.929L120.1 576.135L117.307 568.638ZM149.896 556.497L152.689 563.994L153.001 563.877L153.303 563.736L149.896 556.497ZM168.555 547.717L165.149 540.478H165.149L168.555 547.717ZM174.366 544.282L179.064 550.758H179.064L174.366 544.282ZM185.613 536.123L190.311 542.598L190.311 542.598L185.613 536.123ZM189.929 532.439L195.586 538.096H195.586L189.929 532.439ZM199.738 522.63L194.532 516.556L194.299 516.756L194.082 516.973L199.738 522.63ZM205.396 517.781L210.602 523.855H210.602L205.396 517.781ZM223.181 513.133L224.75 505.288L224.75 505.288L223.181 513.133ZM228.587 514.214L232.315 507.136L231.291 506.596L230.156 506.369L228.587 514.214ZM264.631 529.114L269.069 522.457L268.1 521.812L266.987 521.469L264.631 529.114ZM268.771 531.874L264.334 538.53L264.334 538.53L268.771 531.874ZM278.064 547.776L286.041 547.178L278.064 547.776ZM278.653 555.632H286.653V555.332L286.63 555.033L278.653 555.632ZM279.1 574.708L271.199 575.965L279.1 574.708ZM281.283 588.431L273.383 589.688V589.688L281.283 588.431ZM282.964 594.969L275.437 597.678V597.679L282.964 594.969ZM289.949 614.371L282.422 617.081L282.535 617.394L282.673 617.697L289.949 614.371ZM304.408 646L297.132 649.326L299.269 654H304.408V646ZM349.592 646V654H354.731L356.868 649.326L349.592 646ZM364.051 614.371L371.327 617.697L371.465 617.394L371.578 617.081L364.051 614.371ZM371.036 594.969L378.563 597.679V597.678L371.036 594.969ZM372.717 588.431L380.617 589.688V589.688L372.717 588.431ZM374.9 574.708L382.8 575.965L374.9 574.708ZM375.347 555.18L367.371 554.566L367.347 554.873V555.18H375.347ZM375.918 547.75L367.942 547.137L375.918 547.75ZM385.208 531.888L380.77 525.231L380.77 525.231L385.208 531.888ZM389.369 529.114L387.012 521.469L385.9 521.812L384.931 522.457L389.369 529.114ZM425.402 514.22L423.833 506.375L422.698 506.602L421.674 507.141L425.402 514.22ZM430.79 513.142L432.359 520.987H432.359L430.79 513.142ZM448.605 517.816L453.823 511.752H453.823L448.605 517.816ZM454.576 522.954L460.233 517.297L460.021 517.085L459.794 516.89L454.576 522.954ZM468.382 536.127L463.684 542.602H463.684L468.382 536.127ZM479.629 544.287L474.931 550.762L474.931 550.762L479.629 544.287ZM485.44 547.721L482.034 554.96V554.96L485.44 547.721ZM504.099 556.502L500.693 563.74L500.994 563.882L501.306 563.998L504.099 556.502ZM536.688 568.643L533.895 576.139L538.711 577.933L542.345 574.299L536.688 568.643ZM552.663 552.668L547.006 547.011L552.663 552.668ZM568.638 536.693L574.295 542.349L577.929 538.716L576.135 533.9L568.638 536.693ZM556.497 504.104L563.994 501.311L563.877 500.999L563.735 500.697L556.497 504.104ZM547.716 485.445L554.955 482.039H554.955L547.716 485.445ZM544.282 479.634L550.758 474.936L550.758 474.936L544.282 479.634ZM536.122 468.386L542.598 463.689V463.689L536.122 468.386ZM522.63 454.262L516.556 459.468L516.756 459.701L516.973 459.918L522.63 454.262ZM517.78 448.604L523.855 443.398L517.78 448.604ZM513.133 430.819L505.288 429.25L505.288 429.25L513.133 430.819ZM514.214 425.413L507.136 421.685L506.596 422.709L506.369 423.844L514.214 425.413ZM529.114 389.369L522.457 384.932L521.811 385.9L521.469 387.013L529.114 389.369ZM531.888 385.208L538.544 389.646V389.646L531.888 385.208ZM547.75 375.919L547.137 367.942L547.75 375.919ZM555.18 375.347V367.347H554.873L554.566 367.371L555.18 375.347ZM574.708 374.9L573.452 366.999L574.708 374.9ZM588.431 372.717L589.688 380.617H589.688L588.431 372.717ZM594.969 371.036L592.259 363.509L592.259 363.509L594.969 371.036ZM614.371 364.051L617.081 371.578L617.394 371.465L617.697 371.327L614.371 364.051ZM646 349.592L649.326 356.868L654 354.731V349.592H646ZM646 304.408H654V299.269L649.326 297.132L646 304.408ZM614.371 289.949L617.697 282.673L617.394 282.535L617.081 282.422L614.371 289.949ZM594.969 282.964L592.259 290.491L592.259 290.491L594.969 282.964ZM588.431 281.283L589.688 273.383H589.688L588.431 281.283ZM574.708 279.1L573.452 287.001L574.708 279.1ZM555.632 278.653L555.033 286.631L555.332 286.653H555.632V278.653ZM547.776 278.064L547.178 286.041L547.776 278.064ZM531.874 268.771L538.53 264.334L538.53 264.334L531.874 268.771ZM529.114 264.631L521.469 266.987L521.811 268.1L522.457 269.068L529.114 264.631ZM513.835 227.871L505.99 229.44L506.22 230.591L506.771 231.627L513.835 227.871ZM512.936 223.378L520.781 221.809L512.936 223.378ZM517.584 205.593L511.51 200.386L511.51 200.386L517.584 205.593ZM522.433 199.935L516.777 194.278L516.559 194.495L516.359 194.729L522.433 199.935ZM532.243 190.126L526.586 184.469L526.586 184.469L532.243 190.126ZM535.926 185.81L542.401 190.508L542.401 190.508L535.926 185.81ZM544.086 174.563L537.61 169.865L537.61 169.865L544.086 174.563ZM547.52 168.751L540.281 165.345L540.281 165.345L547.52 168.751ZM556.3 150.093L563.539 153.499L563.681 153.198L563.797 152.886L556.3 150.093ZM568.441 117.504L575.938 120.297L577.732 115.481L574.098 111.847L568.441 117.504ZM552.466 101.529L558.123 95.872V95.872L552.466 101.529ZM536.491 85.5539L542.148 79.897L538.514 76.2631L533.699 78.0572L536.491 85.5539ZM503.902 97.6949L501.11 90.1982L500.797 90.3145L500.496 90.4564L503.902 97.6949ZM485.244 106.475L488.65 113.714L488.65 113.714L485.244 106.475ZM479.432 109.91L474.735 103.434L474.735 103.434L479.432 109.91ZM468.185 118.069L463.488 111.594L463.488 111.594L468.185 118.069ZM463.87 121.753L469.527 127.41L469.527 127.409L463.87 121.753ZM454.38 131.242L459.598 137.306L459.825 137.111L460.037 136.899L454.38 131.242ZM448.409 136.38L453.627 142.444L453.627 142.444L448.409 136.38ZM430.593 141.054L432.162 133.21L430.593 141.054ZM387.013 132.531C399.335 136.33 411.16 141.268 422.363 147.223L429.873 133.095C417.786 126.67 405.026 121.341 391.725 117.241L387.013 132.531ZM393.807 118.23L389.645 115.456L380.77 128.769L384.931 131.543L393.807 118.23ZM389.646 115.456C386.322 113.24 384.201 109.619 383.895 105.636L367.942 106.863C368.625 115.748 373.356 123.826 380.77 128.769L389.646 115.456ZM383.895 105.636L383.323 98.2066L367.371 99.4337L367.942 106.863L383.895 105.636ZM383.347 98.8201V84.9477H367.347V98.8201H383.347ZM383.347 84.9477C383.347 82.6326 383.164 80.321 382.8 78.0347L366.999 80.5485C367.231 82.0035 367.347 83.4745 367.347 84.9477H383.347ZM382.8 78.0347L380.617 64.3121L364.816 66.8259L366.999 80.5485L382.8 78.0347ZM380.617 64.3121C380.184 61.59 379.496 58.9148 378.563 56.3215L363.509 61.7409C364.103 63.3913 364.54 65.0938 364.816 66.8259L380.617 64.3121ZM378.563 56.3215L371.578 36.9191L356.524 42.3387L363.509 61.741L378.563 56.3215ZM371.327 36.3028L356.868 4.67392L342.316 11.3261L356.775 42.955L371.327 36.3028ZM349.592 0H327V16H349.592V0ZM327 0H304.408V16H327V0ZM297.132 4.67392L282.673 36.3028L297.225 42.955L311.684 11.3261L297.132 4.67392ZM282.422 36.9191L275.437 56.3215L290.491 61.741L297.476 42.3387L282.422 36.9191ZM275.437 56.3215C274.503 58.9148 273.816 61.59 273.383 64.3121L289.184 66.8259C289.459 65.0938 289.897 63.3913 290.491 61.7409L275.437 56.3215ZM273.383 64.3121L271.199 78.0347L287.001 80.5485L289.184 66.8259L273.383 64.3121ZM271.199 78.0347C270.836 80.321 270.653 82.6326 270.653 84.9477H286.653C286.653 83.4745 286.769 82.0035 287.001 80.5485L271.199 78.0347ZM270.653 84.9477V98.3683H286.653V84.9477H270.653ZM270.675 97.77L270.086 105.625L286.041 106.822L286.63 98.9666L270.675 97.77ZM270.086 105.625C269.787 109.617 267.665 113.249 264.334 115.47L273.209 128.782C280.64 123.829 285.373 115.727 286.041 106.822L270.086 105.625ZM264.334 115.47L260.193 118.23L269.068 131.543L273.209 128.782L264.334 115.47ZM231.627 147.229C242.833 141.271 254.661 136.331 266.987 132.531L262.274 117.241C248.97 121.342 236.206 126.673 224.115 133.101L231.627 147.229ZM226.302 132.32L221.809 133.219L224.947 148.908L229.44 148.01L226.302 132.32ZM221.809 133.219C217.892 134.002 213.832 132.942 210.799 130.342L200.386 142.49C207.152 148.289 216.208 150.656 224.947 148.908L221.809 133.219ZM210.799 130.342L205.141 125.492L194.729 137.641L200.386 142.49L210.799 130.342ZM205.592 125.91L195.782 116.1L184.469 127.414L194.278 137.223L205.592 125.91ZM195.782 116.1C194.145 114.463 192.382 112.958 190.508 111.598L181.112 124.549C182.305 125.414 183.427 126.372 184.469 127.414L195.782 116.1ZM190.508 111.598L179.261 103.439L169.865 116.39L181.112 124.549L190.508 111.598ZM179.261 103.439C177.03 101.82 174.652 100.415 172.158 99.2414L165.345 113.718C166.932 114.465 168.445 115.36 169.865 116.39L179.261 103.439ZM172.158 99.2414L153.499 90.4609L146.686 104.938L165.345 113.718L172.158 99.2414ZM152.886 90.2028L120.297 78.0618L114.711 93.0551L147.3 105.196L152.886 90.2028ZM111.847 79.9016L95.8719 95.8766L107.186 107.19L123.161 91.2153L111.847 79.9016ZM95.8719 95.8766L79.8969 111.852L91.2106 123.165L107.186 107.19L95.8719 95.8766ZM78.0571 120.301L90.1981 152.89L105.191 147.305L93.0505 114.716L78.0571 120.301ZM90.4563 153.504L99.2367 172.162L113.714 165.35L104.933 146.691L90.4563 153.504ZM99.2367 172.162C100.41 174.656 101.816 177.034 103.434 179.265L116.385 169.87C115.355 168.45 114.461 166.937 113.714 165.35L99.2367 172.162ZM103.434 179.265L111.594 190.512L124.545 181.117L116.385 169.87L103.434 179.265ZM111.594 190.512C112.953 192.386 114.459 194.15 116.096 195.787L127.409 184.473C126.368 183.432 125.41 182.309 124.545 181.117L111.594 190.512ZM116.096 195.787L125.585 205.277L136.899 193.963L127.409 184.473L116.096 195.787ZM125.178 204.838L130.316 210.809L142.444 200.373L137.306 194.402L125.178 204.838ZM130.316 210.809C132.927 213.844 133.995 217.912 133.21 221.838L148.899 224.976C150.65 216.218 148.269 207.143 142.444 200.373L130.316 210.809ZM133.21 221.838L132.314 226.313L148.004 229.451L148.899 224.975L133.21 221.838ZM132.531 266.988C136.329 254.665 141.267 242.84 147.223 231.637L133.095 224.127C126.67 236.214 121.341 248.974 117.241 262.275L132.531 266.988ZM118.23 260.194L115.47 264.334L128.782 273.209L131.542 269.069L118.23 260.194ZM115.47 264.334C113.249 267.665 109.617 269.787 105.625 270.086L106.822 286.041C115.727 285.374 123.829 280.64 128.782 273.209L115.47 264.334ZM105.625 270.086L97.77 270.675L98.9666 286.631L106.822 286.041L105.625 270.086ZM98.3683 270.653H84.9478V286.653H98.3683V270.653ZM84.9478 270.653C82.6326 270.653 80.3211 270.836 78.0347 271.199L80.5485 287.001C82.0035 286.769 83.4745 286.653 84.9478 286.653V270.653ZM78.0346 271.199L64.312 273.383L66.8259 289.184L80.5485 287.001L78.0346 271.199ZM64.312 273.383C61.5901 273.816 58.9148 274.503 56.3214 275.437L61.7411 290.491C63.3912 289.897 65.0937 289.459 66.8259 289.184L64.312 273.383ZM56.3215 275.437L36.9192 282.422L42.3387 297.476L61.741 290.491L56.3215 275.437ZM36.3028 282.673L4.67392 297.132L11.3261 311.684L42.955 297.225L36.3028 282.673ZM0 304.408V327H16V304.408H0ZM0 327V349.592H16V327H0ZM4.67392 356.868L36.3028 371.327L42.955 356.775L11.3261 342.316L4.67392 356.868ZM36.9192 371.578L56.3215 378.563L61.741 363.509L42.3387 356.524L36.9192 371.578ZM56.3214 378.563C58.9148 379.497 61.5901 380.184 64.312 380.617L66.8259 364.816C65.0937 364.541 63.3912 364.103 61.7411 363.509L56.3214 378.563ZM64.312 380.617L78.0346 382.801L80.5485 366.999L66.8259 364.816L64.312 380.617ZM78.0347 382.801C80.3212 383.164 82.6327 383.347 84.9478 383.347V367.347C83.4744 367.347 82.0034 367.231 80.5485 366.999L78.0347 382.801ZM84.9478 383.347H98.8201V367.347H84.9478V383.347ZM98.2065 383.323L105.636 383.895L106.863 367.942L99.4337 367.371L98.2065 383.323ZM105.636 383.895C109.619 384.201 113.24 386.322 115.456 389.646L128.769 380.77C123.826 373.356 115.748 368.626 106.863 367.942L105.636 383.895ZM115.456 389.646L118.23 393.806L131.542 384.931L128.769 380.77L115.456 389.646ZM146.858 421.674C141.066 410.675 136.252 399.083 132.531 387.012L117.241 391.725C121.257 404.754 126.452 417.263 132.702 429.13L146.858 421.674ZM131.935 426.971L133.013 432.359L148.702 429.221L147.625 423.833L131.935 426.971ZM133.013 432.359C133.798 436.284 132.731 440.353 130.12 443.388L142.248 453.823C148.073 447.054 150.454 437.978 148.702 429.221L133.013 432.359ZM130.12 443.388L124.982 449.359L137.11 459.794L142.248 453.823L130.12 443.388ZM125.389 448.92L115.899 458.409L127.213 469.723L136.703 460.233L125.389 448.92ZM115.899 458.409C114.262 460.046 112.757 461.81 111.397 463.684L124.348 473.08C125.213 471.887 126.171 470.765 127.213 469.723L115.899 458.409ZM111.397 463.684L103.238 474.931L116.188 484.327L124.348 473.08L111.397 463.684ZM103.238 474.931C101.619 477.162 100.214 479.54 99.0403 482.034L113.517 488.847C114.264 487.26 115.159 485.746 116.188 484.327L103.238 474.931ZM99.0403 482.034L90.2598 500.693L104.737 507.505L113.517 488.847L99.0403 482.034ZM90.0017 501.306L77.8607 533.895L92.854 539.481L104.995 506.892L90.0017 501.306ZM79.7005 542.345L95.6755 558.32L106.989 547.006L91.0142 531.031L79.7005 542.345ZM95.6755 558.32L111.65 574.295L122.964 562.981L106.989 547.006L95.6755 558.32ZM120.1 576.135L152.689 563.994L147.103 549L114.514 561.141L120.1 576.135ZM153.303 563.736L171.961 554.955L165.149 540.478L146.49 549.259L153.303 563.736ZM171.961 554.955C174.455 553.781 176.833 552.376 179.064 550.758L169.669 537.807C168.249 538.837 166.736 539.731 165.149 540.478L171.961 554.955ZM179.064 550.758L190.311 542.598L180.916 529.647L169.669 537.807L179.064 550.758ZM190.311 542.598C192.185 541.238 193.949 539.733 195.586 538.096L184.272 526.782C183.23 527.824 182.108 528.782 180.916 529.647L190.311 542.598ZM195.586 538.096L205.395 528.287L194.082 516.973L184.272 526.782L195.586 538.096ZM204.945 528.704L210.602 523.855L200.19 511.707L194.532 516.556L204.945 528.704ZM210.602 523.855C213.635 521.255 217.695 520.194 221.612 520.977L224.75 505.288C216.012 503.541 206.956 505.907 200.19 511.707L210.602 523.855ZM221.612 520.977L227.018 522.059L230.156 506.369L224.75 505.288L221.612 520.977ZM266.987 521.469C254.913 517.747 243.317 512.931 232.315 507.136L224.859 521.292C236.728 527.544 249.242 532.742 262.275 536.759L266.987 521.469ZM260.193 535.77L264.334 538.53L273.209 525.218L269.069 522.457L260.193 535.77ZM264.334 538.53C267.665 540.751 269.787 544.383 270.086 548.375L286.041 547.178C285.373 538.273 280.64 530.171 273.209 525.218L264.334 538.53ZM270.086 548.375L270.675 556.23L286.63 555.033L286.041 547.178L270.086 548.375ZM270.653 555.632V569.052H286.653V555.632H270.653ZM270.653 569.052C270.653 571.367 270.836 573.679 271.199 575.965L287.001 573.452C286.769 571.996 286.653 570.526 286.653 569.052H270.653ZM271.199 575.965L273.383 589.688L289.184 587.174L287.001 573.452L271.199 575.965ZM273.383 589.688C273.816 592.41 274.503 595.085 275.437 597.678L290.491 592.259C289.897 590.609 289.459 588.906 289.184 587.174L273.383 589.688ZM275.437 597.679L282.422 617.081L297.476 611.661L290.491 592.259L275.437 597.679ZM282.673 617.697L297.132 649.326L311.684 642.674L297.225 611.045L282.673 617.697ZM304.408 654H327V638H304.408V654ZM327 654H349.592V638H327V654ZM356.868 649.326L371.327 617.697L356.775 611.045L342.316 642.674L356.868 649.326ZM371.578 617.081L378.563 597.679L363.509 592.259L356.524 611.661L371.578 617.081ZM378.563 597.678C379.496 595.085 380.184 592.41 380.617 589.688L364.816 587.174C364.54 588.906 364.103 590.609 363.509 592.259L378.563 597.678ZM380.617 589.688L382.8 575.965L366.999 573.452L364.816 587.174L380.617 589.688ZM382.8 575.965C383.164 573.679 383.347 571.367 383.347 569.052H367.347C367.347 570.526 367.231 571.996 366.999 573.452L382.8 575.965ZM383.347 569.052V555.18H367.347V569.052H383.347ZM383.323 555.793L383.895 548.364L367.942 547.137L367.371 554.566L383.323 555.793ZM383.895 548.364C384.201 544.381 386.322 540.76 389.646 538.544L380.77 525.231C373.356 530.174 368.625 538.252 367.942 547.137L383.895 548.364ZM389.645 538.544L393.806 535.77L384.931 522.457L380.77 525.231L389.645 538.544ZM421.674 507.141C410.675 512.934 399.083 517.748 387.012 521.469L391.725 536.759C404.754 532.743 417.264 527.548 429.13 521.298L421.674 507.141ZM426.971 522.064L432.359 520.987L429.221 505.298L423.833 506.375L426.971 522.064ZM432.359 520.987C436.284 520.202 440.353 521.269 443.387 523.88L453.823 511.752C447.054 505.927 437.978 503.546 429.221 505.298L432.359 520.987ZM443.387 523.88L449.358 529.018L459.794 516.89L453.823 511.752L443.387 523.88ZM448.92 528.611L458.409 538.101L469.723 526.787L460.233 517.297L448.92 528.611ZM458.409 538.101C460.046 539.738 461.81 541.243 463.684 542.602L473.08 529.652C471.887 528.787 470.765 527.829 469.723 526.787L458.409 538.101ZM463.684 542.602L474.931 550.762L484.327 537.811L473.08 529.652L463.684 542.602ZM474.931 550.762C477.162 552.381 479.54 553.786 482.034 554.96L488.847 540.483C487.26 539.736 485.746 538.841 484.327 537.811L474.931 550.762ZM482.034 554.96L500.693 563.74L507.505 549.263L488.847 540.482L482.034 554.96ZM501.306 563.998L533.895 576.139L539.481 561.146L506.892 549.005L501.306 563.998ZM542.345 574.299L558.32 558.324L547.006 547.011L531.031 562.986L542.345 574.299ZM558.32 558.324L574.295 542.349L562.981 531.036L547.006 547.011L558.32 558.324ZM576.135 533.9L563.994 501.311L549 506.896L561.141 539.485L576.135 533.9ZM563.735 500.697L554.955 482.039L540.478 488.851L549.258 507.51L563.735 500.697ZM554.955 482.039C553.781 479.545 552.376 477.167 550.758 474.936L537.807 484.331C538.837 485.751 539.731 487.264 540.478 488.851L554.955 482.039ZM550.758 474.936L542.598 463.689L529.647 473.084L537.807 484.331L550.758 474.936ZM542.598 463.689C541.238 461.815 539.733 460.051 538.096 458.414L526.782 469.728C527.824 470.769 528.782 471.892 529.647 473.084L542.598 463.689ZM538.096 458.414L528.287 448.605L516.973 459.918L526.782 469.728L538.096 458.414ZM528.704 449.055L523.855 443.398L511.706 453.81L516.556 459.468L528.704 449.055ZM523.855 443.398C521.255 440.365 520.194 436.305 520.977 432.388L505.288 429.25C503.54 437.988 505.907 447.044 511.706 453.81L523.855 443.398ZM520.977 432.388L522.058 426.982L506.369 423.844L505.288 429.25L520.977 432.388ZM521.469 387.013C517.747 399.087 512.931 410.683 507.136 421.685L521.292 429.141C527.544 417.272 532.742 404.758 536.759 391.726L521.469 387.013ZM535.77 393.807L538.544 389.646L525.231 380.77L522.457 384.932L535.77 393.807ZM538.544 389.646C540.76 386.322 544.381 384.201 548.364 383.895L547.137 367.942C538.252 368.626 530.174 373.356 525.231 380.77L538.544 389.646ZM548.364 383.895L555.793 383.323L554.566 367.371L547.137 367.942L548.364 383.895ZM555.18 383.347H569.052V367.347H555.18V383.347ZM569.052 383.347C571.367 383.347 573.679 383.164 575.965 382.801L573.452 366.999C571.997 367.231 570.526 367.347 569.052 367.347V383.347ZM575.965 382.801L589.688 380.617L587.174 364.816L573.452 366.999L575.965 382.801ZM589.688 380.617C592.41 380.184 595.085 379.497 597.679 378.563L592.259 363.509C590.609 364.103 588.906 364.541 587.174 364.816L589.688 380.617ZM597.679 378.563L617.081 371.578L611.661 356.524L592.259 363.509L597.679 378.563ZM617.697 371.327L649.326 356.868L642.674 342.316L611.045 356.775L617.697 371.327ZM654 349.592V327H638V349.592H654ZM654 327V304.408H638V327H654ZM649.326 297.132L617.697 282.673L611.045 297.225L642.674 311.684L649.326 297.132ZM617.081 282.422L597.679 275.437L592.259 290.491L611.661 297.476L617.081 282.422ZM597.679 275.437C595.085 274.503 592.41 273.816 589.688 273.383L587.174 289.184C588.906 289.459 590.609 289.897 592.259 290.491L597.679 275.437ZM589.688 273.383L575.965 271.199L573.452 287.001L587.174 289.184L589.688 273.383ZM575.965 271.199C573.679 270.836 571.367 270.653 569.052 270.653V286.653C570.526 286.653 571.997 286.769 573.452 287.001L575.965 271.199ZM569.052 270.653H555.632V286.653H569.052V270.653ZM556.23 270.675L548.375 270.086L547.178 286.041L555.033 286.631L556.23 270.675ZM548.375 270.086C544.383 269.787 540.751 267.665 538.53 264.334L525.218 273.209C530.171 280.64 538.273 285.374 547.178 286.041L548.375 270.086ZM538.53 264.334L535.77 260.193L522.457 269.068L525.218 273.209L538.53 264.334ZM506.771 231.627C512.729 242.833 517.669 254.66 521.469 266.987L536.759 262.274C532.658 248.97 527.327 236.205 520.899 224.115L506.771 231.627ZM521.68 226.302L520.781 221.809L505.092 224.947L505.99 229.44L521.68 226.302ZM520.781 221.809C519.997 217.892 521.058 213.832 523.658 210.799L511.51 200.386C505.711 207.152 503.344 216.209 505.092 224.947L520.781 221.809ZM523.658 210.799L528.508 205.141L516.359 194.729L511.51 200.386L523.658 210.799ZM528.09 205.592L537.9 195.783L526.586 184.469L516.777 194.278L528.09 205.592ZM537.9 195.783C539.537 194.145 541.042 192.382 542.401 190.508L529.451 181.112C528.586 182.305 527.628 183.427 526.586 184.469L537.9 195.783ZM542.401 190.508L550.561 179.261L537.61 169.865L529.451 181.112L542.401 190.508ZM550.561 179.261C552.18 177.03 553.585 174.652 554.759 172.158L540.281 165.345C539.535 166.932 538.64 168.445 537.61 169.865L550.561 179.261ZM554.758 172.158L563.539 153.499L549.062 146.687L540.281 165.345L554.758 172.158ZM563.797 152.886L575.938 120.297L560.945 114.711L548.804 147.3L563.797 152.886ZM574.098 111.847L558.123 95.872L546.81 107.186L562.785 123.161L574.098 111.847ZM558.123 95.872L542.148 79.897L530.835 91.2108L546.81 107.186L558.123 95.872ZM533.699 78.0572L501.11 90.1982L506.695 105.192L539.284 93.0506L533.699 78.0572ZM500.496 90.4564L481.838 99.2368L488.65 113.714L507.309 104.933L500.496 90.4564ZM481.838 99.2368C479.344 100.41 476.966 101.816 474.735 103.434L484.13 116.385C485.55 115.355 487.063 114.461 488.65 113.714L481.838 99.2368ZM474.735 103.434L463.488 111.594L472.883 124.545L484.13 116.385L474.735 103.434ZM463.488 111.594C461.614 112.953 459.85 114.459 458.213 116.096L469.527 127.409C470.568 126.368 471.691 125.41 472.883 124.545L463.488 111.594ZM458.213 116.096L448.723 125.586L460.037 136.899L469.527 127.41L458.213 116.096ZM449.162 125.178L443.191 130.316L453.627 142.444L459.598 137.306L449.162 125.178ZM443.191 130.316C440.156 132.927 436.088 133.995 432.162 133.21L429.024 148.899C437.782 150.65 446.857 148.269 453.627 142.444L443.191 130.316ZM432.162 133.21L427.687 132.315L424.549 148.004L429.024 148.899L432.162 133.21Z" fill="#259FFD" mask="url(#path-1-outside-1_22_166)"/>
</svg>
