<svg width="227" height="65" viewBox="0 0 227 65" fill="none" xmlns="http://www.w3.org/2000/svg">
<rect y="1" width="227" height="64" fill="#259FFD"/>
<mask id="mask0_29_132" style="mask-type:alpha" maskUnits="userSpaceOnUse" x="0" y="0" width="227" height="65">
<rect y="0.724854" width="227" height="64" rx="32" fill="#0372E4"/>
</mask>
<g mask="url(#mask0_29_132)">
<mask id="path-3-outside-1_29_132" maskUnits="userSpaceOnUse" x="122.199" y="-17.5126" width="101.202" height="101.202" fill="black">
<rect fill="white" x="122.199" y="-17.5126" width="101.202" height="101.202"/>
<path fill-rule="evenodd" clip-rule="evenodd" d="M149.08 30.464C148.914 31.9366 148.885 33.4332 149.001 34.9351C148.733 36.0204 147.997 36.9334 146.988 37.4244L146.848 37.4926L146.058 37.8047C145.416 38.0582 144.796 38.3618 144.202 38.7129C143.495 39.1309 142.829 39.6143 142.213 40.1569L141.106 41.1308L138.387 43.9586L139.323 46.3289L140.26 48.6991L144.177 48.9052L145.651 48.8601C146.471 48.8349 147.288 48.7327 148.09 48.5547C148.763 48.4052 149.424 48.2028 150.065 47.9494L150.808 47.656L151.006 47.5946C152.077 47.2617 153.238 47.424 154.175 48.0329C155.117 49.2088 156.161 50.2818 157.289 51.2439C157.848 52.194 157.966 53.3443 157.604 54.3915L157.553 54.5389L157.215 55.3183C156.941 55.9512 156.717 56.6047 156.545 57.2728C156.341 58.0682 156.212 58.881 156.16 59.7006L156.066 61.1717L156.143 65.0939L158.481 66.1079L160.819 67.1218L163.735 64.4974L164.745 63.4237C165.307 62.8255 165.812 62.1757 166.253 61.483C166.624 60.9011 166.948 60.2909 167.222 59.6581L167.54 58.9254L167.636 58.7424C168.152 57.762 169.071 57.0606 170.147 56.8198C171.619 56.9853 173.116 57.0142 174.618 56.8984C175.703 57.1664 176.615 57.9035 177.104 58.913L177.194 59.0991L177.488 59.8418C177.741 60.4834 178.045 61.104 178.396 61.6977C178.814 62.4046 179.297 63.0707 179.84 63.6871L180.814 64.7936L183.641 67.5127L186.012 66.5764L188.382 65.6401L188.588 61.7226L188.543 60.2492C188.518 59.4284 188.416 58.6117 188.238 57.81C188.088 57.1366 187.886 56.4761 187.632 55.8345L187.32 55.0443L187.274 54.8953C186.943 53.8234 187.107 52.6619 187.716 51.7245C188.87 50.8 189.925 49.7773 190.873 48.6739C191.838 48.0719 193.025 47.9379 194.102 48.3119L194.297 48.3797L195.03 48.6975C195.663 48.9719 196.316 49.196 196.984 49.3676C197.78 49.5719 198.592 49.701 199.412 49.7532L200.883 49.847L204.805 49.7701L205.819 47.4321L206.833 45.094L204.209 42.1781L203.135 41.1682C202.537 40.6056 201.887 40.1004 201.194 39.6594C200.613 39.2889 200.002 38.9649 199.369 38.6905L198.59 38.3525L198.452 38.2796C197.444 37.7473 196.732 36.7888 196.512 35.6728C196.669 34.2259 196.695 32.7563 196.581 31.2815C196.849 30.1966 197.587 29.2844 198.596 28.7955L198.782 28.7054L199.525 28.412C200.166 28.1585 200.787 27.8549 201.381 27.5038C202.087 27.0858 202.754 26.6024 203.37 26.0598L204.476 25.0859L207.196 22.2581L206.259 19.8878L205.323 17.5176L201.405 17.3115L199.932 17.3566C199.111 17.3818 198.295 17.484 197.493 17.662C196.819 17.8115 196.159 18.0139 195.517 18.2673L194.727 18.5794L194.578 18.6254C193.506 18.9563 192.345 18.7929 191.408 18.1838C190.483 17.0297 189.46 15.9746 188.356 15.0263C187.755 14.0611 187.621 12.8744 187.995 11.798L188.063 11.6027L188.38 10.87C188.655 10.2371 188.879 9.58362 189.05 8.91551C189.255 8.12012 189.384 7.30728 189.436 6.48772L189.53 5.01667L189.453 1.09442L187.115 0.0804671L184.777 -0.93349L181.861 1.69089L180.851 2.76464C180.288 3.36285 179.783 4.01261 179.342 4.70534C178.972 5.2872 178.648 5.8974 178.373 6.53025L178.035 7.30968L177.962 7.44757C177.43 8.45527 176.472 9.16761 175.356 9.38802C173.909 9.23033 172.439 9.20457 170.964 9.31834C169.879 9.05025 168.966 8.31406 168.475 7.30552L168.407 7.1653L168.095 6.37515C167.841 5.7336 167.538 5.11304 167.187 4.51927C166.769 3.81237 166.285 3.14631 165.743 2.52987L164.769 1.4234L161.941 -1.29572L159.571 -0.359427L157.2 0.576868L156.994 4.49445L157.04 5.96779C157.065 6.78862 157.167 7.60527 157.345 8.40698C157.494 9.08039 157.697 9.74094 157.95 10.3825L158.244 11.1252L158.305 11.3227C158.638 12.3936 158.476 13.5551 157.867 14.4922C156.691 15.4344 155.618 16.4786 154.655 17.6063C153.705 18.1656 152.555 18.2829 151.508 17.9214L151.361 17.8705L150.581 17.5325C149.949 17.258 149.295 17.034 148.627 16.8624C147.832 16.6581 147.019 16.5289 146.199 16.4767L144.728 16.383L140.806 16.4598L139.792 18.7979L138.778 21.136L141.402 24.0519L142.476 25.0618C143.074 25.6244 143.724 26.1295 144.417 26.5706C144.999 26.9411 145.609 27.265 146.242 27.5395L146.974 27.8572L147.157 27.9534C148.138 28.4689 148.839 29.3882 149.08 30.464Z"/>
</mask>
<path fill-rule="evenodd" clip-rule="evenodd" d="M149.08 30.464C148.914 31.9366 148.885 33.4332 149.001 34.9351C148.733 36.0204 147.997 36.9334 146.988 37.4244L146.848 37.4926L146.058 37.8047C145.416 38.0582 144.796 38.3618 144.202 38.7129C143.495 39.1309 142.829 39.6143 142.213 40.1569L141.106 41.1308L138.387 43.9586L139.323 46.3289L140.26 48.6991L144.177 48.9052L145.651 48.8601C146.471 48.8349 147.288 48.7327 148.09 48.5547C148.763 48.4052 149.424 48.2028 150.065 47.9494L150.808 47.656L151.006 47.5946C152.077 47.2617 153.238 47.424 154.175 48.0329C155.117 49.2088 156.161 50.2818 157.289 51.2439C157.848 52.194 157.966 53.3443 157.604 54.3915L157.553 54.5389L157.215 55.3183C156.941 55.9512 156.717 56.6047 156.545 57.2728C156.341 58.0682 156.212 58.881 156.16 59.7006L156.066 61.1717L156.143 65.0939L158.481 66.1079L160.819 67.1218L163.735 64.4974L164.745 63.4237C165.307 62.8255 165.812 62.1757 166.253 61.483C166.624 60.9011 166.948 60.2909 167.222 59.6581L167.54 58.9254L167.636 58.7424C168.152 57.762 169.071 57.0606 170.147 56.8198C171.619 56.9853 173.116 57.0142 174.618 56.8984C175.703 57.1664 176.615 57.9035 177.104 58.913L177.194 59.0991L177.488 59.8418C177.741 60.4834 178.045 61.104 178.396 61.6977C178.814 62.4046 179.297 63.0707 179.84 63.6871L180.814 64.7936L183.641 67.5127L186.012 66.5764L188.382 65.6401L188.588 61.7226L188.543 60.2492C188.518 59.4284 188.416 58.6117 188.238 57.81C188.088 57.1366 187.886 56.4761 187.632 55.8345L187.32 55.0443L187.274 54.8953C186.943 53.8234 187.107 52.6619 187.716 51.7245C188.87 50.8 189.925 49.7773 190.873 48.6739C191.838 48.0719 193.025 47.9379 194.102 48.3119L194.297 48.3797L195.03 48.6975C195.663 48.9719 196.316 49.196 196.984 49.3676C197.78 49.5719 198.592 49.701 199.412 49.7532L200.883 49.847L204.805 49.7701L205.819 47.4321L206.833 45.094L204.209 42.1781L203.135 41.1682C202.537 40.6056 201.887 40.1004 201.194 39.6594C200.613 39.2889 200.002 38.9649 199.369 38.6905L198.59 38.3525L198.452 38.2796C197.444 37.7473 196.732 36.7888 196.512 35.6728C196.669 34.2259 196.695 32.7563 196.581 31.2815C196.849 30.1966 197.587 29.2844 198.596 28.7955L198.782 28.7054L199.525 28.412C200.166 28.1585 200.787 27.8549 201.381 27.5038C202.087 27.0858 202.754 26.6024 203.37 26.0598L204.476 25.0859L207.196 22.2581L206.259 19.8878L205.323 17.5176L201.405 17.3115L199.932 17.3566C199.111 17.3818 198.295 17.484 197.493 17.662C196.819 17.8115 196.159 18.0139 195.517 18.2673L194.727 18.5794L194.578 18.6254C193.506 18.9563 192.345 18.7929 191.408 18.1838C190.483 17.0297 189.46 15.9746 188.356 15.0263C187.755 14.0611 187.621 12.8744 187.995 11.798L188.063 11.6027L188.38 10.87C188.655 10.2371 188.879 9.58362 189.05 8.91551C189.255 8.12012 189.384 7.30728 189.436 6.48772L189.53 5.01667L189.453 1.09442L187.115 0.0804671L184.777 -0.93349L181.861 1.69089L180.851 2.76464C180.288 3.36285 179.783 4.01261 179.342 4.70534C178.972 5.2872 178.648 5.8974 178.373 6.53025L178.035 7.30968L177.962 7.44757C177.43 8.45527 176.472 9.16761 175.356 9.38802C173.909 9.23033 172.439 9.20457 170.964 9.31834C169.879 9.05025 168.966 8.31406 168.475 7.30552L168.407 7.1653L168.095 6.37515C167.841 5.7336 167.538 5.11304 167.187 4.51927C166.769 3.81237 166.285 3.14631 165.743 2.52987L164.769 1.4234L161.941 -1.29572L159.571 -0.359427L157.2 0.576868L156.994 4.49445L157.04 5.96779C157.065 6.78862 157.167 7.60527 157.345 8.40698C157.494 9.08039 157.697 9.74094 157.95 10.3825L158.244 11.1252L158.305 11.3227C158.638 12.3936 158.476 13.5551 157.867 14.4922C156.691 15.4344 155.618 16.4786 154.655 17.6063C153.705 18.1656 152.555 18.2829 151.508 17.9214L151.361 17.8705L150.581 17.5325C149.949 17.258 149.295 17.034 148.627 16.8624C147.832 16.6581 147.019 16.5289 146.199 16.4767L144.728 16.383L140.806 16.4598L139.792 18.7979L138.778 21.136L141.402 24.0519L142.476 25.0618C143.074 25.6244 143.724 26.1295 144.417 26.5706C144.999 26.9411 145.609 27.265 146.242 27.5395L146.974 27.8572L147.157 27.9534C148.138 28.4689 148.839 29.3882 149.08 30.464Z" fill="#FDC637" fill-opacity="0.18"/>
<path d="M149.001 34.9351L151.914 35.6543L152.03 35.1857L151.992 34.7044L149.001 34.9351ZM149.08 30.464L152.061 30.799L152.117 30.2993L152.007 29.8086L149.08 30.464ZM146.988 37.4244L145.675 34.7269L145.675 34.7269L146.988 37.4244ZM146.848 37.4926L147.95 40.2828L148.057 40.2405L148.161 40.19L146.848 37.4926ZM146.058 37.8047L144.956 35.0145L146.058 37.8047ZM144.202 38.7129L142.675 36.1305L142.675 36.1305L144.202 38.7129ZM142.213 40.1569L144.195 42.4089L144.195 42.4088L142.213 40.1569ZM141.106 41.1308L139.124 38.8789L139.03 38.9614L138.944 39.0515L141.106 41.1308ZM138.387 43.9586L136.225 41.8792L134.889 43.2684L135.597 45.0608L138.387 43.9586ZM139.323 46.3289L142.114 45.2267L139.323 46.3289ZM140.26 48.6991L137.47 49.8013L138.178 51.5937L140.102 51.695L140.26 48.6991ZM144.177 48.9052L144.02 51.9011L144.144 51.9077L144.269 51.9038L144.177 48.9052ZM145.651 48.8601L145.743 51.8587L145.743 51.8587L145.651 48.8601ZM148.09 48.5547L148.74 51.4834L148.74 51.4834L148.09 48.5547ZM150.808 47.656L149.918 44.7912L149.81 44.8245L149.706 44.8658L150.808 47.656ZM151.006 47.5946L151.896 50.4594L151.896 50.4594L151.006 47.5946ZM154.175 48.0329L156.516 46.1572L156.215 45.7804L155.81 45.5173L154.175 48.0329ZM157.289 51.2439L159.874 49.7216L159.619 49.2883L159.236 48.9619L157.289 51.2439ZM157.604 54.3915L160.44 55.3705L160.44 55.3705L157.604 54.3915ZM157.553 54.5389L160.306 55.7325L160.351 55.6268L160.389 55.5179L157.553 54.5389ZM157.215 55.3183L159.968 56.5119L159.968 56.5119L157.215 55.3183ZM156.545 57.2728L153.639 56.5265L153.639 56.5265L156.545 57.2728ZM156.16 59.7006L153.166 59.5098L153.166 59.5098L156.16 59.7006ZM156.066 61.1717L153.072 60.9809L153.064 61.1055L153.066 61.2304L156.066 61.1717ZM156.143 65.0939L153.143 65.1527L153.181 67.0795L154.949 67.8462L156.143 65.0939ZM158.481 66.1079L157.287 68.8602L157.287 68.8602L158.481 66.1079ZM160.819 67.1218L159.625 69.8741L161.393 70.6409L162.826 69.3517L160.819 67.1218ZM163.735 64.4974L165.742 66.7273L165.834 66.6437L165.92 66.5528L163.735 64.4974ZM164.745 63.4237L166.93 65.479L166.93 65.479L164.745 63.4237ZM166.253 61.483L163.723 59.8718L163.723 59.8718L166.253 61.483ZM167.222 59.6581L169.975 60.8517L169.975 60.8517L167.222 59.6581ZM167.54 58.9254L164.885 57.5293L164.832 57.6287L164.788 57.7318L167.54 58.9254ZM167.636 58.7424L164.981 57.3463L164.981 57.3463L167.636 58.7424ZM170.147 56.8198L170.482 53.8386L169.982 53.7825L169.492 53.8923L170.147 56.8198ZM174.618 56.8984L175.337 53.9859L174.868 53.8702L174.387 53.9073L174.618 56.8984ZM177.104 58.913L174.404 60.2208L174.404 60.2208L177.104 58.913ZM177.194 59.0991L179.984 57.9969L179.943 57.8924L179.894 57.7913L177.194 59.0991ZM178.396 61.6977L175.813 63.2246L175.813 63.2246L178.396 61.6977ZM179.84 63.6871L177.588 65.6692L177.588 65.6693L179.84 63.6871ZM180.814 64.7936L178.562 66.7757L178.644 66.8695L178.734 66.9561L180.814 64.7936ZM183.641 67.5127L181.562 69.6752L182.951 71.0109L184.744 70.3029L183.641 67.5127ZM188.382 65.6401L189.484 68.4303L191.277 67.7223L191.378 65.7978L188.382 65.6401ZM188.588 61.7226L191.584 61.8802L191.591 61.7555L191.587 61.6306L188.588 61.7226ZM188.543 60.2492L185.544 60.3411L185.544 60.3411L188.543 60.2492ZM188.238 57.81L185.309 58.4601L185.309 58.4601L188.238 57.81ZM187.32 55.0443L184.454 55.9293L184.488 56.0394L184.53 56.1465L187.32 55.0443ZM187.274 54.8953L184.408 55.7803L184.408 55.7803L187.274 54.8953ZM187.716 51.7245L185.84 49.3833L185.463 49.685L185.2 50.0897L187.716 51.7245ZM190.873 48.6739L189.285 46.1284L188.896 46.3709L188.598 46.7186L190.873 48.6739ZM194.102 48.3119L193.117 51.1458L193.117 51.1458L194.102 48.3119ZM194.297 48.3797L195.491 45.6274L195.388 45.5827L195.282 45.5458L194.297 48.3797ZM195.03 48.6975L196.223 45.9451L196.223 45.9451L195.03 48.6975ZM196.984 49.3676L196.238 52.2733L196.238 52.2733L196.984 49.3676ZM199.412 49.7532L199.221 52.7472L199.221 52.7472L199.412 49.7532ZM200.883 49.847L200.692 52.8409L200.817 52.8489L200.942 52.8464L200.883 49.847ZM204.805 49.7701L204.864 52.7696L206.791 52.7318L207.558 50.9638L204.805 49.7701ZM205.819 47.4321L203.067 46.2385L203.067 46.2385L205.819 47.4321ZM206.833 45.094L209.586 46.2876L210.352 44.5195L209.063 43.0871L206.833 45.094ZM204.209 42.1781L206.439 40.1712L206.355 40.0783L206.264 39.9927L204.209 42.1781ZM203.135 41.1682L205.19 38.9829L205.19 38.9829L203.135 41.1682ZM201.194 39.6594L199.583 42.19L199.583 42.19L201.194 39.6594ZM199.369 38.6905L198.176 41.4428L198.176 41.4428L199.369 38.6905ZM198.59 38.3525L197.189 41.0052L197.291 41.059L197.396 41.1048L198.59 38.3525ZM198.452 38.2796L197.051 40.9323L197.051 40.9323L198.452 38.2796ZM196.512 35.6728L193.529 35.3478L193.48 35.8039L193.569 36.2539L196.512 35.6728ZM196.581 31.2815L193.669 30.5621L193.553 31.0308L193.59 31.5122L196.581 31.2815ZM198.596 28.7955L199.904 31.4955L199.904 31.4954L198.596 28.7955ZM198.782 28.7054L197.68 25.9152L197.575 25.9564L197.474 26.0054L198.782 28.7054ZM201.381 27.5038L202.907 30.0862L202.907 30.0862L201.381 27.5038ZM203.37 26.0598L205.352 28.3117L205.352 28.3117L203.37 26.0598ZM204.476 25.0859L206.459 27.3378L206.552 27.2553L206.639 27.1652L204.476 25.0859ZM207.196 22.2581L209.358 24.3375L210.694 22.9483L209.986 21.1559L207.196 22.2581ZM206.259 19.8878L209.049 18.7857L206.259 19.8878ZM205.323 17.5176L208.113 16.4154L207.405 14.623L205.481 14.5217L205.323 17.5176ZM201.405 17.3115L201.563 14.3156L201.438 14.309L201.313 14.3129L201.405 17.3115ZM199.932 17.3566L199.84 14.358L199.84 14.358L199.932 17.3566ZM197.493 17.662L196.843 14.7333L196.843 14.7333L197.493 17.662ZM194.727 18.5794L195.612 21.4459L195.722 21.412L195.829 21.3696L194.727 18.5794ZM194.578 18.6254L193.693 15.7589L193.693 15.7589L194.578 18.6254ZM191.408 18.1838L189.066 20.0596L189.368 20.4363L189.773 20.6993L191.408 18.1838ZM188.356 15.0263L185.811 16.6135L186.053 17.0027L186.401 17.3016L188.356 15.0263ZM187.995 11.798L185.161 10.8136L185.161 10.8136L187.995 11.798ZM188.063 11.6027L185.31 10.4091L185.265 10.5121L185.229 10.6182L188.063 11.6027ZM188.38 10.87L185.628 9.67639L188.38 10.87ZM189.05 8.91551L191.956 9.66187L191.956 9.66187L189.05 8.91551ZM189.436 6.48772L192.43 6.67851L192.43 6.6785L189.436 6.48772ZM189.53 5.01667L192.524 5.20745L192.532 5.08279L192.529 4.95791L189.53 5.01667ZM189.453 1.09442L192.452 1.03567L192.415 -0.89114L190.647 -1.6579L189.453 1.09442ZM187.115 0.0804671L188.308 -2.67186L187.115 0.0804671ZM184.777 -0.93349L185.97 -3.68582L184.202 -4.45258L182.77 -3.16335L184.777 -0.93349ZM181.861 1.69089L179.854 -0.538973L179.761 -0.455414L179.676 -0.364426L181.861 1.69089ZM180.851 2.76464L183.036 4.81996L183.036 4.81995L180.851 2.76464ZM179.342 4.70534L176.812 3.09412L176.812 3.09413L179.342 4.70534ZM178.373 6.53025L175.621 5.33665L175.621 5.33666L178.373 6.53025ZM178.035 7.30968L180.688 8.7109L180.742 8.609L180.788 8.50328L178.035 7.30968ZM177.962 7.44757L175.31 6.04636L175.31 6.04639L177.962 7.44757ZM175.356 9.38802L175.031 12.3704L175.487 12.4201L175.937 12.3312L175.356 9.38802ZM170.964 9.31834L170.244 12.2308L170.713 12.3466L171.195 12.3095L170.964 9.31834ZM168.475 7.30552L165.778 8.61843L165.778 8.61845L168.475 7.30552ZM168.407 7.1653L165.617 8.26748L165.659 8.37463L165.71 8.47821L168.407 7.1653ZM167.187 4.51927L164.604 6.04614L164.604 6.04615L167.187 4.51927ZM165.743 2.52987L163.491 4.51199L163.491 4.51199L165.743 2.52987ZM164.769 1.4234L167.021 -0.558726L166.938 -0.652485L166.848 -0.73906L164.769 1.4234ZM161.941 -1.29572L164.02 -3.45818L162.631 -4.79395L160.839 -4.08592L161.941 -1.29572ZM157.2 0.576868L156.098 -2.21333L154.306 -1.50529L154.205 0.419225L157.2 0.576868ZM156.994 4.49445L153.998 4.33681L153.992 4.46154L153.996 4.58638L156.994 4.49445ZM157.04 5.96779L154.041 6.05972L154.041 6.05973L157.04 5.96779ZM157.345 8.40698L154.416 9.05709L154.416 9.05709L157.345 8.40698ZM158.244 11.1252L161.108 10.2348L161.075 10.1276L161.034 10.0231L158.244 11.1252ZM158.305 11.3227L155.44 12.2131L155.44 12.2131L158.305 11.3227ZM157.867 14.4922L159.743 16.8335L160.119 16.5316L160.382 16.1267L157.867 14.4922ZM154.655 17.6063L156.177 20.1915L156.611 19.9363L156.937 19.5536L154.655 17.6063ZM151.508 17.9214L150.529 20.7571L150.529 20.7572L151.508 17.9214ZM151.361 17.8705L150.167 20.6228L150.273 20.6687L150.382 20.7063L151.361 17.8705ZM150.581 17.5325L151.775 14.7802L151.775 14.7802L150.581 17.5325ZM148.627 16.8624L149.373 13.9567L149.373 13.9567L148.627 16.8624ZM146.199 16.4767L146.39 13.4828L146.39 13.4828L146.199 16.4767ZM144.728 16.383L144.919 13.389L144.794 13.3811L144.669 13.3836L144.728 16.383ZM140.806 16.4598L140.747 13.4604L138.82 13.4981L138.054 15.2662L140.806 16.4598ZM139.792 18.7979L137.04 17.6043L137.04 17.6043L139.792 18.7979ZM138.778 21.136L136.026 19.9424L135.259 21.7104L136.548 23.1429L138.778 21.136ZM141.402 24.0519L139.172 26.0588L139.256 26.1516L139.347 26.2372L141.402 24.0519ZM142.476 25.0618L140.421 27.2471L140.421 27.2471L142.476 25.0618ZM144.417 26.5706L142.806 29.1012L142.806 29.1012L144.417 26.5706ZM146.242 27.5395L147.435 24.7872L147.435 24.7871L146.242 27.5395ZM146.974 27.8572L148.37 25.2019L148.271 25.1496L148.168 25.1049L146.974 27.8572ZM147.157 27.9534L148.553 25.2981L148.553 25.2981L147.157 27.9534ZM151.992 34.7044C151.891 33.393 151.916 32.0859 152.061 30.799L146.099 30.1289C145.912 31.7873 145.88 33.4733 146.01 35.1657L151.992 34.7044ZM146.089 34.2159C146.034 34.4386 145.883 34.6261 145.675 34.7269L148.301 40.1218C150.112 39.2407 151.433 37.6022 151.914 35.6543L146.089 34.2159ZM145.675 34.7269L145.535 34.7952L148.161 40.19L148.301 40.1218L145.675 34.7269ZM145.746 34.7024L144.956 35.0145L147.16 40.5949L147.95 40.2828L145.746 34.7024ZM144.956 35.0145C144.167 35.326 143.405 35.6991 142.675 36.1305L145.729 41.2953C146.187 41.0245 146.665 40.7904 147.16 40.5949L144.956 35.0145ZM142.675 36.1305C141.807 36.6441 140.988 37.2382 140.231 37.905L144.195 42.4088C144.67 41.9904 145.184 41.6176 145.729 41.2953L142.675 36.1305ZM140.231 37.905L139.124 38.8789L143.088 43.3828L144.195 42.4089L140.231 37.905ZM138.944 39.0515L136.225 41.8792L140.55 46.038L143.269 43.2102L138.944 39.0515ZM135.597 45.0608L136.533 47.431L142.114 45.2267L141.177 42.8564L135.597 45.0608ZM136.533 47.431L137.47 49.8013L143.05 47.5969L142.114 45.2267L136.533 47.431ZM140.102 51.695L144.02 51.9011L144.335 45.9094L140.417 45.7032L140.102 51.695ZM144.269 51.9038L145.743 51.8587L145.559 45.8615L144.085 45.9067L144.269 51.9038ZM145.743 51.8587C146.751 51.8277 147.755 51.7021 148.74 51.4834L147.44 45.626C146.821 45.7632 146.192 45.8421 145.559 45.8615L145.743 51.8587ZM148.74 51.4834C149.567 51.2997 150.379 51.051 151.168 50.7396L148.963 45.1592C148.468 45.3546 147.959 45.5107 147.44 45.626L148.74 51.4834ZM151.168 50.7396L151.91 50.4462L149.706 44.8658L148.963 45.1592L151.168 50.7396ZM151.698 50.5208L151.896 50.4594L150.115 44.7298L149.918 44.7912L151.698 50.5208ZM151.896 50.4594C152.114 50.3917 152.35 50.4247 152.541 50.5485L155.81 45.5173C154.126 44.4233 152.039 44.1318 150.115 44.7298L151.896 50.4594ZM159.236 48.9619C158.251 48.1211 157.339 47.1839 156.516 46.1572L151.834 49.9087C152.895 51.2337 154.072 52.4425 155.341 53.526L159.236 48.9619ZM154.704 52.7663C154.819 52.9612 154.843 53.1975 154.768 53.4125L160.44 55.3705C161.089 53.4912 160.878 51.4268 159.874 49.7216L154.704 52.7663ZM154.768 53.4125L154.718 53.5599L160.389 55.5179L160.44 55.3705L154.768 53.4125ZM154.801 53.3453L154.463 54.1247L159.968 56.5119L160.306 55.7325L154.801 53.3453ZM154.463 54.1247C154.126 54.9024 153.85 55.7055 153.639 56.5265L159.451 58.0192C159.583 57.5039 159.756 57 159.968 56.5119L154.463 54.1247ZM153.639 56.5265C153.388 57.5039 153.23 58.5027 153.166 59.5098L159.153 59.8914C159.194 59.2594 159.293 58.6325 159.451 58.0192L153.639 56.5265ZM153.166 59.5098L153.072 60.9809L159.06 61.3624L159.153 59.8914L153.166 59.5098ZM153.066 61.2304L153.143 65.1527L159.142 65.0351L159.065 61.1129L153.066 61.2304ZM154.949 67.8462L157.287 68.8602L159.674 63.3555L157.336 62.3416L154.949 67.8462ZM157.287 68.8602L159.625 69.8741L162.012 64.3695L159.674 63.3555L157.287 68.8602ZM162.826 69.3517L165.742 66.7273L161.728 62.2676L158.812 64.892L162.826 69.3517ZM165.92 66.5528L166.93 65.479L162.559 61.3684L161.549 62.4421L165.92 66.5528ZM166.93 65.479C167.621 64.7439 168.242 63.9455 168.784 63.0942L163.723 59.8718C163.383 60.406 162.993 60.9071 162.559 61.3684L166.93 65.479ZM168.784 63.0942C169.239 62.3792 169.637 61.6293 169.975 60.8517L164.47 58.4645C164.258 58.9525 164.008 59.4231 163.723 59.8718L168.784 63.0942ZM169.975 60.8517L170.292 60.119L164.788 57.7318L164.47 58.4645L169.975 60.8517ZM170.195 60.3215L170.292 60.1385L164.981 57.3463L164.885 57.5293L170.195 60.3215ZM170.292 60.1385C170.396 59.9391 170.583 59.7964 170.802 59.7474L169.492 53.8923C167.559 54.3249 165.907 55.5849 164.981 57.3463L170.292 60.1385ZM174.387 53.9073C173.076 54.0084 171.769 53.9832 170.482 53.8386L169.812 59.8011C171.47 59.9875 173.156 60.02 174.848 59.8896L174.387 53.9073ZM173.898 59.811C174.119 59.8654 174.305 60.0155 174.404 60.2208L179.804 57.6052C178.926 55.7916 177.286 54.4673 175.337 53.9859L173.898 59.811ZM174.404 60.2208L174.494 60.4069L179.894 57.7913L179.804 57.6052L174.404 60.2208ZM174.404 60.2013L174.697 60.944L180.278 58.7397L179.984 57.9969L174.404 60.2013ZM174.697 60.944C175.009 61.7324 175.382 62.495 175.813 63.2246L180.978 60.1708C180.707 59.713 180.473 59.2344 180.278 58.7397L174.697 60.944ZM175.813 63.2246C176.327 64.0933 176.921 64.9117 177.588 65.6692L182.092 61.705C181.673 61.2296 181.3 60.716 180.978 60.1708L175.813 63.2246ZM177.588 65.6693L178.562 66.7757L183.066 62.8115L182.092 61.705L177.588 65.6693ZM178.734 66.9561L181.562 69.6752L185.721 65.3503L182.893 62.6311L178.734 66.9561ZM184.744 70.3029L187.114 69.3666L184.91 63.7862L182.539 64.7225L184.744 70.3029ZM187.114 69.3666L189.484 68.4303L187.28 62.8499L184.91 63.7862L187.114 69.3666ZM191.378 65.7978L191.584 61.8802L185.592 61.5649L185.386 65.4825L191.378 65.7978ZM191.587 61.6306L191.542 60.1573L185.544 60.3411L185.59 61.8145L191.587 61.6306ZM191.542 60.1573C191.511 59.1486 191.385 58.1451 191.166 57.1599L185.309 58.4601C185.446 59.0784 185.525 59.7082 185.544 60.3411L191.542 60.1573ZM191.166 57.1599C190.983 56.3324 190.734 55.5207 190.422 54.7323L184.842 56.9367C185.038 57.4314 185.194 57.9408 185.309 58.4601L191.166 57.1599ZM190.422 54.7323L190.11 53.9422L184.53 56.1465L184.842 56.9367L190.422 54.7323ZM190.187 54.1594L190.141 54.0104L184.408 55.7803L184.454 55.9293L190.187 54.1594ZM190.141 54.0104C190.073 53.7903 190.106 53.5517 190.231 53.3594L185.2 50.0897C184.107 51.7721 183.814 53.8565 184.408 55.7803L190.141 54.0104ZM188.598 46.7186C187.769 47.6828 186.848 48.576 185.84 49.3833L189.592 54.0658C190.892 53.024 192.08 51.8718 193.148 50.6291L188.598 46.7186ZM192.461 51.2193C192.657 51.0969 192.898 51.0697 193.117 51.1458L195.086 45.478C193.152 44.8061 191.02 45.0468 189.285 46.1284L192.461 51.2193ZM193.117 51.1458L193.313 51.2136L195.282 45.5458L195.086 45.478L193.117 51.1458ZM193.103 51.1321L193.836 51.4498L196.223 45.9451L195.491 45.6274L193.103 51.1321ZM193.836 51.4498C194.614 51.787 195.417 52.0624 196.238 52.2733L197.731 46.4619C197.215 46.3296 196.711 46.1568 196.223 45.9451L193.836 51.4498ZM196.238 52.2733C197.215 52.5243 198.214 52.683 199.221 52.7472L199.603 46.7593C198.971 46.719 198.344 46.6195 197.731 46.4619L196.238 52.2733ZM199.221 52.7472L200.692 52.8409L201.074 46.8531L199.603 46.7593L199.221 52.7472ZM200.942 52.8464L204.864 52.7696L204.747 46.7707L200.824 46.8476L200.942 52.8464ZM207.558 50.9638L208.572 48.6257L203.067 46.2385L202.053 48.5765L207.558 50.9638ZM208.572 48.6257L209.586 46.2876L204.081 43.9004L203.067 46.2385L208.572 48.6257ZM209.063 43.0871L206.439 40.1712L201.979 44.185L204.603 47.1009L209.063 43.0871ZM206.264 39.9927L205.19 38.9829L201.08 43.3535L202.154 44.3634L206.264 39.9927ZM205.19 38.9829C204.455 38.2915 203.657 37.6707 202.806 37.1288L199.583 42.19C200.117 42.5301 200.618 42.9197 201.08 43.3535L205.19 38.9829ZM202.806 37.1288C202.091 36.6735 201.341 36.2754 200.563 35.9382L198.176 41.4428C198.664 41.6545 199.134 41.9043 199.583 42.19L202.806 37.1288ZM200.563 35.9382L199.784 35.6001L197.396 41.1048L198.176 41.4428L200.563 35.9382ZM199.991 35.6998L199.853 35.6269L197.051 40.9323L197.189 41.0052L199.991 35.6998ZM199.853 35.627C199.646 35.5176 199.5 35.3208 199.455 35.0917L193.569 36.2539C193.964 38.2569 195.242 39.977 197.051 40.9323L199.853 35.627ZM193.59 31.5122C193.69 32.7999 193.667 34.0835 193.529 35.3478L199.494 35.9978C199.672 34.3684 199.701 32.7127 199.573 31.0509L193.59 31.5122ZM199.494 32.001C199.548 31.7805 199.698 31.5949 199.904 31.4955L197.288 26.0956C195.475 26.9739 194.151 28.6127 193.669 30.5621L199.494 32.001ZM199.904 31.4954L200.09 31.4053L197.474 26.0054L197.288 26.0956L199.904 31.4954ZM199.884 31.4956L200.627 31.2022L198.422 25.6218L197.68 25.9152L199.884 31.4956ZM200.627 31.2022C201.415 30.8907 202.178 30.5176 202.907 30.0862L199.854 24.9214C199.396 25.1922 198.917 25.4263 198.422 25.6218L200.627 31.2022ZM202.907 30.0862C203.776 29.5726 204.595 28.9785 205.352 28.3117L201.388 23.8078C200.912 24.2263 200.399 24.5991 199.854 24.9214L202.907 30.0862ZM205.352 28.3117L206.459 27.3378L202.494 22.8339L201.388 23.8078L205.352 28.3117ZM206.639 27.1652L209.358 24.3375L205.033 20.1787L202.314 23.0065L206.639 27.1652ZM209.986 21.1559L209.049 18.7857L203.469 20.99L204.405 23.3603L209.986 21.1559ZM209.049 18.7857L208.113 16.4154L202.533 18.6198L203.469 20.99L209.049 18.7857ZM205.481 14.5217L201.563 14.3156L201.248 20.3073L205.165 20.5135L205.481 14.5217ZM201.313 14.3129L199.84 14.358L200.024 20.3552L201.497 20.31L201.313 14.3129ZM199.84 14.358C198.831 14.389 197.828 14.5146 196.843 14.7333L198.143 20.5907C198.761 20.4535 199.391 20.3746 200.024 20.3552L199.84 14.358ZM196.843 14.7333C196.015 14.917 195.204 15.1657 194.415 15.4771L196.62 21.0575C197.114 20.8621 197.624 20.706 198.143 20.5907L196.843 14.7333ZM194.415 15.4771L193.625 15.7892L195.829 21.3696L196.62 21.0575L194.415 15.4771ZM193.842 15.7129L193.693 15.7589L195.463 21.4919L195.612 21.4459L193.842 15.7129ZM193.693 15.7589C193.473 15.8269 193.235 15.7933 193.042 15.6683L189.773 20.6993C191.455 21.7926 193.539 22.0858 195.463 21.4919L193.693 15.7589ZM186.401 17.3016C187.365 18.1303 188.259 19.0518 189.066 20.0596L193.749 16.3081C192.707 15.0075 191.554 13.819 190.312 12.7509L186.401 17.3016ZM190.902 13.439C190.78 13.2428 190.752 13.0014 190.829 12.7824L185.161 10.8136C184.489 12.7475 184.729 14.8794 185.811 16.6135L190.902 13.439ZM190.829 12.7824L190.896 12.5871L185.229 10.6182L185.161 10.8136L190.829 12.7824ZM190.815 12.7963L191.133 12.0636L185.628 9.67639L185.31 10.4091L190.815 12.7963ZM191.133 12.0636C191.47 11.2859 191.745 10.4829 191.956 9.66187L186.145 8.16916C186.012 8.68439 185.84 9.18836 185.628 9.67639L191.133 12.0636ZM191.956 9.66187C192.207 8.68445 192.366 7.68561 192.43 6.67851L186.442 6.29693C186.402 6.92895 186.302 7.55578 186.145 8.16916L191.956 9.66187ZM192.43 6.6785L192.524 5.20745L186.536 4.82589L186.442 6.29694L192.43 6.6785ZM192.529 4.95791L192.452 1.03567L186.454 1.15318L186.53 5.07542L192.529 4.95791ZM190.647 -1.6579L188.308 -2.67186L185.921 2.83279L188.259 3.84675L190.647 -1.6579ZM188.308 -2.67186L185.97 -3.68582L183.583 1.81884L185.921 2.83279L188.308 -2.67186ZM182.77 -3.16335L179.854 -0.538973L183.868 3.92075L186.784 1.29637L182.77 -3.16335ZM179.676 -0.364426L178.666 0.709326L183.036 4.81995L184.046 3.7462L179.676 -0.364426ZM178.666 0.70932C177.974 1.44443 177.354 2.24287 176.812 3.09412L181.873 6.31655C182.213 5.78234 182.602 5.28127 183.036 4.81996L178.666 0.70932ZM176.812 3.09413C176.356 3.80914 175.958 4.55898 175.621 5.33665L181.126 7.72386C181.337 7.23583 181.587 6.76527 181.873 6.31654L176.812 3.09413ZM175.621 5.33666L175.283 6.11608L180.788 8.50328L181.126 7.72385L175.621 5.33666ZM175.383 5.90846L175.31 6.04636L180.615 8.84879L180.688 8.7109L175.383 5.90846ZM175.31 6.04639C175.2 6.25332 175.004 6.39964 174.775 6.44488L175.937 12.3312C177.94 11.9356 179.66 10.6572 180.615 8.84876L175.31 6.04639ZM171.195 12.3095C172.483 12.2101 173.766 12.2326 175.031 12.3704L175.681 6.40568C174.051 6.22809 172.395 6.19903 170.733 6.32723L171.195 12.3095ZM171.684 6.40592C171.461 6.3509 171.273 6.19967 171.173 5.99259L165.778 8.61845C166.659 10.4285 168.297 11.7496 170.244 12.2308L171.684 6.40592ZM171.173 5.99262L171.104 5.8524L165.71 8.47821L165.778 8.61843L171.173 5.99262ZM171.197 6.06312L170.885 5.27297L165.305 7.47734L165.617 8.26748L171.197 6.06312ZM170.885 5.27297C170.574 4.4846 170.2 3.72204 169.769 2.99239L164.604 6.04615C164.875 6.50405 165.109 6.98259 165.305 7.47734L170.885 5.27297ZM169.769 2.9924C169.255 2.12374 168.661 1.30525 167.995 0.547741L163.491 4.51199C163.909 4.98737 164.282 5.50101 164.604 6.04614L169.769 2.9924ZM167.995 0.547742L167.021 -0.558726L162.517 3.40552L163.491 4.51199L167.995 0.547742ZM166.848 -0.73906L164.02 -3.45818L159.862 0.866735L162.689 3.58586L166.848 -0.73906ZM160.839 -4.08592L158.469 -3.14962L160.673 2.43077L163.043 1.49447L160.839 -4.08592ZM158.469 -3.14962L156.098 -2.21333L158.303 3.36706L160.673 2.43077L158.469 -3.14962ZM154.205 0.419225L153.998 4.33681L159.99 4.65209L160.196 0.73451L154.205 0.419225ZM153.996 4.58638L154.041 6.05972L160.038 5.87586L159.993 4.40252L153.996 4.58638ZM154.041 6.05973C154.072 7.06839 154.197 8.07193 154.416 9.05709L160.274 7.75687C160.136 7.13862 160.058 6.50885 160.038 5.87585L154.041 6.05973ZM154.416 9.05709C154.6 9.8846 154.849 10.6963 155.16 11.4847L160.74 9.28032C160.545 8.78557 160.389 8.27617 160.274 7.75686L154.416 9.05709ZM155.16 11.4847L155.453 12.2274L161.034 10.0231L160.74 9.28032L155.16 11.4847ZM155.379 12.0157L155.44 12.2131L161.17 10.4323L161.108 10.2348L155.379 12.0157ZM155.44 12.2131C155.508 12.4309 155.475 12.6673 155.351 12.8578L160.382 16.1267C161.476 14.4429 161.768 12.3563 161.17 10.4323L155.44 12.2131ZM156.937 19.5536C157.778 18.5682 158.716 17.6561 159.743 16.8335L155.991 12.1509C154.666 13.2126 153.457 14.3891 152.373 15.659L156.937 19.5536ZM153.133 15.021C152.938 15.1358 152.702 15.1598 152.487 15.0856L150.529 20.7572C152.408 21.4059 154.472 21.1954 156.177 20.1915L153.133 15.021ZM152.487 15.0857L152.34 15.0348L150.382 20.7063L150.529 20.7571L152.487 15.0857ZM152.554 15.1182L151.775 14.7802L149.388 20.2848L150.167 20.6228L152.554 15.1182ZM151.775 14.7802C150.997 14.4429 150.194 14.1676 149.373 13.9567L147.881 19.768C148.396 19.9004 148.9 20.0732 149.388 20.2848L151.775 14.7802ZM149.373 13.9567C148.396 13.7056 147.397 13.547 146.39 13.4828L146.008 19.4706C146.64 19.5109 147.267 19.6105 147.881 19.768L149.373 13.9567ZM146.39 13.4828L144.919 13.389L144.537 19.3769L146.008 19.4706L146.39 13.4828ZM144.669 13.3836L140.747 13.4604L140.865 19.4592L144.787 19.3824L144.669 13.3836ZM138.054 15.2662L137.04 17.6043L142.544 19.9915L143.558 17.6534L138.054 15.2662ZM137.04 17.6043L136.026 19.9424L141.53 22.3296L142.544 19.9915L137.04 17.6043ZM136.548 23.1429L139.172 26.0588L143.632 22.045L141.008 19.1291L136.548 23.1429ZM139.347 26.2372L140.421 27.2471L144.531 22.8764L143.458 21.8666L139.347 26.2372ZM140.421 27.2471C141.156 27.9385 141.954 28.5592 142.806 29.1012L146.028 24.04C145.494 23.6999 144.993 23.3103 144.531 22.8764L140.421 27.2471ZM142.806 29.1012C143.521 29.5565 144.27 29.9546 145.048 30.2918L147.435 24.7871C146.947 24.5755 146.477 24.3257 146.028 24.04L142.806 29.1012ZM145.048 30.2918L145.781 30.6095L148.168 25.1049L147.435 24.7872L145.048 30.2918ZM145.578 30.5126L145.761 30.6088L148.553 25.2981L148.37 25.2019L145.578 30.5126ZM145.761 30.6088C145.961 30.7136 146.103 30.9007 146.152 31.1193L152.007 29.8086C151.575 27.8758 150.315 26.2241 148.553 25.2981L145.761 30.6088Z" fill="#FDC637" mask="url(#path-3-outside-1_29_132)"/>
<path d="M21.38 39.4049C21.94 40.0849 22.5467 40.5649 23.2 40.8449C23.8667 41.1249 24.5667 41.2649 25.3 41.2649C26.06 41.2649 26.74 41.1315 27.34 40.8649C27.9533 40.5849 28.4733 40.1582 28.9 39.5849C29.3267 38.9982 29.6533 38.2582 29.88 37.3649C30.1067 36.4582 30.22 35.3782 30.22 34.1249C30.22 31.8715 29.8467 30.2449 29.1 29.2449C28.3533 28.2315 27.28 27.7249 25.88 27.7249C24.9333 27.7249 24.1067 27.9449 23.4 28.3849C22.6933 28.8115 22.02 29.4182 21.38 30.2049V39.4049ZM21.38 26.7249C22.2067 25.8582 23.12 25.1715 24.12 24.6649C25.1333 24.1449 26.2867 23.8849 27.58 23.8849C28.7667 23.8849 29.8333 24.1182 30.78 24.5849C31.74 25.0515 32.5533 25.7249 33.22 26.6049C33.9 27.4715 34.42 28.5249 34.78 29.7649C35.14 31.0049 35.32 32.3982 35.32 33.9449C35.32 35.6115 35.1133 37.1249 34.7 38.4849C34.2867 39.8449 33.6933 41.0115 32.92 41.9849C32.16 42.9449 31.24 43.6915 30.16 44.2249C29.08 44.7582 27.88 45.0249 26.56 45.0249C25.92 45.0249 25.34 44.9582 24.82 44.8249C24.3 44.7049 23.82 44.5315 23.38 44.3049C22.94 44.0782 22.5333 43.8049 22.16 43.4849C21.8 43.1515 21.4533 42.7849 21.12 42.3849L20.9 43.7649C20.82 44.1115 20.68 44.3582 20.48 44.5049C20.2933 44.6515 20.0333 44.7249 19.7 44.7249H16.44V15.0049H21.38V26.7249ZM39.1353 44.7249V24.2049H42.1553C42.7953 24.2049 43.2153 24.5049 43.4153 25.1049L43.7353 26.6249C44.0953 26.2249 44.4686 25.8582 44.8553 25.5249C45.2553 25.1915 45.6753 24.9049 46.1153 24.6649C46.5686 24.4249 47.0486 24.2382 47.5553 24.1049C48.0753 23.9582 48.642 23.8849 49.2553 23.8849C50.5486 23.8849 51.6086 24.2382 52.4353 24.9449C53.2753 25.6382 53.902 26.5649 54.3153 27.7249C54.6353 27.0449 55.0353 26.4649 55.5153 25.9849C55.9953 25.4915 56.522 25.0915 57.0953 24.7849C57.6686 24.4782 58.2753 24.2515 58.9153 24.1049C59.5686 23.9582 60.222 23.8849 60.8753 23.8849C62.0086 23.8849 63.0153 24.0582 63.8953 24.4049C64.7753 24.7515 65.5153 25.2582 66.1153 25.9249C66.7153 26.5915 67.1686 27.4049 67.4753 28.3649C67.7953 29.3249 67.9553 30.4249 67.9553 31.6649V44.7249H63.0153V31.6649C63.0153 30.3582 62.7286 29.3782 62.1553 28.7249C61.582 28.0582 60.742 27.7249 59.6353 27.7249C59.1286 27.7249 58.6553 27.8115 58.2153 27.9849C57.7886 28.1582 57.4086 28.4115 57.0753 28.7449C56.7553 29.0649 56.502 29.4715 56.3153 29.9649C56.1286 30.4582 56.0353 31.0249 56.0353 31.6649V44.7249H51.0753V31.6649C51.0753 30.2915 50.7953 29.2915 50.2353 28.6649C49.6886 28.0382 48.882 27.7249 47.8153 27.7249C47.0953 27.7249 46.422 27.9049 45.7953 28.2649C45.182 28.6115 44.6086 29.0915 44.0753 29.7049V44.7249H39.1353ZM85.1709 28.2049C85.0376 28.4182 84.8976 28.5715 84.7509 28.6649C84.6043 28.7449 84.4176 28.7849 84.1909 28.7849C83.9509 28.7849 83.6909 28.7182 83.4109 28.5849C83.1443 28.4515 82.8309 28.3049 82.4709 28.1449C82.1109 27.9715 81.6976 27.8182 81.2309 27.6849C80.7776 27.5515 80.2376 27.4849 79.6109 27.4849C78.6376 27.4849 77.8709 27.6915 77.3109 28.1049C76.7643 28.5182 76.4909 29.0582 76.4909 29.7249C76.4909 30.1649 76.6309 30.5382 76.9109 30.8449C77.2043 31.1382 77.5843 31.3982 78.0509 31.6249C78.5309 31.8515 79.0709 32.0582 79.6709 32.2449C80.2709 32.4182 80.8776 32.6115 81.4909 32.8249C82.1176 33.0382 82.7309 33.2849 83.3309 33.5649C83.9309 33.8315 84.4643 34.1782 84.9309 34.6049C85.4109 35.0182 85.7909 35.5182 86.0709 36.1049C86.3643 36.6915 86.5109 37.3982 86.5109 38.2249C86.5109 39.2115 86.3309 40.1249 85.9709 40.9649C85.6243 41.7915 85.1043 42.5115 84.4109 43.1249C83.7176 43.7249 82.8576 44.1982 81.8309 44.5449C80.8176 44.8782 79.6443 45.0449 78.3109 45.0449C77.6043 45.0449 76.9109 44.9782 76.2309 44.8449C75.5643 44.7249 74.9176 44.5515 74.2909 44.3249C73.6776 44.0982 73.1043 43.8315 72.5709 43.5249C72.0509 43.2182 71.5909 42.8849 71.1909 42.5249L72.3309 40.6449C72.4776 40.4182 72.6509 40.2449 72.8509 40.1249C73.0509 40.0049 73.3043 39.9449 73.6109 39.9449C73.9176 39.9449 74.2043 40.0315 74.4709 40.2049C74.7509 40.3782 75.0709 40.5649 75.4309 40.7649C75.7909 40.9649 76.2109 41.1515 76.6909 41.3249C77.1843 41.4982 77.8043 41.5849 78.5509 41.5849C79.1376 41.5849 79.6376 41.5182 80.0509 41.3849C80.4776 41.2382 80.8243 41.0515 81.0909 40.8249C81.3709 40.5982 81.5709 40.3382 81.6909 40.0449C81.8243 39.7382 81.8909 39.4249 81.8909 39.1049C81.8909 38.6249 81.7443 38.2315 81.4509 37.9249C81.1709 37.6182 80.7909 37.3515 80.3109 37.1249C79.8443 36.8982 79.3043 36.6982 78.6909 36.5249C78.0909 36.3382 77.4709 36.1382 76.8309 35.9249C76.2043 35.7115 75.5843 35.4649 74.9709 35.1849C74.3709 34.8915 73.8309 34.5249 73.3509 34.0849C72.8843 33.6449 72.5043 33.1049 72.2109 32.4649C71.9309 31.8249 71.7909 31.0515 71.7909 30.1449C71.7909 29.3049 71.9576 28.5049 72.2909 27.7449C72.6243 26.9849 73.1109 26.3249 73.7509 25.7649C74.4043 25.1915 75.2109 24.7382 76.1709 24.4049C77.1443 24.0582 78.2643 23.8849 79.5309 23.8849C80.9443 23.8849 82.2309 24.1182 83.3909 24.5849C84.5509 25.0515 85.5176 25.6649 86.2909 26.4249L85.1709 28.2049ZM97.0691 45.0449C95.2824 45.0449 93.9091 44.5449 92.9491 43.5449C92.0024 42.5315 91.5291 41.1382 91.5291 39.3649V27.9049H89.4291C89.1624 27.9049 88.9357 27.8182 88.7491 27.6449C88.5624 27.4715 88.4691 27.2115 88.4691 26.8649V24.9049L91.7691 24.3649L92.8091 18.7649C92.8757 18.4982 93.0024 18.2915 93.1891 18.1449C93.3757 17.9982 93.6157 17.9249 93.9091 17.9249H96.4691V24.3849H101.949V27.9049H96.4691V39.0249C96.4691 39.6649 96.6224 40.1649 96.9291 40.5249C97.2491 40.8849 97.6824 41.0649 98.2291 41.0649C98.5357 41.0649 98.7891 41.0315 98.9891 40.9649C99.2024 40.8849 99.3824 40.8049 99.5291 40.7249C99.6891 40.6449 99.8291 40.5715 99.9491 40.5049C100.069 40.4249 100.189 40.3849 100.309 40.3849C100.456 40.3849 100.576 40.4249 100.669 40.5049C100.762 40.5715 100.862 40.6782 100.969 40.8249L102.449 43.2249C101.729 43.8249 100.902 44.2782 99.9691 44.5849C99.0357 44.8915 98.0691 45.0449 97.0691 45.0449ZM122.792 24.2049V44.7249H119.772C119.119 44.7249 118.705 44.4249 118.532 43.8249L118.192 42.1849C117.352 43.0382 116.425 43.7315 115.412 44.2649C114.399 44.7849 113.205 45.0449 111.832 45.0449C110.712 45.0449 109.719 44.8582 108.852 44.4849C107.999 44.0982 107.279 43.5582 106.692 42.8649C106.105 42.1715 105.659 41.3515 105.352 40.4049C105.059 39.4449 104.912 38.3915 104.912 37.2449V24.2049H109.852V37.2449C109.852 38.4982 110.139 39.4715 110.712 40.1649C111.299 40.8449 112.172 41.1849 113.332 41.1849C114.185 41.1849 114.985 40.9982 115.732 40.6249C116.479 40.2382 117.185 39.7115 117.852 39.0449V24.2049H122.792ZM146.423 42.0049C146.423 41.5915 146.496 41.1982 146.643 40.8249C146.803 40.4515 147.016 40.1315 147.283 39.8649C147.55 39.5982 147.87 39.3849 148.243 39.2249C148.616 39.0649 149.016 38.9849 149.443 38.9849C149.87 38.9849 150.263 39.0649 150.623 39.2249C150.996 39.3849 151.316 39.5982 151.583 39.8649C151.863 40.1315 152.083 40.4515 152.243 40.8249C152.403 41.1982 152.483 41.5915 152.483 42.0049C152.483 42.4315 152.403 42.8315 152.243 43.2049C152.083 43.5649 151.863 43.8782 151.583 44.1449C151.316 44.4115 150.996 44.6182 150.623 44.7649C150.263 44.9249 149.87 45.0049 149.443 45.0049C149.016 45.0049 148.616 44.9249 148.243 44.7649C147.87 44.6182 147.55 44.4115 147.283 44.1449C147.016 43.8782 146.803 43.5649 146.643 43.2049C146.496 42.8315 146.423 42.4315 146.423 42.0049ZM164.135 33.9649C164.749 33.9649 165.282 33.8849 165.735 33.7249C166.189 33.5515 166.562 33.3182 166.855 33.0249C167.162 32.7315 167.389 32.3782 167.535 31.9649C167.695 31.5515 167.775 31.0982 167.775 30.6049C167.775 29.5915 167.469 28.7915 166.855 28.2049C166.255 27.6049 165.349 27.3049 164.135 27.3049C162.922 27.3049 162.009 27.6049 161.395 28.2049C160.795 28.7915 160.495 29.5915 160.495 30.6049C160.495 31.0849 160.569 31.5315 160.715 31.9449C160.875 32.3582 161.102 32.7182 161.395 33.0249C161.702 33.3182 162.082 33.5515 162.535 33.7249C163.002 33.8849 163.535 33.9649 164.135 33.9649ZM169.715 45.6449C169.715 45.2449 169.595 44.9182 169.355 44.6649C169.115 44.4115 168.789 44.2182 168.375 44.0849C167.962 43.9382 167.475 43.8315 166.915 43.7649C166.369 43.6982 165.782 43.6515 165.155 43.6249C164.542 43.5849 163.902 43.5515 163.235 43.5249C162.582 43.4982 161.942 43.4449 161.315 43.3649C160.769 43.6715 160.322 44.0315 159.975 44.4449C159.642 44.8582 159.475 45.3382 159.475 45.8849C159.475 46.2449 159.562 46.5782 159.735 46.8849C159.922 47.2049 160.209 47.4782 160.595 47.7049C160.995 47.9315 161.509 48.1049 162.135 48.2249C162.762 48.3582 163.529 48.4249 164.435 48.4249C165.355 48.4249 166.149 48.3515 166.815 48.2049C167.482 48.0715 168.029 47.8782 168.455 47.6249C168.895 47.3849 169.215 47.0915 169.415 46.7449C169.615 46.4115 169.715 46.0449 169.715 45.6449ZM174.635 24.9049V26.7449C174.635 27.3315 174.282 27.6915 173.575 27.8249L171.735 28.1649C172.015 28.8715 172.155 29.6449 172.155 30.4849C172.155 31.4982 171.949 32.4182 171.535 33.2449C171.135 34.0582 170.575 34.7515 169.855 35.3249C169.135 35.8982 168.282 36.3449 167.295 36.6649C166.322 36.9715 165.269 37.1249 164.135 37.1249C163.735 37.1249 163.349 37.1049 162.975 37.0649C162.602 37.0249 162.235 36.9715 161.875 36.9049C161.235 37.2915 160.915 37.7249 160.915 38.2049C160.915 38.6182 161.102 38.9249 161.475 39.1249C161.862 39.3115 162.369 39.4449 162.995 39.5249C163.622 39.6049 164.335 39.6582 165.135 39.6849C165.935 39.6982 166.755 39.7382 167.595 39.8049C168.435 39.8715 169.255 39.9915 170.055 40.1649C170.855 40.3249 171.569 40.5849 172.195 40.9449C172.822 41.3049 173.322 41.7982 173.695 42.4249C174.082 43.0382 174.275 43.8315 174.275 44.8049C174.275 45.7115 174.049 46.5915 173.595 47.4449C173.155 48.2982 172.509 49.0582 171.655 49.7249C170.815 50.3915 169.775 50.9249 168.535 51.3249C167.309 51.7382 165.909 51.9449 164.335 51.9449C162.789 51.9449 161.442 51.7915 160.295 51.4849C159.149 51.1915 158.195 50.7915 157.435 50.2849C156.675 49.7915 156.109 49.2182 155.735 48.5649C155.362 47.9115 155.175 47.2315 155.175 46.5249C155.175 45.5649 155.462 44.7649 156.035 44.1249C156.622 43.4715 157.422 42.9515 158.435 42.5649C157.889 42.2849 157.455 41.9115 157.135 41.4449C156.815 40.9782 156.655 40.3649 156.655 39.6049C156.655 39.2982 156.709 38.9849 156.815 38.6649C156.935 38.3315 157.102 38.0049 157.315 37.6849C157.542 37.3649 157.822 37.0649 158.155 36.7849C158.489 36.4915 158.882 36.2315 159.335 36.0049C158.295 35.4449 157.475 34.6982 156.875 33.7649C156.289 32.8315 155.995 31.7382 155.995 30.4849C155.995 29.4715 156.195 28.5582 156.595 27.7449C157.009 26.9182 157.575 26.2182 158.295 25.6449C159.029 25.0582 159.889 24.6115 160.875 24.3049C161.875 23.9982 162.962 23.8449 164.135 23.8449C165.015 23.8449 165.842 23.9382 166.615 24.1249C167.389 24.2982 168.095 24.5582 168.735 24.9049H174.635ZM186.497 23.8849C188.017 23.8849 189.397 24.1315 190.637 24.6249C191.89 25.1182 192.957 25.8182 193.837 26.7249C194.73 27.6315 195.417 28.7382 195.897 30.0449C196.377 31.3515 196.617 32.8115 196.617 34.4249C196.617 36.0515 196.377 37.5182 195.897 38.8249C195.417 40.1315 194.73 41.2449 193.837 42.1649C192.957 43.0849 191.89 43.7915 190.637 44.2849C189.397 44.7782 188.017 45.0249 186.497 45.0249C184.963 45.0249 183.57 44.7782 182.317 44.2849C181.063 43.7915 179.99 43.0849 179.097 42.1649C178.217 41.2449 177.53 40.1315 177.037 38.8249C176.557 37.5182 176.317 36.0515 176.317 34.4249C176.317 32.8115 176.557 31.3515 177.037 30.0449C177.53 28.7382 178.217 27.6315 179.097 26.7249C179.99 25.8182 181.063 25.1182 182.317 24.6249C183.57 24.1315 184.963 23.8849 186.497 23.8849ZM186.497 41.2249C188.203 41.2249 189.463 40.6515 190.277 39.5049C191.103 38.3582 191.517 36.6782 191.517 34.4649C191.517 32.2515 191.103 30.5649 190.277 29.4049C189.463 28.2449 188.203 27.6649 186.497 27.6649C184.763 27.6649 183.477 28.2515 182.637 29.4249C181.81 30.5849 181.397 32.2649 181.397 34.4649C181.397 36.6649 181.81 38.3449 182.637 39.5049C183.477 40.6515 184.763 41.2249 186.497 41.2249Z" fill="white"/>
</g>
</svg>
