<svg width="227" height="65" viewBox="0 0 227 65" fill="none" xmlns="http://www.w3.org/2000/svg">
<mask id="mask0_230_555" style="mask-type:alpha" maskUnits="userSpaceOnUse" x="0" y="0" width="227" height="65">
<rect y="0.304932" width="227" height="64" rx="32" fill="#0372E4"/>
</mask>
<g mask="url(#mask0_230_555)">
<mask id="path-2-outside-1_230_555" maskUnits="userSpaceOnUse" x="113.199" y="-17.9326" width="101.202" height="101.202" fill="black">
<rect fill="white" x="113.199" y="-17.9326" width="101.202" height="101.202"/>
<path fill-rule="evenodd" clip-rule="evenodd" d="M140.08 30.0439C139.914 31.5166 139.885 33.0131 140.001 34.515C139.733 35.6003 138.997 36.5134 137.988 37.0043L137.848 37.0726L137.058 37.3847C136.416 37.6381 135.796 37.9418 135.202 38.2929C134.495 38.7108 133.829 39.1943 133.213 39.7369L132.106 40.7108L129.387 43.5386L130.323 45.9088L131.26 48.2791L135.177 48.4852L136.651 48.44C137.471 48.4149 138.288 48.3126 139.09 48.1347C139.763 47.9852 140.424 47.7828 141.065 47.5294L141.808 47.236L142.006 47.1746C143.077 46.8417 144.238 47.0039 145.175 47.6129C146.117 48.7887 147.161 49.8618 148.289 50.8239C148.848 51.774 148.966 52.9243 148.604 53.9714L148.553 54.1189L148.215 54.8983C147.941 55.5311 147.717 56.1847 147.545 56.8528C147.341 57.6482 147.212 58.461 147.16 59.2806L147.066 60.7516L147.143 64.6739L149.481 65.6878L151.819 66.7018L154.735 64.0774L155.745 63.0036C156.307 62.4054 156.812 61.7557 157.253 61.0629C157.624 60.4811 157.948 59.8709 158.222 59.238L158.54 58.5054L158.636 58.3223C159.152 57.3419 160.071 56.6406 161.147 56.3998C162.619 56.5653 164.116 56.5942 165.618 56.4784C166.703 56.7463 167.615 57.4835 168.104 58.493L168.194 58.6791L168.488 59.4218C168.741 60.0634 169.045 60.6839 169.396 61.2777C169.814 61.9846 170.297 62.6506 170.84 63.2671L171.814 64.3736L174.641 67.0927L177.012 66.1564L179.382 65.2201L179.588 61.3025L179.543 59.8292C179.518 59.0083 179.416 58.1917 179.238 57.39C179.088 56.7166 178.886 56.056 178.632 55.4145L178.32 54.6243L178.274 54.4753C177.943 53.4034 178.107 52.2419 178.716 51.3045C179.87 50.38 180.925 49.3572 181.873 48.2538C182.838 47.6518 184.025 47.5178 185.102 47.8918L185.297 47.9597L186.03 48.2774C186.663 48.5519 187.316 48.7759 187.984 48.9476C188.78 49.1519 189.592 49.281 190.412 49.3332L191.883 49.4269L195.805 49.3501L196.819 47.012L197.833 44.6739L195.209 41.758L194.135 40.7482C193.537 40.1855 192.887 39.6804 192.194 39.2393C191.613 38.8688 191.002 38.5449 190.369 38.2704L189.59 37.9324L189.452 37.8596C188.444 37.3273 187.732 36.3688 187.512 35.2528C187.669 33.8059 187.695 32.3363 187.581 30.8615C187.849 29.7766 188.587 28.8643 189.596 28.3755L189.782 28.2853L190.525 27.9919C191.166 27.7385 191.787 27.4348 192.381 27.0837C193.087 26.6658 193.754 26.1823 194.37 25.6397L195.476 24.6658L198.196 21.8381L197.259 19.4678L196.323 17.0976L192.405 16.8914L190.932 16.9366C190.111 16.9617 189.295 17.064 188.493 17.2419C187.819 17.3914 187.159 17.5938 186.517 17.8473L185.727 18.1594L185.578 18.2054C184.506 18.5363 183.345 18.3729 182.408 17.7638C181.483 16.6097 180.46 15.5546 179.356 14.6062C178.755 13.6411 178.621 12.4544 178.995 11.3779L179.063 11.1826L179.38 10.4499C179.655 9.8171 179.879 9.16358 180.05 8.49547C180.255 7.70007 180.384 6.88723 180.436 6.06768L180.53 4.59662L180.453 0.674381L178.115 -0.339577L175.777 -1.35353L172.861 1.27084L171.851 2.3446C171.288 2.94281 170.783 3.59256 170.342 4.28529C169.972 4.86716 169.648 5.47736 169.373 6.11021L169.035 6.88964L168.962 7.02753C168.43 8.03523 167.472 8.74757 166.356 8.96798C164.909 8.81029 163.439 8.78453 161.964 8.8983C160.879 8.63021 159.966 7.89402 159.475 6.88548L159.407 6.74526L159.095 5.95511C158.841 5.31355 158.538 4.693 158.187 4.09923C157.769 3.39233 157.285 2.72627 156.743 2.10982L155.769 1.00335L152.941 -1.71577L150.571 -0.779473L148.2 0.156824L147.994 4.07441L148.04 5.54774C148.065 6.36858 148.167 7.18523 148.345 7.98694C148.494 8.66034 148.697 9.3209 148.95 9.96246L149.244 10.7052L149.305 10.9027C149.638 11.9736 149.476 13.1351 148.867 14.0722C147.691 15.0144 146.618 16.0586 145.655 17.1862C144.705 17.7455 143.555 17.8628 142.508 17.5014L142.361 17.4505L141.581 17.1124C140.949 16.838 140.295 16.6139 139.627 16.4423C138.832 16.238 138.019 16.1089 137.199 16.0567L135.728 15.9629L131.806 16.0398L130.792 18.3778L129.778 20.7159L132.402 23.6318L133.476 24.6417C134.074 25.2043 134.724 25.7095 135.417 26.1506C135.999 26.521 136.609 26.845 137.242 27.1194L137.974 27.4372L138.157 27.5334C139.138 28.0488 139.839 28.9682 140.08 30.0439Z"/>
</mask>
<path fill-rule="evenodd" clip-rule="evenodd" d="M140.08 30.0439C139.914 31.5166 139.885 33.0131 140.001 34.515C139.733 35.6003 138.997 36.5134 137.988 37.0043L137.848 37.0726L137.058 37.3847C136.416 37.6381 135.796 37.9418 135.202 38.2929C134.495 38.7108 133.829 39.1943 133.213 39.7369L132.106 40.7108L129.387 43.5386L130.323 45.9088L131.26 48.2791L135.177 48.4852L136.651 48.44C137.471 48.4149 138.288 48.3126 139.09 48.1347C139.763 47.9852 140.424 47.7828 141.065 47.5294L141.808 47.236L142.006 47.1746C143.077 46.8417 144.238 47.0039 145.175 47.6129C146.117 48.7887 147.161 49.8618 148.289 50.8239C148.848 51.774 148.966 52.9243 148.604 53.9714L148.553 54.1189L148.215 54.8983C147.941 55.5311 147.717 56.1847 147.545 56.8528C147.341 57.6482 147.212 58.461 147.16 59.2806L147.066 60.7516L147.143 64.6739L149.481 65.6878L151.819 66.7018L154.735 64.0774L155.745 63.0036C156.307 62.4054 156.812 61.7557 157.253 61.0629C157.624 60.4811 157.948 59.8709 158.222 59.238L158.54 58.5054L158.636 58.3223C159.152 57.3419 160.071 56.6406 161.147 56.3998C162.619 56.5653 164.116 56.5942 165.618 56.4784C166.703 56.7463 167.615 57.4835 168.104 58.493L168.194 58.6791L168.488 59.4218C168.741 60.0634 169.045 60.6839 169.396 61.2777C169.814 61.9846 170.297 62.6506 170.84 63.2671L171.814 64.3736L174.641 67.0927L177.012 66.1564L179.382 65.2201L179.588 61.3025L179.543 59.8292C179.518 59.0083 179.416 58.1917 179.238 57.39C179.088 56.7166 178.886 56.056 178.632 55.4145L178.32 54.6243L178.274 54.4753C177.943 53.4034 178.107 52.2419 178.716 51.3045C179.87 50.38 180.925 49.3572 181.873 48.2538C182.838 47.6518 184.025 47.5178 185.102 47.8918L185.297 47.9597L186.03 48.2774C186.663 48.5519 187.316 48.7759 187.984 48.9476C188.78 49.1519 189.592 49.281 190.412 49.3332L191.883 49.4269L195.805 49.3501L196.819 47.012L197.833 44.6739L195.209 41.758L194.135 40.7482C193.537 40.1855 192.887 39.6804 192.194 39.2393C191.613 38.8688 191.002 38.5449 190.369 38.2704L189.59 37.9324L189.452 37.8596C188.444 37.3273 187.732 36.3688 187.512 35.2528C187.669 33.8059 187.695 32.3363 187.581 30.8615C187.849 29.7766 188.587 28.8643 189.596 28.3755L189.782 28.2853L190.525 27.9919C191.166 27.7385 191.787 27.4348 192.381 27.0837C193.087 26.6658 193.754 26.1823 194.37 25.6397L195.476 24.6658L198.196 21.8381L197.259 19.4678L196.323 17.0976L192.405 16.8914L190.932 16.9366C190.111 16.9617 189.295 17.064 188.493 17.2419C187.819 17.3914 187.159 17.5938 186.517 17.8473L185.727 18.1594L185.578 18.2054C184.506 18.5363 183.345 18.3729 182.408 17.7638C181.483 16.6097 180.46 15.5546 179.356 14.6062C178.755 13.6411 178.621 12.4544 178.995 11.3779L179.063 11.1826L179.38 10.4499C179.655 9.8171 179.879 9.16358 180.05 8.49547C180.255 7.70007 180.384 6.88723 180.436 6.06768L180.53 4.59662L180.453 0.674381L178.115 -0.339577L175.777 -1.35353L172.861 1.27084L171.851 2.3446C171.288 2.94281 170.783 3.59256 170.342 4.28529C169.972 4.86716 169.648 5.47736 169.373 6.11021L169.035 6.88964L168.962 7.02753C168.43 8.03523 167.472 8.74757 166.356 8.96798C164.909 8.81029 163.439 8.78453 161.964 8.8983C160.879 8.63021 159.966 7.89402 159.475 6.88548L159.407 6.74526L159.095 5.95511C158.841 5.31355 158.538 4.693 158.187 4.09923C157.769 3.39233 157.285 2.72627 156.743 2.10982L155.769 1.00335L152.941 -1.71577L150.571 -0.779473L148.2 0.156824L147.994 4.07441L148.04 5.54774C148.065 6.36858 148.167 7.18523 148.345 7.98694C148.494 8.66034 148.697 9.3209 148.95 9.96246L149.244 10.7052L149.305 10.9027C149.638 11.9736 149.476 13.1351 148.867 14.0722C147.691 15.0144 146.618 16.0586 145.655 17.1862C144.705 17.7455 143.555 17.8628 142.508 17.5014L142.361 17.4505L141.581 17.1124C140.949 16.838 140.295 16.6139 139.627 16.4423C138.832 16.238 138.019 16.1089 137.199 16.0567L135.728 15.9629L131.806 16.0398L130.792 18.3778L129.778 20.7159L132.402 23.6318L133.476 24.6417C134.074 25.2043 134.724 25.7095 135.417 26.1506C135.999 26.521 136.609 26.845 137.242 27.1194L137.974 27.4372L138.157 27.5334C139.138 28.0488 139.839 28.9682 140.08 30.0439Z" fill="#FF5C5C" fill-opacity="0.54"/>
<path d="M140.001 34.515L142.914 35.2342L143.03 34.7656L142.992 34.2844L140.001 34.515ZM140.08 30.0439L143.061 30.379L143.117 29.8793L143.007 29.3886L140.08 30.0439ZM137.988 37.0043L136.675 34.3069L136.675 34.3069L137.988 37.0043ZM137.848 37.0726L138.95 39.8628L139.057 39.8204L139.161 39.77L137.848 37.0726ZM135.202 38.2929L133.675 35.7105L133.675 35.7105L135.202 38.2929ZM133.213 39.7369L135.195 41.9888L135.195 41.9888L133.213 39.7369ZM132.106 40.7108L130.124 38.4589L130.03 38.5414L129.944 38.6314L132.106 40.7108ZM129.387 43.5386L127.225 41.4592L125.889 42.8483L126.597 44.6407L129.387 43.5386ZM131.26 48.2791L128.47 49.3812L129.178 51.1736L131.102 51.2749L131.26 48.2791ZM135.177 48.4852L135.02 51.4811L135.144 51.4876L135.269 51.4838L135.177 48.4852ZM136.651 48.44L136.743 51.4386L136.743 51.4386L136.651 48.44ZM139.09 48.1347L139.74 51.0634L139.74 51.0634L139.09 48.1347ZM141.808 47.236L140.918 44.3711L140.81 44.4045L140.706 44.4458L141.808 47.236ZM142.006 47.1746L142.896 50.0394L142.896 50.0394L142.006 47.1746ZM145.175 47.6129L147.516 45.7371L147.215 45.3603L146.81 45.0973L145.175 47.6129ZM148.289 50.8239L150.874 49.3016L150.619 48.8682L150.236 48.5418L148.289 50.8239ZM148.604 53.9714L151.44 54.9505L151.44 54.9504L148.604 53.9714ZM148.553 54.1189L151.306 55.3125L151.351 55.2068L151.389 55.0979L148.553 54.1189ZM148.215 54.8983L150.968 56.0919L150.968 56.0919L148.215 54.8983ZM147.545 56.8528L144.639 56.1064L144.639 56.1064L147.545 56.8528ZM147.16 59.2806L144.166 59.0898L144.166 59.0898L147.16 59.2806ZM147.066 60.7516L144.072 60.5608L144.064 60.6855L144.066 60.8104L147.066 60.7516ZM147.143 64.6739L144.143 64.7326L144.181 66.6594L145.949 67.4262L147.143 64.6739ZM149.481 65.6878L148.287 68.4401L148.287 68.4401L149.481 65.6878ZM151.819 66.7018L150.625 69.4541L152.393 70.2209L153.826 68.9316L151.819 66.7018ZM154.735 64.0774L156.742 66.3073L156.834 66.2237L156.92 66.1327L154.735 64.0774ZM155.745 63.0036L157.93 65.059L157.93 65.059L155.745 63.0036ZM157.253 61.0629L154.723 59.4517L154.723 59.4517L157.253 61.0629ZM158.222 59.238L160.975 60.4316L160.975 60.4316L158.222 59.238ZM158.54 58.5054L155.885 57.1093L155.832 57.2087L155.788 57.3118L158.54 58.5054ZM158.636 58.3223L155.981 56.9262L155.981 56.9262L158.636 58.3223ZM161.147 56.3998L161.482 53.4186L160.982 53.3624L160.492 53.4722L161.147 56.3998ZM165.618 56.4784L166.337 53.5659L165.868 53.4502L165.387 53.4873L165.618 56.4784ZM168.104 58.493L165.404 59.8007L165.404 59.8007L168.104 58.493ZM168.194 58.6791L170.984 57.5769L170.943 57.4724L170.894 57.3713L168.194 58.6791ZM169.396 61.2777L166.813 62.8046L166.813 62.8046L169.396 61.2777ZM170.84 63.2671L168.588 65.2492L168.588 65.2492L170.84 63.2671ZM171.814 64.3736L169.562 66.3557L169.644 66.4494L169.734 66.536L171.814 64.3736ZM174.641 67.0927L172.562 69.2551L173.951 70.5909L175.744 69.8829L174.641 67.0927ZM179.382 65.2201L180.484 68.0103L182.277 67.3022L182.378 65.3777L179.382 65.2201ZM179.588 61.3025L182.584 61.4602L182.591 61.3354L182.587 61.2106L179.588 61.3025ZM179.543 59.8292L176.544 59.9211L176.544 59.9211L179.543 59.8292ZM179.238 57.39L182.166 56.7399L182.166 56.7399L179.238 57.39ZM178.632 55.4145L181.422 54.3123L178.632 55.4145ZM178.32 54.6243L175.454 55.5093L175.488 55.6193L175.53 55.7265L178.32 54.6243ZM178.274 54.4753L175.408 55.3602L175.408 55.3603L178.274 54.4753ZM178.716 51.3045L176.84 48.9632L176.463 49.265L176.2 49.6697L178.716 51.3045ZM181.873 48.2538L180.285 45.7083L179.896 45.9509L179.598 46.2985L181.873 48.2538ZM185.102 47.8918L184.117 50.7257L184.117 50.7257L185.102 47.8918ZM185.297 47.9597L186.491 45.2074L186.388 45.1627L186.282 45.1258L185.297 47.9597ZM186.03 48.2774L187.223 45.5251L187.223 45.5251L186.03 48.2774ZM187.984 48.9476L187.238 51.8532L187.238 51.8532L187.984 48.9476ZM190.412 49.3332L190.221 52.3271L190.221 52.3271L190.412 49.3332ZM191.883 49.4269L191.692 52.4209L191.817 52.4288L191.942 52.4264L191.883 49.4269ZM195.805 49.3501L195.864 52.3495L197.791 52.3118L198.558 50.5437L195.805 49.3501ZM196.819 47.012L194.067 45.8184L194.067 45.8184L196.819 47.012ZM197.833 44.6739L200.586 45.8675L201.352 44.0995L200.063 42.667L197.833 44.6739ZM195.209 41.758L197.439 39.7511L197.355 39.6583L197.264 39.5727L195.209 41.758ZM194.135 40.7482L196.19 38.5628L196.19 38.5628L194.135 40.7482ZM192.194 39.2393L190.583 41.7699L190.583 41.7699L192.194 39.2393ZM190.369 38.2704L189.176 41.0228L189.176 41.0228L190.369 38.2704ZM189.59 37.9324L188.189 40.5851L188.291 40.6389L188.396 40.6847L189.59 37.9324ZM189.452 37.8596L188.051 40.5123L188.051 40.5123L189.452 37.8596ZM187.512 35.2528L184.529 34.9278L184.48 35.3838L184.569 35.8339L187.512 35.2528ZM187.581 30.8615L184.669 30.142L184.553 30.6108L184.59 31.0922L187.581 30.8615ZM189.596 28.3755L190.904 31.0754L190.904 31.0754L189.596 28.3755ZM189.782 28.2853L188.68 25.4951L188.575 25.5364L188.474 25.5854L189.782 28.2853ZM192.381 27.0837L193.907 29.6661L193.907 29.6661L192.381 27.0837ZM194.37 25.6397L196.352 27.8917L196.352 27.8917L194.37 25.6397ZM195.476 24.6658L197.459 26.9178L197.552 26.8352L197.639 26.7452L195.476 24.6658ZM198.196 21.8381L200.358 23.9174L201.694 22.5283L200.986 20.7359L198.196 21.8381ZM197.259 19.4678L200.049 18.3656L197.259 19.4678ZM196.323 17.0976L199.113 15.9954L198.405 14.203L196.481 14.1017L196.323 17.0976ZM192.405 16.8914L192.563 13.8956L192.438 13.889L192.313 13.8928L192.405 16.8914ZM190.932 16.9366L191.024 19.9352L191.024 19.9352L190.932 16.9366ZM188.493 17.2419L187.843 14.3132L187.843 14.3132L188.493 17.2419ZM185.727 18.1594L186.612 21.0259L186.722 20.9919L186.829 20.9496L185.727 18.1594ZM185.578 18.2054L184.693 15.3389L184.693 15.3389L185.578 18.2054ZM182.408 17.7638L180.066 19.6395L180.368 20.0163L180.773 20.2793L182.408 17.7638ZM179.356 14.6062L176.811 16.1934L177.053 16.5826L177.401 16.8815L179.356 14.6062ZM178.995 11.3779L176.161 10.3935L176.161 10.3935L178.995 11.3779ZM179.063 11.1826L176.31 9.98901L176.265 10.0921L176.229 10.1982L179.063 11.1826ZM179.38 10.4499L176.628 9.25634L179.38 10.4499ZM180.05 8.49547L182.956 9.24182L182.956 9.24182L180.05 8.49547ZM180.436 6.06768L183.43 6.25846L183.43 6.25846L180.436 6.06768ZM180.53 4.59662L183.524 4.7874L183.532 4.66275L183.529 4.53787L180.53 4.59662ZM180.453 0.674381L183.452 0.615623L183.415 -1.31118L181.647 -2.07795L180.453 0.674381ZM178.115 -0.339577L179.308 -3.0919L179.308 -3.0919L178.115 -0.339577ZM175.777 -1.35353L176.97 -4.10586L175.202 -4.87263L173.77 -3.5834L175.777 -1.35353ZM172.861 1.27084L170.854 -0.959017L170.761 -0.875458L170.676 -0.78447L172.861 1.27084ZM171.851 2.3446L174.036 4.39991L174.036 4.39991L171.851 2.3446ZM170.342 4.28529L167.812 2.67408L167.812 2.67408L170.342 4.28529ZM169.373 6.11021L166.621 4.9166L166.621 4.91661L169.373 6.11021ZM169.035 6.88964L171.688 8.29085L171.742 8.18896L171.788 8.08323L169.035 6.88964ZM168.962 7.02753L166.31 5.62631L166.31 5.62635L168.962 7.02753ZM166.356 8.96798L166.031 11.9503L166.487 12L166.937 11.9111L166.356 8.96798ZM161.964 8.8983L161.244 11.8107L161.713 11.9266L162.195 11.8894L161.964 8.8983ZM159.475 6.88548L156.778 8.19839L156.778 8.19841L159.475 6.88548ZM159.407 6.74526L156.617 7.84744L156.659 7.95458L156.71 8.05816L159.407 6.74526ZM159.095 5.95511L161.885 4.85292L159.095 5.95511ZM158.187 4.09923L155.604 5.6261L155.604 5.62611L158.187 4.09923ZM156.743 2.10982L154.491 4.09195L154.491 4.09195L156.743 2.10982ZM155.769 1.00335L158.021 -0.97877L157.938 -1.07253L157.848 -1.1591L155.769 1.00335ZM152.941 -1.71577L155.02 -3.87823L153.631 -5.214L151.839 -4.50596L152.941 -1.71577ZM148.2 0.156824L147.098 -2.63337L145.306 -1.92534L145.205 -0.000818947L148.2 0.156824ZM147.994 4.07441L144.998 3.91676L144.992 4.04149L144.996 4.16634L147.994 4.07441ZM148.04 5.54774L145.041 5.63967L145.041 5.63968L148.04 5.54774ZM148.345 7.98694L145.416 8.63705L145.416 8.63705L148.345 7.98694ZM149.244 10.7052L152.108 9.81479L152.075 9.70751L152.034 9.60302L149.244 10.7052ZM149.305 10.9027L146.44 11.7931L146.44 11.7931L149.305 10.9027ZM148.867 14.0722L150.743 16.4134L151.119 16.1115L151.382 15.7066L148.867 14.0722ZM145.655 17.1862L147.177 19.7715L147.611 19.5163L147.937 19.1335L145.655 17.1862ZM142.508 17.5014L141.529 20.3371L141.529 20.3371L142.508 17.5014ZM142.361 17.4505L141.167 20.2028L141.273 20.2486L141.382 20.2862L142.361 17.4505ZM141.581 17.1124L142.775 14.3601L142.775 14.3601L141.581 17.1124ZM139.627 16.4423L140.373 13.5366L140.373 13.5366L139.627 16.4423ZM137.199 16.0567L137.39 13.0627L137.39 13.0627L137.199 16.0567ZM135.728 15.9629L135.919 12.969L135.794 12.9611L135.669 12.9635L135.728 15.9629ZM131.806 16.0398L131.747 13.0403L129.82 13.0781L129.054 14.8462L131.806 16.0398ZM130.792 18.3778L128.04 17.1842L128.04 17.1842L130.792 18.3778ZM129.778 20.7159L127.026 19.5223L126.259 21.2904L127.548 22.7228L129.778 20.7159ZM132.402 23.6318L130.172 25.6388L130.256 25.7316L130.347 25.8172L132.402 23.6318ZM133.476 24.6417L131.421 26.827L131.421 26.827L133.476 24.6417ZM135.417 26.1506L133.806 28.6812L133.806 28.6812L135.417 26.1506ZM137.242 27.1194L138.435 24.3671L138.435 24.3671L137.242 27.1194ZM137.974 27.4372L139.37 24.7818L139.271 24.7295L139.168 24.6848L137.974 27.4372ZM138.157 27.5334L139.553 24.878L139.553 24.878L138.157 27.5334ZM142.992 34.2844C142.891 32.973 142.916 31.6659 143.061 30.379L137.099 29.7089C136.912 31.3673 136.88 33.0532 137.01 34.7457L142.992 34.2844ZM137.089 33.7958C137.034 34.0185 136.883 34.2061 136.675 34.3069L139.301 39.7018C141.112 38.8206 142.433 37.1821 142.914 35.2342L137.089 33.7958ZM136.675 34.3069L136.535 34.3751L139.161 39.77L139.301 39.7017L136.675 34.3069ZM136.746 34.2824L135.956 34.5945L138.16 40.1749L138.95 39.8628L136.746 34.2824ZM135.956 34.5945C135.167 34.9059 134.405 35.2791 133.675 35.7105L136.729 40.8752C137.187 40.6045 137.665 40.3703 138.16 40.1749L135.956 34.5945ZM133.675 35.7105C132.807 36.2241 131.988 36.8182 131.231 37.485L135.195 41.9888C135.67 41.5704 136.184 41.1976 136.729 40.8752L133.675 35.7105ZM131.231 37.4849L130.124 38.4589L134.088 42.9627L135.195 41.9888L131.231 37.4849ZM129.944 38.6314L127.225 41.4592L131.55 45.6179L134.269 42.7902L129.944 38.6314ZM126.597 44.6407L127.533 47.011L133.114 44.8066L132.177 42.4364L126.597 44.6407ZM127.533 47.011L128.47 49.3812L134.05 47.1769L133.114 44.8066L127.533 47.011ZM131.102 51.2749L135.02 51.4811L135.335 45.4893L131.417 45.2832L131.102 51.2749ZM135.269 51.4838L136.743 51.4386L136.559 45.4414L135.085 45.4866L135.269 51.4838ZM136.743 51.4386C137.751 51.4077 138.755 51.2821 139.74 51.0634L138.44 45.2059C137.821 45.3432 137.192 45.422 136.559 45.4414L136.743 51.4386ZM139.74 51.0634C140.567 50.8797 141.379 50.631 142.168 50.3195L139.963 44.7392C139.468 44.9346 138.959 45.0907 138.44 45.2059L139.74 51.0634ZM142.168 50.3195L142.91 50.0262L140.706 44.4458L139.963 44.7392L142.168 50.3195ZM142.698 50.1008L142.896 50.0394L141.115 44.3098L140.918 44.3711L142.698 50.1008ZM142.896 50.0394C143.114 49.9717 143.35 50.0047 143.541 50.1285L146.81 45.0973C145.126 44.0032 143.039 43.7117 141.115 44.3098L142.896 50.0394ZM150.236 48.5418C149.251 47.7011 148.339 46.7638 147.516 45.7371L142.834 49.4886C143.895 50.8136 145.072 52.0225 146.341 53.106L150.236 48.5418ZM145.704 52.3462C145.819 52.5411 145.843 52.7775 145.768 52.9925L151.44 54.9504C152.089 53.0711 151.878 51.0068 150.874 49.3016L145.704 52.3462ZM145.768 52.9924L145.718 53.1399L151.389 55.0979L151.44 54.9505L145.768 52.9924ZM145.801 52.9253L145.463 53.7047L150.968 56.0919L151.306 55.3125L145.801 52.9253ZM145.463 53.7047C145.126 54.4824 144.85 55.2854 144.639 56.1064L150.451 57.5991C150.583 57.0839 150.756 56.5799 150.968 56.0919L145.463 53.7047ZM144.639 56.1064C144.388 57.0838 144.23 58.0827 144.166 59.0898L150.153 59.4713C150.194 58.8393 150.293 58.2125 150.451 57.5991L144.639 56.1064ZM144.166 59.0898L144.072 60.5608L150.06 60.9424L150.153 59.4713L144.166 59.0898ZM144.066 60.8104L144.143 64.7326L150.142 64.6151L150.065 60.6929L144.066 60.8104ZM145.949 67.4262L148.287 68.4401L150.674 62.9355L148.336 61.9215L145.949 67.4262ZM148.287 68.4401L150.625 69.4541L153.012 63.9494L150.674 62.9355L148.287 68.4401ZM153.826 68.9316L156.742 66.3073L152.728 61.8475L149.812 64.4719L153.826 68.9316ZM156.92 66.1327L157.93 65.059L153.559 60.9483L152.549 62.0221L156.92 66.1327ZM157.93 65.059C158.621 64.3239 159.242 63.5254 159.784 62.6742L154.723 59.4517C154.383 59.9859 153.993 60.487 153.559 60.9483L157.93 65.059ZM159.784 62.6742C160.239 61.9591 160.637 61.2093 160.975 60.4316L155.47 58.0444C155.258 58.5325 155.008 59.003 154.723 59.4517L159.784 62.6742ZM160.975 60.4316L161.292 59.699L155.788 57.3118L155.47 58.0444L160.975 60.4316ZM161.195 59.9015L161.292 59.7184L155.981 56.9262L155.885 57.1093L161.195 59.9015ZM161.292 59.7185C161.396 59.5191 161.583 59.3763 161.802 59.3274L160.492 53.4722C158.559 53.9048 156.907 55.1648 155.981 56.9262L161.292 59.7185ZM165.387 53.4873C164.076 53.5884 162.769 53.5632 161.482 53.4186L160.812 59.381C162.47 59.5674 164.156 59.6 165.848 59.4695L165.387 53.4873ZM164.898 59.3909C165.119 59.4454 165.305 59.5954 165.404 59.8007L170.804 57.1852C169.926 55.3716 168.286 54.0473 166.337 53.5659L164.898 59.3909ZM165.404 59.8007L165.494 59.9868L170.894 57.3713L170.804 57.1852L165.404 59.8007ZM165.404 59.7812L165.697 60.524L171.278 58.3196L170.984 57.5769L165.404 59.7812ZM165.697 60.524C166.009 61.3123 166.382 62.0749 166.813 62.8046L171.978 59.7508C171.707 59.2929 171.473 58.8144 171.278 58.3196L165.697 60.524ZM166.813 62.8046C167.327 63.6732 167.921 64.4917 168.588 65.2492L173.092 61.285C172.673 60.8096 172.3 60.2959 171.978 59.7508L166.813 62.8046ZM168.588 65.2492L169.562 66.3557L174.066 62.3914L173.092 61.285L168.588 65.2492ZM169.734 66.536L172.562 69.2551L176.721 64.9302L173.893 62.2111L169.734 66.536ZM175.744 69.8829L178.114 68.9466L175.91 63.3662L173.539 64.3025L175.744 69.8829ZM178.114 68.9466L180.484 68.0103L178.28 62.4299L175.91 63.3662L178.114 68.9466ZM182.378 65.3777L182.584 61.4602L176.592 61.1449L176.386 65.0624L182.378 65.3777ZM182.587 61.2106L182.542 59.7372L176.544 59.9211L176.59 61.3944L182.587 61.2106ZM182.542 59.7372C182.511 58.7286 182.385 57.725 182.166 56.7399L176.309 58.0401C176.446 58.6583 176.525 59.2881 176.544 59.9211L182.542 59.7372ZM182.166 56.7399C181.983 55.9124 181.734 55.1006 181.422 54.3123L175.842 56.5166C176.038 57.0114 176.194 57.5208 176.309 58.0401L182.166 56.7399ZM181.422 54.3123L181.11 53.5221L175.53 55.7265L175.842 56.5166L181.422 54.3123ZM181.187 53.7393L181.141 53.5903L175.408 55.3603L175.454 55.5093L181.187 53.7393ZM181.141 53.5903C181.073 53.3703 181.106 53.1317 181.231 52.9393L176.2 49.6697C175.107 51.352 174.814 53.4365 175.408 55.3602L181.141 53.5903ZM179.598 46.2985C178.769 47.2627 177.848 48.156 176.84 48.9632L180.592 53.6458C181.892 52.604 183.08 51.4518 184.148 50.2091L179.598 46.2985ZM183.461 50.7993C183.657 50.6769 183.898 50.6497 184.117 50.7257L186.086 45.0579C184.152 44.386 182.02 44.6267 180.285 45.7083L183.461 50.7993ZM184.117 50.7257L184.313 50.7936L186.282 45.1258L186.086 45.0579L184.117 50.7257ZM184.103 50.712L184.836 51.0297L187.223 45.5251L186.491 45.2074L184.103 50.712ZM184.836 51.0297C185.614 51.367 186.417 51.6423 187.238 51.8532L188.731 46.0419C188.215 45.9095 187.711 45.7367 187.223 45.5251L184.836 51.0297ZM187.238 51.8532C188.215 52.1043 189.214 52.263 190.221 52.3271L190.603 46.3393C189.971 46.299 189.344 46.1994 188.731 46.0419L187.238 51.8532ZM190.221 52.3271L191.692 52.4209L192.074 46.433L190.603 46.3393L190.221 52.3271ZM191.942 52.4264L195.864 52.3495L195.747 46.3507L191.824 46.4275L191.942 52.4264ZM198.558 50.5437L199.572 48.2056L194.067 45.8184L193.053 48.1565L198.558 50.5437ZM199.572 48.2056L200.586 45.8675L195.081 43.4803L194.067 45.8184L199.572 48.2056ZM200.063 42.667L197.439 39.7511L192.979 43.765L195.603 46.6809L200.063 42.667ZM197.264 39.5727L196.19 38.5628L192.08 42.9335L193.154 43.9434L197.264 39.5727ZM196.19 38.5628C195.455 37.8715 194.657 37.2507 193.806 36.7087L190.583 41.7699C191.117 42.1101 191.618 42.4996 192.08 42.9335L196.19 38.5628ZM193.806 36.7087C193.091 36.2535 192.341 35.8554 191.563 35.5181L189.176 41.0228C189.664 41.2344 190.134 41.4842 190.583 41.7699L193.806 36.7087ZM191.563 35.5181L190.784 35.1801L188.396 40.6847L189.176 41.0228L191.563 35.5181ZM190.991 35.2797L190.853 35.2069L188.051 40.5123L188.189 40.5851L190.991 35.2797ZM190.853 35.2069C190.646 35.0976 190.5 34.9007 190.455 34.6717L184.569 35.8339C184.964 37.8368 186.242 39.5569 188.051 40.5123L190.853 35.2069ZM184.59 31.0922C184.69 32.3799 184.667 33.6635 184.529 34.9278L190.494 35.5778C190.672 33.9483 190.701 32.2927 190.573 30.6308L184.59 31.0922ZM190.494 31.581C190.548 31.3605 190.698 31.1748 190.904 31.0754L188.288 25.6755C186.475 26.5539 185.151 28.1927 184.669 30.142L190.494 31.581ZM190.904 31.0754L191.09 30.9853L188.474 25.5854L188.288 25.6755L190.904 31.0754ZM190.884 31.0755L191.627 30.7821L189.422 25.2017L188.68 25.4951L190.884 31.0755ZM191.627 30.7821C192.415 30.4707 193.178 30.0975 193.907 29.6661L190.854 24.5014C190.396 24.7721 189.917 25.0063 189.422 25.2017L191.627 30.7821ZM193.907 29.6661C194.776 29.1525 195.595 28.5584 196.352 27.8917L192.388 23.3878C191.912 23.8062 191.399 24.1791 190.854 24.5014L193.907 29.6661ZM196.352 27.8917L197.459 26.9178L193.494 22.4139L192.388 23.3878L196.352 27.8917ZM197.639 26.7452L200.358 23.9174L196.033 19.7587L193.314 22.5865L197.639 26.7452ZM200.986 20.7359L200.049 18.3656L194.469 20.57L195.405 22.9402L200.986 20.7359ZM200.049 18.3656L199.113 15.9954L193.533 18.1997L194.469 20.57L200.049 18.3656ZM196.481 14.1017L192.563 13.8956L192.248 19.8873L196.165 20.0934L196.481 14.1017ZM192.313 13.8928L190.84 13.938L191.024 19.9352L192.497 19.89L192.313 13.8928ZM190.84 13.938C189.831 13.9689 188.828 14.0946 187.843 14.3132L189.143 20.1707C189.761 20.0334 190.391 19.9546 191.024 19.9352L190.84 13.938ZM187.843 14.3132C187.015 14.4969 186.204 14.7456 185.415 15.0571L187.62 20.6375C188.114 20.442 188.624 20.2859 189.143 20.1707L187.843 14.3132ZM185.415 15.0571L184.625 15.3692L186.829 20.9496L187.62 20.6375L185.415 15.0571ZM184.842 15.2929L184.693 15.3389L186.463 21.0719L186.612 21.0259L184.842 15.2929ZM184.693 15.3389C184.473 15.4068 184.235 15.3733 184.042 15.2483L180.773 20.2793C182.455 21.3725 184.539 21.6658 186.463 21.0719L184.693 15.3389ZM177.401 16.8815C178.365 17.7102 179.259 18.6318 180.066 19.6395L184.749 15.888C183.707 14.5875 182.554 13.3989 181.312 12.3309L177.401 16.8815ZM181.902 13.019C181.78 12.8228 181.752 12.5813 181.829 12.3624L176.161 10.3935C175.489 12.3274 175.729 14.4594 176.811 16.1934L181.902 13.019ZM181.829 12.3624L181.896 12.167L176.229 10.1982L176.161 10.3935L181.829 12.3624ZM181.815 12.3762L182.133 11.6436L176.628 9.25634L176.31 9.98901L181.815 12.3762ZM182.133 11.6436C182.47 10.8659 182.745 10.0628 182.956 9.24182L177.145 7.74912C177.012 8.26435 176.84 8.76832 176.628 9.25634L182.133 11.6436ZM182.956 9.24182C183.207 8.26441 183.366 7.26556 183.43 6.25846L177.442 5.87689C177.402 6.5089 177.302 7.13574 177.145 7.74912L182.956 9.24182ZM183.43 6.25846L183.524 4.7874L177.536 4.40584L177.442 5.8769L183.43 6.25846ZM183.529 4.53787L183.452 0.615623L177.454 0.733138L177.53 4.65538L183.529 4.53787ZM181.647 -2.07795L179.308 -3.0919L176.921 2.41275L179.259 3.42671L181.647 -2.07795ZM179.308 -3.0919L176.97 -4.10586L174.583 1.39879L176.921 2.41275L179.308 -3.0919ZM173.77 -3.5834L170.854 -0.959017L174.868 3.5007L177.784 0.876327L173.77 -3.5834ZM170.676 -0.78447L169.666 0.289282L174.036 4.39991L175.046 3.32616L170.676 -0.78447ZM169.666 0.289276C168.974 1.02438 168.354 1.82283 167.812 2.67408L172.873 5.89651C173.213 5.3623 173.602 4.86123 174.036 4.39991L169.666 0.289276ZM167.812 2.67408C167.356 3.3891 166.958 4.13893 166.621 4.9166L172.126 7.30381C172.337 6.81579 172.587 6.34522 172.873 5.8965L167.812 2.67408ZM166.621 4.91661L166.283 5.69604L171.788 8.08323L172.126 7.3038L166.621 4.91661ZM166.383 5.48842L166.31 5.62631L171.615 8.42875L171.688 8.29085L166.383 5.48842ZM166.31 5.62635C166.2 5.83328 166.004 5.97959 165.775 6.02483L166.937 11.9111C168.94 11.5155 170.66 10.2372 171.615 8.42871L166.31 5.62635ZM162.195 11.8894C163.483 11.7901 164.766 11.8125 166.031 11.9503L166.681 5.98563C165.051 5.80805 163.395 5.77898 161.733 5.90718L162.195 11.8894ZM162.684 5.98587C162.461 5.93086 162.273 5.77962 162.173 5.57255L156.778 8.19841C157.659 10.0084 159.297 11.3296 161.244 11.8107L162.684 5.98587ZM162.173 5.57258L162.104 5.43235L156.71 8.05816L156.778 8.19839L162.173 5.57258ZM162.197 5.64307L161.885 4.85292L156.305 7.05729L156.617 7.84744L162.197 5.64307ZM161.885 4.85292C161.574 4.06455 161.2 3.30199 160.769 2.57235L155.604 5.62611C155.875 6.084 156.109 6.56255 156.305 7.05729L161.885 4.85292ZM160.769 2.57235C160.255 1.70369 159.661 0.885207 158.995 0.127697L154.491 4.09195C154.909 4.56732 155.282 5.08096 155.604 5.6261L160.769 2.57235ZM158.995 0.127698L158.021 -0.97877L153.517 2.98548L154.491 4.09195L158.995 0.127698ZM157.848 -1.1591L155.02 -3.87823L150.862 0.446691L153.689 3.16581L157.848 -1.1591ZM151.839 -4.50596L149.469 -3.56967L151.673 2.01072L154.043 1.07443L151.839 -4.50596ZM149.469 -3.56967L147.098 -2.63337L149.303 2.94702L151.673 2.01072L149.469 -3.56967ZM145.205 -0.000818947L144.998 3.91676L150.99 4.23205L151.196 0.314466L145.205 -0.000818947ZM144.996 4.16634L145.041 5.63967L151.038 5.45581L150.993 3.98247L144.996 4.16634ZM145.041 5.63968C145.072 6.64835 145.197 7.65188 145.416 8.63705L151.274 7.33682C151.136 6.71858 151.058 6.0888 151.038 5.4558L145.041 5.63968ZM145.416 8.63705C145.6 9.46456 145.849 10.2763 146.16 11.0646L151.74 8.86027C151.545 8.36553 151.389 7.85613 151.274 7.33682L145.416 8.63705ZM146.16 11.0646L146.453 11.8074L152.034 9.60302L151.74 8.86027L146.16 11.0646ZM146.379 11.5956L146.44 11.7931L152.17 10.0122L152.108 9.81479L146.379 11.5956ZM146.44 11.7931C146.508 12.0109 146.475 12.2472 146.351 12.4377L151.382 15.7066C152.476 14.0229 152.768 11.9363 152.17 10.0122L146.44 11.7931ZM147.937 19.1335C148.778 18.1481 149.716 17.2361 150.743 16.4134L146.991 11.7309C145.666 12.7926 144.457 13.969 143.373 15.239L147.937 19.1335ZM144.133 14.601C143.938 14.7157 143.702 14.7398 143.487 14.6656L141.529 20.3371C143.408 20.9858 145.472 20.7753 147.177 19.7715L144.133 14.601ZM143.487 14.6656L143.34 14.6147L141.382 20.2862L141.529 20.3371L143.487 14.6656ZM143.554 14.6981L142.775 14.3601L140.388 19.8648L141.167 20.2028L143.554 14.6981ZM142.775 14.3601C141.997 14.0229 141.194 13.7475 140.373 13.5366L138.881 19.348C139.396 19.4803 139.9 19.6531 140.388 19.8648L142.775 14.3601ZM140.373 13.5366C139.396 13.2856 138.397 13.1269 137.39 13.0627L137.008 19.0506C137.64 19.0909 138.267 19.1904 138.881 19.348L140.373 13.5366ZM137.39 13.0627L135.919 12.969L135.537 18.9569L137.008 19.0506L137.39 13.0627ZM135.669 12.9635L131.747 13.0403L131.865 19.0392L135.787 18.9624L135.669 12.9635ZM129.054 14.8462L128.04 17.1842L133.544 19.5715L134.558 17.2334L129.054 14.8462ZM128.04 17.1842L127.026 19.5223L132.53 21.9095L133.544 19.5714L128.04 17.1842ZM127.548 22.7228L130.172 25.6388L134.632 21.6249L132.008 18.709L127.548 22.7228ZM130.347 25.8172L131.421 26.827L135.531 22.4564L134.458 21.4465L130.347 25.8172ZM131.421 26.827C132.156 27.5184 132.954 28.1392 133.806 28.6812L137.028 23.6199C136.494 23.2798 135.993 22.8902 135.531 22.4564L131.421 26.827ZM133.806 28.6812C134.521 29.1364 135.27 29.5345 136.048 29.8718L138.435 24.3671C137.947 24.1555 137.477 23.9056 137.028 23.6199L133.806 28.6812ZM136.048 29.8718L136.781 30.1895L139.168 24.6848L138.435 24.3671L136.048 29.8718ZM136.578 30.0925L136.761 30.1888L139.553 24.878L139.37 24.7818L136.578 30.0925ZM136.761 30.1887C136.961 30.2936 137.103 30.4806 137.152 30.6993L143.007 29.3886C142.575 27.4557 141.315 25.8041 139.553 24.878L136.761 30.1887Z" fill="#FF0000" mask="url(#path-2-outside-1_230_555)"/>
<path d="M21.38 38.68C21.94 39.36 22.5467 39.84 23.2 40.12C23.8667 40.4 24.5667 40.54 25.3 40.54C26.06 40.54 26.74 40.4067 27.34 40.14C27.9533 39.86 28.4733 39.4333 28.9 38.86C29.3267 38.2733 29.6533 37.5333 29.88 36.64C30.1067 35.7333 30.22 34.6533 30.22 33.4C30.22 31.1467 29.8467 29.52 29.1 28.52C28.3533 27.5067 27.28 27 25.88 27C24.9333 27 24.1067 27.22 23.4 27.66C22.6933 28.0867 22.02 28.6933 21.38 29.48V38.68ZM21.38 26C22.2067 25.1333 23.12 24.4467 24.12 23.94C25.1333 23.42 26.2867 23.16 27.58 23.16C28.7667 23.16 29.8333 23.3933 30.78 23.86C31.74 24.3267 32.5533 25 33.22 25.88C33.9 26.7467 34.42 27.8 34.78 29.04C35.14 30.28 35.32 31.6733 35.32 33.22C35.32 34.8867 35.1133 36.4 34.7 37.76C34.2867 39.12 33.6933 40.2867 32.92 41.26C32.16 42.22 31.24 42.9667 30.16 43.5C29.08 44.0333 27.88 44.3 26.56 44.3C25.92 44.3 25.34 44.2333 24.82 44.1C24.3 43.98 23.82 43.8067 23.38 43.58C22.94 43.3533 22.5333 43.08 22.16 42.76C21.8 42.4267 21.4533 42.06 21.12 41.66L20.9 43.04C20.82 43.3867 20.68 43.6333 20.48 43.78C20.2933 43.9267 20.0333 44 19.7 44H16.44V14.28H21.38V26ZM39.1353 44V23.48H42.1553C42.7953 23.48 43.2153 23.78 43.4153 24.38L43.7353 25.9C44.0953 25.5 44.4686 25.1333 44.8553 24.8C45.2553 24.4667 45.6753 24.18 46.1153 23.94C46.5686 23.7 47.0486 23.5133 47.5553 23.38C48.0753 23.2333 48.642 23.16 49.2553 23.16C50.5486 23.16 51.6086 23.5133 52.4353 24.22C53.2753 24.9133 53.902 25.84 54.3153 27C54.6353 26.32 55.0353 25.74 55.5153 25.26C55.9953 24.7667 56.522 24.3667 57.0953 24.06C57.6686 23.7533 58.2753 23.5267 58.9153 23.38C59.5686 23.2333 60.222 23.16 60.8753 23.16C62.0086 23.16 63.0153 23.3333 63.8953 23.68C64.7753 24.0267 65.5153 24.5333 66.1153 25.2C66.7153 25.8667 67.1686 26.68 67.4753 27.64C67.7953 28.6 67.9553 29.7 67.9553 30.94V44H63.0153V30.94C63.0153 29.6333 62.7286 28.6533 62.1553 28C61.582 27.3333 60.742 27 59.6353 27C59.1286 27 58.6553 27.0867 58.2153 27.26C57.7886 27.4333 57.4086 27.6867 57.0753 28.02C56.7553 28.34 56.502 28.7467 56.3153 29.24C56.1286 29.7333 56.0353 30.3 56.0353 30.94V44H51.0753V30.94C51.0753 29.5667 50.7953 28.5667 50.2353 27.94C49.6886 27.3133 48.882 27 47.8153 27C47.0953 27 46.422 27.18 45.7953 27.54C45.182 27.8867 44.6086 28.3667 44.0753 28.98V44H39.1353ZM85.1709 27.48C85.0376 27.6933 84.8976 27.8467 84.7509 27.94C84.6043 28.02 84.4176 28.06 84.1909 28.06C83.9509 28.06 83.6909 27.9933 83.4109 27.86C83.1443 27.7267 82.8309 27.58 82.4709 27.42C82.1109 27.2467 81.6976 27.0933 81.2309 26.96C80.7776 26.8267 80.2376 26.76 79.6109 26.76C78.6376 26.76 77.8709 26.9667 77.3109 27.38C76.7643 27.7933 76.4909 28.3333 76.4909 29C76.4909 29.44 76.6309 29.8133 76.9109 30.12C77.2043 30.4133 77.5843 30.6733 78.0509 30.9C78.5309 31.1267 79.0709 31.3333 79.6709 31.52C80.2709 31.6933 80.8776 31.8867 81.4909 32.1C82.1176 32.3133 82.7309 32.56 83.3309 32.84C83.9309 33.1067 84.4643 33.4533 84.9309 33.88C85.4109 34.2933 85.7909 34.7933 86.0709 35.38C86.3643 35.9667 86.5109 36.6733 86.5109 37.5C86.5109 38.4867 86.3309 39.4 85.9709 40.24C85.6243 41.0667 85.1043 41.7867 84.4109 42.4C83.7176 43 82.8576 43.4733 81.8309 43.82C80.8176 44.1533 79.6443 44.32 78.3109 44.32C77.6043 44.32 76.9109 44.2533 76.2309 44.12C75.5643 44 74.9176 43.8267 74.2909 43.6C73.6776 43.3733 73.1043 43.1067 72.5709 42.8C72.0509 42.4933 71.5909 42.16 71.1909 41.8L72.3309 39.92C72.4776 39.6933 72.6509 39.52 72.8509 39.4C73.0509 39.28 73.3043 39.22 73.6109 39.22C73.9176 39.22 74.2043 39.3067 74.4709 39.48C74.7509 39.6533 75.0709 39.84 75.4309 40.04C75.7909 40.24 76.2109 40.4267 76.6909 40.6C77.1843 40.7733 77.8043 40.86 78.5509 40.86C79.1376 40.86 79.6376 40.7933 80.0509 40.66C80.4776 40.5133 80.8243 40.3267 81.0909 40.1C81.3709 39.8733 81.5709 39.6133 81.6909 39.32C81.8243 39.0133 81.8909 38.7 81.8909 38.38C81.8909 37.9 81.7443 37.5067 81.4509 37.2C81.1709 36.8933 80.7909 36.6267 80.3109 36.4C79.8443 36.1733 79.3043 35.9733 78.6909 35.8C78.0909 35.6133 77.4709 35.4133 76.8309 35.2C76.2043 34.9867 75.5843 34.74 74.9709 34.46C74.3709 34.1667 73.8309 33.8 73.3509 33.36C72.8843 32.92 72.5043 32.38 72.2109 31.74C71.9309 31.1 71.7909 30.3267 71.7909 29.42C71.7909 28.58 71.9576 27.78 72.2909 27.02C72.6243 26.26 73.1109 25.6 73.7509 25.04C74.4043 24.4667 75.2109 24.0133 76.1709 23.68C77.1443 23.3333 78.2643 23.16 79.5309 23.16C80.9443 23.16 82.2309 23.3933 83.3909 23.86C84.5509 24.3267 85.5176 24.94 86.2909 25.7L85.1709 27.48ZM97.0691 44.32C95.2824 44.32 93.9091 43.82 92.9491 42.82C92.0024 41.8067 91.5291 40.4133 91.5291 38.64V27.18H89.4291C89.1624 27.18 88.9357 27.0933 88.7491 26.92C88.5624 26.7467 88.4691 26.4867 88.4691 26.14V24.18L91.7691 23.64L92.8091 18.04C92.8757 17.7733 93.0024 17.5667 93.1891 17.42C93.3757 17.2733 93.6157 17.2 93.9091 17.2H96.4691V23.66H101.949V27.18H96.4691V38.3C96.4691 38.94 96.6224 39.44 96.9291 39.8C97.2491 40.16 97.6824 40.34 98.2291 40.34C98.5357 40.34 98.7891 40.3067 98.9891 40.24C99.2024 40.16 99.3824 40.08 99.5291 40C99.6891 39.92 99.8291 39.8467 99.9491 39.78C100.069 39.7 100.189 39.66 100.309 39.66C100.456 39.66 100.576 39.7 100.669 39.78C100.762 39.8467 100.862 39.9533 100.969 40.1L102.449 42.5C101.729 43.1 100.902 43.5533 99.9691 43.86C99.0357 44.1667 98.0691 44.32 97.0691 44.32ZM122.792 23.48V44H119.772C119.119 44 118.705 43.7 118.532 43.1L118.192 41.46C117.352 42.3133 116.425 43.0067 115.412 43.54C114.399 44.06 113.205 44.32 111.832 44.32C110.712 44.32 109.719 44.1333 108.852 43.76C107.999 43.3733 107.279 42.8333 106.692 42.14C106.105 41.4467 105.659 40.6267 105.352 39.68C105.059 38.72 104.912 37.6667 104.912 36.52V23.48H109.852V36.52C109.852 37.7733 110.139 38.7467 110.712 39.44C111.299 40.12 112.172 40.46 113.332 40.46C114.185 40.46 114.985 40.2733 115.732 39.9C116.479 39.5133 117.185 38.9867 117.852 38.32V23.48H122.792ZM136.697 41.28C136.697 40.8667 136.77 40.4733 136.917 40.1C137.077 39.7267 137.29 39.4067 137.557 39.14C137.823 38.8733 138.143 38.66 138.517 38.5C138.89 38.34 139.29 38.26 139.717 38.26C140.143 38.26 140.537 38.34 140.897 38.5C141.27 38.66 141.59 38.8733 141.857 39.14C142.137 39.4067 142.357 39.7267 142.517 40.1C142.677 40.4733 142.757 40.8667 142.757 41.28C142.757 41.7067 142.677 42.1067 142.517 42.48C142.357 42.84 142.137 43.1533 141.857 43.42C141.59 43.6867 141.27 43.8933 140.897 44.04C140.537 44.2 140.143 44.28 139.717 44.28C139.29 44.28 138.89 44.2 138.517 44.04C138.143 43.8933 137.823 43.6867 137.557 43.42C137.29 43.1533 137.077 42.84 136.917 42.48C136.77 42.1067 136.697 41.7067 136.697 41.28ZM154.409 33.24C155.022 33.24 155.555 33.16 156.009 33C156.462 32.8267 156.835 32.5933 157.129 32.3C157.435 32.0067 157.662 31.6533 157.809 31.24C157.969 30.8267 158.049 30.3733 158.049 29.88C158.049 28.8667 157.742 28.0667 157.129 27.48C156.529 26.88 155.622 26.58 154.409 26.58C153.195 26.58 152.282 26.88 151.669 27.48C151.069 28.0667 150.769 28.8667 150.769 29.88C150.769 30.36 150.842 30.8067 150.989 31.22C151.149 31.6333 151.375 31.9933 151.669 32.3C151.975 32.5933 152.355 32.8267 152.809 33C153.275 33.16 153.809 33.24 154.409 33.24ZM159.989 44.92C159.989 44.52 159.869 44.1933 159.629 43.94C159.389 43.6867 159.062 43.4933 158.649 43.36C158.235 43.2133 157.749 43.1067 157.189 43.04C156.642 42.9733 156.055 42.9267 155.429 42.9C154.815 42.86 154.175 42.8267 153.509 42.8C152.855 42.7733 152.215 42.72 151.589 42.64C151.042 42.9467 150.595 43.3067 150.249 43.72C149.915 44.1333 149.749 44.6133 149.749 45.16C149.749 45.52 149.835 45.8533 150.009 46.16C150.195 46.48 150.482 46.7533 150.869 46.98C151.269 47.2067 151.782 47.38 152.409 47.5C153.035 47.6333 153.802 47.7 154.709 47.7C155.629 47.7 156.422 47.6267 157.089 47.48C157.755 47.3467 158.302 47.1533 158.729 46.9C159.169 46.66 159.489 46.3667 159.689 46.02C159.889 45.6867 159.989 45.32 159.989 44.92ZM164.909 24.18V26.02C164.909 26.6067 164.555 26.9667 163.849 27.1L162.009 27.44C162.289 28.1467 162.429 28.92 162.429 29.76C162.429 30.7733 162.222 31.6933 161.809 32.52C161.409 33.3333 160.849 34.0267 160.129 34.6C159.409 35.1733 158.555 35.62 157.569 35.94C156.595 36.2467 155.542 36.4 154.409 36.4C154.009 36.4 153.622 36.38 153.249 36.34C152.875 36.3 152.509 36.2467 152.149 36.18C151.509 36.5667 151.189 37 151.189 37.48C151.189 37.8933 151.375 38.2 151.749 38.4C152.135 38.5867 152.642 38.72 153.269 38.8C153.895 38.88 154.609 38.9333 155.409 38.96C156.209 38.9733 157.029 39.0133 157.869 39.08C158.709 39.1467 159.529 39.2667 160.329 39.44C161.129 39.6 161.842 39.86 162.469 40.22C163.095 40.58 163.595 41.0733 163.969 41.7C164.355 42.3133 164.549 43.1067 164.549 44.08C164.549 44.9867 164.322 45.8667 163.869 46.72C163.429 47.5733 162.782 48.3333 161.929 49C161.089 49.6667 160.049 50.2 158.809 50.6C157.582 51.0133 156.182 51.22 154.609 51.22C153.062 51.22 151.715 51.0667 150.569 50.76C149.422 50.4667 148.469 50.0667 147.709 49.56C146.949 49.0667 146.382 48.4933 146.009 47.84C145.635 47.1867 145.449 46.5067 145.449 45.8C145.449 44.84 145.735 44.04 146.309 43.4C146.895 42.7467 147.695 42.2267 148.709 41.84C148.162 41.56 147.729 41.1867 147.409 40.72C147.089 40.2533 146.929 39.64 146.929 38.88C146.929 38.5733 146.982 38.26 147.089 37.94C147.209 37.6067 147.375 37.28 147.589 36.96C147.815 36.64 148.095 36.34 148.429 36.06C148.762 35.7667 149.155 35.5067 149.609 35.28C148.569 34.72 147.749 33.9733 147.149 33.04C146.562 32.1067 146.269 31.0133 146.269 29.76C146.269 28.7467 146.469 27.8333 146.869 27.02C147.282 26.1933 147.849 25.4933 148.569 24.92C149.302 24.3333 150.162 23.8867 151.149 23.58C152.149 23.2733 153.235 23.12 154.409 23.12C155.289 23.12 156.115 23.2133 156.889 23.4C157.662 23.5733 158.369 23.8333 159.009 24.18H164.909ZM176.77 23.16C178.29 23.16 179.67 23.4067 180.91 23.9C182.163 24.3933 183.23 25.0933 184.11 26C185.003 26.9067 185.69 28.0133 186.17 29.32C186.65 30.6267 186.89 32.0867 186.89 33.7C186.89 35.3267 186.65 36.7933 186.17 38.1C185.69 39.4067 185.003 40.52 184.11 41.44C183.23 42.36 182.163 43.0667 180.91 43.56C179.67 44.0533 178.29 44.3 176.77 44.3C175.237 44.3 173.843 44.0533 172.59 43.56C171.337 43.0667 170.263 42.36 169.37 41.44C168.49 40.52 167.803 39.4067 167.31 38.1C166.83 36.7933 166.59 35.3267 166.59 33.7C166.59 32.0867 166.83 30.6267 167.31 29.32C167.803 28.0133 168.49 26.9067 169.37 26C170.263 25.0933 171.337 24.3933 172.59 23.9C173.843 23.4067 175.237 23.16 176.77 23.16ZM176.77 40.5C178.477 40.5 179.737 39.9267 180.55 38.78C181.377 37.6333 181.79 35.9533 181.79 33.74C181.79 31.5267 181.377 29.84 180.55 28.68C179.737 27.52 178.477 26.94 176.77 26.94C175.037 26.94 173.75 27.5267 172.91 28.7C172.083 29.86 171.67 31.54 171.67 33.74C171.67 35.94 172.083 37.62 172.91 38.78C173.75 39.9267 175.037 40.5 176.77 40.5Z" fill="white"/>
</g>
</svg>
