<svg width="1291" height="1291" viewBox="0 0 1291 1291" fill="none" xmlns="http://www.w3.org/2000/svg">
<mask id="path-1-outside-1_212_605" maskUnits="userSpaceOnUse" x="-249.617" y="-249.948" width="1791.38" height="1791.38" fill="black">
<rect fill="white" x="-249.617" y="-249.948" width="1791.38" height="1791.38"/>
<path fill-rule="evenodd" clip-rule="evenodd" d="M1077.79 631.935C1077.72 631.75 1077.69 631.558 1077.68 631.363C1076.85 604.652 1073.53 577.865 1067.62 551.352C1067.58 551.164 1067.56 550.97 1067.58 550.778L1068.99 530.269C1069.44 523.832 1072.82 517.956 1078.16 514.335L1099.55 499.829L1126.71 484.315C1128.36 483.375 1129.92 482.308 1131.4 481.121L1158.57 459.294C1160.33 457.882 1161.95 456.307 1163.41 454.591L1193.02 419.885L1233.68 363.283C1234.14 362.648 1234.18 361.804 1233.79 361.124L1211.56 322.203L1189.32 283.281C1188.93 282.601 1188.19 282.21 1187.41 282.281L1117.99 288.562L1073.06 296.436C1070.84 296.825 1068.66 297.422 1066.55 298.219L1033.95 310.537C1032.18 311.207 1030.46 312.015 1028.82 312.955L1002.46 328.011L978.312 339.504C972.472 342.282 965.678 342.216 959.894 339.323L941.531 330.139C941.358 330.052 941.199 329.941 941.058 329.809C921.215 311.246 899.821 294.773 877.226 280.488C877.061 280.384 876.913 280.256 876.785 280.11L863.848 265.253C859.611 260.386 857.846 253.842 859.062 247.504L863.934 222.118L872.166 191.945C872.665 190.118 873.019 188.254 873.224 186.371L877.001 151.725C877.246 149.483 877.279 147.223 877.101 144.975L873.492 99.5012L862.223 30.7236C862.097 29.9512 861.531 29.3235 860.776 29.1175L817.532 17.3181L774.287 5.51864C773.532 5.3126 772.726 5.566 772.225 6.1671L727.585 59.6897L701.381 97.0291C700.086 98.8749 698.966 100.838 698.038 102.894L683.696 134.657C682.916 136.383 682.274 138.169 681.776 139.996L673.786 169.279L664.836 194.481C662.671 200.576 657.82 205.333 651.685 207.377L633.006 213.601C632.821 213.662 632.629 213.697 632.434 213.703C605.722 214.534 578.936 217.857 552.422 223.768C552.234 223.81 552.04 223.825 551.848 223.812L531.365 222.397C524.914 221.951 519.027 218.558 515.408 213.198L500.442 191.033L485.386 164.677C484.446 163.032 483.378 161.464 482.192 159.987L460.365 132.818C458.953 131.06 457.378 129.439 455.662 127.975L420.956 98.3718L364.354 57.7072C363.719 57.2505 362.875 57.2066 362.195 57.5949L323.273 79.8298L284.352 102.065C283.672 102.453 283.281 103.202 283.352 103.982L289.633 173.393L297.507 218.325C297.896 220.546 298.493 222.726 299.29 224.835L311.608 257.437C312.278 259.209 313.086 260.925 314.026 262.57L329.54 289.727L340.603 313.09C343.364 318.922 343.292 325.7 340.405 331.471L331.21 349.856C331.123 350.028 331.013 350.188 330.881 350.329C312.705 369.757 296.534 390.672 282.457 412.747C282.354 412.909 282.228 413.055 282.083 413.181L265.799 427.361C260.921 431.607 254.36 433.37 248.011 432.139L221.755 427.049L192.472 419.059C190.645 418.56 188.781 418.207 186.898 418.001L152.252 414.224C150.01 413.979 147.75 413.946 145.502 414.124L100.028 417.733L31.2509 429.002C30.4784 429.129 29.8508 429.694 29.6448 430.449L17.8453 473.694L6.04587 516.938C5.83983 517.693 6.09323 518.499 6.69434 519L60.217 563.64L97.5563 589.844C99.4022 591.14 101.366 592.259 103.421 593.187L135.184 607.529C136.911 608.309 138.696 608.951 140.523 609.45L170.696 617.682L195.039 626.38C201.115 628.551 205.856 633.395 207.896 639.517L214.726 660.013C214.786 660.195 214.821 660.385 214.827 660.577C215.74 686.75 219.048 712.988 224.839 738.964C224.881 739.153 224.896 739.346 224.883 739.539L223.468 760.022C223.022 766.474 219.628 772.36 214.269 775.979L192.104 790.945L165.748 806.001C164.103 806.941 162.535 808.009 161.058 809.195L133.889 831.023C132.131 832.435 130.509 834.009 129.046 835.725L99.4426 870.431L58.778 927.033C58.3213 927.669 58.2774 928.512 58.6656 929.192L80.9006 968.114L103.135 1007.04C103.524 1007.72 104.273 1008.11 105.052 1008.04L174.463 1001.75L219.396 993.881C221.617 993.491 223.797 992.894 225.906 992.097L258.508 979.779C260.28 979.11 261.996 978.301 263.641 977.362L290.798 961.848L314.16 950.785C319.992 948.023 326.77 948.096 332.542 950.982L350.928 960.178C351.1 960.264 351.259 960.375 351.4 960.507C370.829 978.683 391.744 994.854 413.818 1008.93C413.98 1009.03 414.126 1009.16 414.252 1009.3L428.432 1025.59C432.678 1030.47 434.441 1037.03 433.21 1043.38L428.12 1069.63L420.13 1098.91C419.631 1100.74 419.278 1102.61 419.072 1104.49L415.295 1139.14C415.05 1141.38 415.017 1143.64 415.195 1145.88L418.804 1191.36L430.073 1260.14C430.2 1260.91 430.765 1261.54 431.52 1261.74L474.765 1273.54L518.009 1285.34C518.764 1285.55 519.57 1285.29 520.071 1284.69L564.711 1231.17L590.915 1193.83C592.211 1191.99 593.33 1190.02 594.258 1187.97L608.6 1156.2C609.38 1154.48 610.022 1152.69 610.521 1150.86L618.753 1120.69L627.451 1096.35C629.622 1090.27 634.466 1085.53 640.588 1083.49L661.084 1076.66C661.266 1076.6 661.456 1076.57 661.648 1076.56C687.821 1075.65 714.059 1072.34 740.035 1066.55C740.223 1066.51 740.416 1066.49 740.609 1066.5L761.118 1067.92C767.556 1068.37 773.431 1071.75 777.052 1077.09L791.559 1098.48L807.072 1125.64C808.012 1127.28 809.08 1128.85 810.266 1130.33L832.093 1157.5C833.506 1159.26 835.08 1160.88 836.796 1162.34L871.502 1191.94L928.104 1232.61C928.74 1233.07 929.583 1233.11 930.263 1232.72L969.185 1210.49L1008.11 1188.25C1008.79 1187.86 1009.18 1187.11 1009.11 1186.34L1002.83 1116.92L994.952 1071.99C994.562 1069.77 993.965 1067.59 993.168 1065.48L980.85 1032.88C980.181 1031.11 979.372 1029.39 978.433 1027.75L963.376 1001.39L951.884 977.241C949.105 971.402 949.172 964.607 952.064 958.824L961.249 940.46C961.335 940.287 961.446 940.128 961.578 939.987C980.142 920.144 996.614 898.75 1010.9 876.155C1011 875.991 1011.13 875.842 1011.28 875.714L1026.13 862.777C1031 858.54 1037.55 856.775 1043.88 857.991L1069.27 862.863L1099.44 871.096C1101.27 871.594 1103.13 871.948 1105.02 872.153L1139.66 875.931C1141.9 876.175 1144.16 876.208 1146.41 876.03L1191.89 872.421L1260.66 861.152C1261.44 861.026 1262.06 860.46 1262.27 859.705L1274.07 816.461L1285.87 773.216C1286.07 772.461 1285.82 771.655 1285.22 771.154L1231.7 726.514L1194.36 700.31C1192.51 699.015 1190.55 697.896 1188.49 696.967L1156.73 682.625C1155 681.845 1153.22 681.203 1151.39 680.705L1122.11 672.715L1096.91 663.765C1090.81 661.601 1086.05 656.749 1084.01 650.614L1077.79 631.935Z"/>
</mask>
<path fill-rule="evenodd" clip-rule="evenodd" d="M1077.79 631.935C1077.72 631.75 1077.69 631.558 1077.68 631.363C1076.85 604.652 1073.53 577.865 1067.62 551.352C1067.58 551.164 1067.56 550.97 1067.58 550.778L1068.99 530.269C1069.44 523.832 1072.82 517.956 1078.16 514.335L1099.55 499.829L1126.71 484.315C1128.36 483.375 1129.92 482.308 1131.4 481.121L1158.57 459.294C1160.33 457.882 1161.95 456.307 1163.41 454.591L1193.02 419.885L1233.68 363.283C1234.14 362.648 1234.18 361.804 1233.79 361.124L1211.56 322.203L1189.32 283.281C1188.93 282.601 1188.19 282.21 1187.41 282.281L1117.99 288.562L1073.06 296.436C1070.84 296.825 1068.66 297.422 1066.55 298.219L1033.95 310.537C1032.18 311.207 1030.46 312.015 1028.82 312.955L1002.46 328.011L978.312 339.504C972.472 342.282 965.678 342.216 959.894 339.323L941.531 330.139C941.358 330.052 941.199 329.941 941.058 329.809C921.215 311.246 899.821 294.773 877.226 280.488C877.061 280.384 876.913 280.256 876.785 280.11L863.848 265.253C859.611 260.386 857.846 253.842 859.062 247.504L863.934 222.118L872.166 191.945C872.665 190.118 873.019 188.254 873.224 186.371L877.001 151.725C877.246 149.483 877.279 147.223 877.101 144.975L873.492 99.5012L862.223 30.7236C862.097 29.9512 861.531 29.3235 860.776 29.1175L817.532 17.3181L774.287 5.51864C773.532 5.3126 772.726 5.566 772.225 6.1671L727.585 59.6897L701.381 97.0291C700.086 98.8749 698.966 100.838 698.038 102.894L683.696 134.657C682.916 136.383 682.274 138.169 681.776 139.996L673.786 169.279L664.836 194.481C662.671 200.576 657.82 205.333 651.685 207.377L633.006 213.601C632.821 213.662 632.629 213.697 632.434 213.703C605.722 214.534 578.936 217.857 552.422 223.768C552.234 223.81 552.04 223.825 551.848 223.812L531.365 222.397C524.914 221.951 519.027 218.558 515.408 213.198L500.442 191.033L485.386 164.677C484.446 163.032 483.378 161.464 482.192 159.987L460.365 132.818C458.953 131.06 457.378 129.439 455.662 127.975L420.956 98.3718L364.354 57.7072C363.719 57.2505 362.875 57.2066 362.195 57.5949L323.273 79.8298L284.352 102.065C283.672 102.453 283.281 103.202 283.352 103.982L289.633 173.393L297.507 218.325C297.896 220.546 298.493 222.726 299.29 224.835L311.608 257.437C312.278 259.209 313.086 260.925 314.026 262.57L329.54 289.727L340.603 313.09C343.364 318.922 343.292 325.7 340.405 331.471L331.21 349.856C331.123 350.028 331.013 350.188 330.881 350.329C312.705 369.757 296.534 390.672 282.457 412.747C282.354 412.909 282.228 413.055 282.083 413.181L265.799 427.361C260.921 431.607 254.36 433.37 248.011 432.139L221.755 427.049L192.472 419.059C190.645 418.56 188.781 418.207 186.898 418.001L152.252 414.224C150.01 413.979 147.75 413.946 145.502 414.124L100.028 417.733L31.2509 429.002C30.4784 429.129 29.8508 429.694 29.6448 430.449L17.8453 473.694L6.04587 516.938C5.83983 517.693 6.09323 518.499 6.69434 519L60.217 563.64L97.5563 589.844C99.4022 591.14 101.366 592.259 103.421 593.187L135.184 607.529C136.911 608.309 138.696 608.951 140.523 609.45L170.696 617.682L195.039 626.38C201.115 628.551 205.856 633.395 207.896 639.517L214.726 660.013C214.786 660.195 214.821 660.385 214.827 660.577C215.74 686.75 219.048 712.988 224.839 738.964C224.881 739.153 224.896 739.346 224.883 739.539L223.468 760.022C223.022 766.474 219.628 772.36 214.269 775.979L192.104 790.945L165.748 806.001C164.103 806.941 162.535 808.009 161.058 809.195L133.889 831.023C132.131 832.435 130.509 834.009 129.046 835.725L99.4426 870.431L58.778 927.033C58.3213 927.669 58.2774 928.512 58.6656 929.192L80.9006 968.114L103.135 1007.04C103.524 1007.72 104.273 1008.11 105.052 1008.04L174.463 1001.75L219.396 993.881C221.617 993.491 223.797 992.894 225.906 992.097L258.508 979.779C260.28 979.11 261.996 978.301 263.641 977.362L290.798 961.848L314.16 950.785C319.992 948.023 326.77 948.096 332.542 950.982L350.928 960.178C351.1 960.264 351.259 960.375 351.4 960.507C370.829 978.683 391.744 994.854 413.818 1008.93C413.98 1009.03 414.126 1009.16 414.252 1009.3L428.432 1025.59C432.678 1030.47 434.441 1037.03 433.21 1043.38L428.12 1069.63L420.13 1098.91C419.631 1100.74 419.278 1102.61 419.072 1104.49L415.295 1139.14C415.05 1141.38 415.017 1143.64 415.195 1145.88L418.804 1191.36L430.073 1260.14C430.2 1260.91 430.765 1261.54 431.52 1261.74L474.765 1273.54L518.009 1285.34C518.764 1285.55 519.57 1285.29 520.071 1284.69L564.711 1231.17L590.915 1193.83C592.211 1191.99 593.33 1190.02 594.258 1187.97L608.6 1156.2C609.38 1154.48 610.022 1152.69 610.521 1150.86L618.753 1120.69L627.451 1096.35C629.622 1090.27 634.466 1085.53 640.588 1083.49L661.084 1076.66C661.266 1076.6 661.456 1076.57 661.648 1076.56C687.821 1075.65 714.059 1072.34 740.035 1066.55C740.223 1066.51 740.416 1066.49 740.609 1066.5L761.118 1067.92C767.556 1068.37 773.431 1071.75 777.052 1077.09L791.559 1098.48L807.072 1125.64C808.012 1127.28 809.08 1128.85 810.266 1130.33L832.093 1157.5C833.506 1159.26 835.08 1160.88 836.796 1162.34L871.502 1191.94L928.104 1232.61C928.74 1233.07 929.583 1233.11 930.263 1232.72L969.185 1210.49L1008.11 1188.25C1008.79 1187.86 1009.18 1187.11 1009.11 1186.34L1002.83 1116.92L994.952 1071.99C994.562 1069.77 993.965 1067.59 993.168 1065.48L980.85 1032.88C980.181 1031.11 979.372 1029.39 978.433 1027.75L963.376 1001.39L951.884 977.241C949.105 971.402 949.172 964.607 952.064 958.824L961.249 940.46C961.335 940.287 961.446 940.128 961.578 939.987C980.142 920.144 996.614 898.75 1010.9 876.155C1011 875.991 1011.13 875.842 1011.28 875.714L1026.13 862.777C1031 858.54 1037.55 856.775 1043.88 857.991L1069.27 862.863L1099.44 871.096C1101.27 871.594 1103.13 871.948 1105.02 872.153L1139.66 875.931C1141.9 876.175 1144.16 876.208 1146.41 876.03L1191.89 872.421L1260.66 861.152C1261.44 861.026 1262.06 860.46 1262.27 859.705L1274.07 816.461L1285.87 773.216C1286.07 772.461 1285.82 771.655 1285.22 771.154L1231.7 726.514L1194.36 700.31C1192.51 699.015 1190.55 697.896 1188.49 696.967L1156.73 682.625C1155 681.845 1153.22 681.203 1151.39 680.705L1122.11 672.715L1096.91 663.765C1090.81 661.601 1086.05 656.749 1084.01 650.614L1077.79 631.935Z" fill="#FDC637" fill-opacity="0.24"/>
<path d="M1068.99 530.269L1064 529.925L1064 529.925L1068.99 530.269ZM1078.16 514.335L1075.35 510.197L1075.35 510.197L1078.16 514.335ZM1099.55 499.829L1097.07 495.487L1096.91 495.583L1096.75 495.69L1099.55 499.829ZM1126.71 484.315L1129.19 488.657L1126.71 484.315ZM1131.4 481.121L1134.53 485.019L1134.53 485.019L1131.4 481.121ZM1158.57 459.294L1161.7 463.192L1161.7 463.192L1158.57 459.294ZM1163.41 454.591L1159.61 451.347L1159.61 451.347L1163.41 454.591ZM1193.02 419.885L1196.82 423.13L1196.95 422.971L1197.08 422.802L1193.02 419.885ZM1117.99 288.562L1117.54 283.583L1117.34 283.601L1117.13 283.637L1117.99 288.562ZM1073.06 296.436L1073.93 301.361L1073.93 301.361L1073.06 296.436ZM1066.55 298.219L1068.32 302.896L1068.32 302.896L1066.55 298.219ZM1033.95 310.537L1032.18 305.86L1032.18 305.86L1033.95 310.537ZM1002.46 328.011L1004.61 332.526L1004.78 332.446L1004.94 332.353L1002.46 328.011ZM978.312 339.504L976.163 334.989L976.163 334.989L978.312 339.504ZM959.894 339.323L957.658 343.795L957.658 343.795L959.894 339.323ZM863.848 265.253L867.619 261.969L867.619 261.969L863.848 265.253ZM859.062 247.504L854.151 246.562L854.151 246.562L859.062 247.504ZM863.934 222.118L859.11 220.801L859.059 220.987L859.023 221.175L863.934 222.118ZM872.166 191.945L867.343 190.629L867.343 190.629L872.166 191.945ZM873.224 186.371L878.195 186.913L878.195 186.913L873.224 186.371ZM877.001 151.725L881.972 152.267L881.972 152.267L877.001 151.725ZM877.101 144.975L872.116 145.371L872.116 145.371L877.101 144.975ZM873.492 99.5012L878.477 99.1057L878.46 98.8982L878.427 98.6927L873.492 99.5012ZM817.532 17.3181L816.215 22.1417L816.215 22.1417L817.532 17.3181ZM727.585 59.6897L723.746 56.4872L723.612 56.6471L723.493 56.8175L727.585 59.6897ZM701.381 97.0291L697.288 94.1568L697.288 94.1569L701.381 97.0291ZM698.038 102.894L702.595 104.951L702.595 104.951L698.038 102.894ZM683.696 134.657L688.253 136.715L688.253 136.715L683.696 134.657ZM681.776 139.996L676.952 138.68L676.952 138.68L681.776 139.996ZM673.786 169.279L678.497 170.952L678.56 170.776L678.609 170.595L673.786 169.279ZM664.836 194.481L660.124 192.808L660.124 192.808L664.836 194.481ZM651.685 207.377L653.265 212.121L653.265 212.121L651.685 207.377ZM531.365 222.397L531.021 227.385L531.021 227.385L531.365 222.397ZM515.408 213.198L519.552 210.4L519.552 210.4L515.408 213.198ZM500.442 191.033L496.101 193.513L496.194 193.676L496.299 193.831L500.442 191.033ZM485.386 164.677L481.045 167.157L485.386 164.677ZM482.192 159.987L486.09 156.856L486.09 156.856L482.192 159.987ZM460.365 132.818L464.263 129.687L464.263 129.687L460.365 132.818ZM455.662 127.975L452.418 131.779L452.418 131.779L455.662 127.975ZM420.956 98.3718L424.201 94.5677L424.042 94.4326L423.873 94.3111L420.956 98.3718ZM289.633 173.393L284.654 173.843L284.672 174.051L284.708 174.256L289.633 173.393ZM297.507 218.325L302.432 217.462L302.432 217.462L297.507 218.325ZM299.29 224.835L294.613 226.603L294.613 226.603L299.29 224.835ZM311.608 257.437L306.931 259.204L306.931 259.204L311.608 257.437ZM329.54 289.727L334.059 287.587L333.976 287.413L333.881 287.247L329.54 289.727ZM340.603 313.09L345.122 310.95L345.122 310.95L340.603 313.09ZM340.405 331.471L344.877 333.707L344.877 333.707L340.405 331.471ZM265.799 427.361L269.082 431.132L269.082 431.131L265.799 427.361ZM248.011 432.139L248.962 427.231L248.962 427.231L248.011 432.139ZM221.755 427.049L220.439 431.872L220.62 431.922L220.804 431.957L221.755 427.049ZM192.472 419.059L191.156 423.882L191.156 423.882L192.472 419.059ZM186.898 418.001L186.356 422.972L186.356 422.972L186.898 418.001ZM152.252 414.224L152.794 409.253L152.794 409.253L152.252 414.224ZM145.502 414.124L145.898 419.109L145.898 419.109L145.502 414.124ZM100.028 417.733L99.633 412.749L99.4254 412.765L99.22 412.799L100.028 417.733ZM17.8453 473.694L13.0217 472.377L13.0217 472.378L17.8453 473.694ZM60.217 563.64L57.0145 567.48L57.1744 567.613L57.3448 567.733L60.217 563.64ZM97.5563 589.844L94.6841 593.937L94.6841 593.937L97.5563 589.844ZM103.421 593.187L101.363 597.744L101.363 597.744L103.421 593.187ZM135.184 607.529L133.126 612.086L133.127 612.086L135.184 607.529ZM140.523 609.45L141.839 604.626L141.839 604.626L140.523 609.45ZM170.696 617.682L172.378 612.974L172.197 612.909L172.012 612.859L170.696 617.682ZM195.039 626.38L193.356 631.088L193.356 631.088L195.039 626.38ZM207.896 639.517L212.64 637.936L212.64 637.936L207.896 639.517ZM223.468 760.022L228.456 760.367L228.456 760.367L223.468 760.022ZM214.269 775.979L211.471 771.835L211.471 771.835L214.269 775.979ZM192.104 790.945L194.584 795.287L194.746 795.194L194.902 795.089L192.104 790.945ZM161.058 809.195L157.927 805.297L157.927 805.297L161.058 809.195ZM133.889 831.023L130.757 827.125L130.757 827.125L133.889 831.023ZM129.046 835.725L132.85 838.97L132.85 838.97L129.046 835.725ZM99.4426 870.431L95.6384 867.187L95.5033 867.345L95.3819 867.514L99.4426 870.431ZM174.463 1001.75L174.914 1006.73L175.121 1006.72L175.326 1006.68L174.463 1001.75ZM219.396 993.881L218.533 988.956L218.533 988.956L219.396 993.881ZM225.906 992.097L227.673 996.775L227.673 996.775L225.906 992.097ZM258.508 979.779L260.275 984.456L260.275 984.456L258.508 979.779ZM290.798 961.848L288.658 957.329L288.484 957.411L288.317 957.506L290.798 961.848ZM314.16 950.785L312.02 946.266L312.02 946.266L314.16 950.785ZM332.542 950.982L334.778 946.51L334.778 946.51L332.542 950.982ZM428.432 1025.59L432.203 1022.31L432.202 1022.31L428.432 1025.59ZM433.21 1043.38L428.302 1042.42L428.302 1042.42L433.21 1043.38ZM428.12 1069.63L432.943 1070.95L432.993 1070.77L433.028 1070.58L428.12 1069.63ZM420.13 1098.91L415.306 1097.6L415.306 1097.6L420.13 1098.91ZM419.072 1104.49L424.043 1105.03L424.043 1105.03L419.072 1104.49ZM415.295 1139.14L420.265 1139.68L420.265 1139.68L415.295 1139.14ZM415.195 1145.88L410.211 1146.28L410.211 1146.28L415.195 1145.88ZM418.804 1191.36L413.82 1191.75L413.836 1191.96L413.87 1192.17L418.804 1191.36ZM474.765 1273.54L476.081 1268.72L474.765 1273.54ZM564.711 1231.17L568.551 1234.37L568.684 1234.21L568.804 1234.04L564.711 1231.17ZM590.915 1193.83L586.823 1190.96L586.823 1190.96L590.915 1193.83ZM594.258 1187.97L598.815 1190.02L598.815 1190.02L594.258 1187.97ZM608.6 1156.2L613.157 1158.26L613.157 1158.26L608.6 1156.2ZM610.521 1150.86L615.344 1152.18L610.521 1150.86ZM618.753 1120.69L614.045 1119.01L613.98 1119.19L613.93 1119.38L618.753 1120.69ZM627.451 1096.35L632.159 1098.03L632.159 1098.03L627.451 1096.35ZM640.588 1083.49L639.007 1078.75L639.007 1078.75L640.588 1083.49ZM761.118 1067.92L760.773 1072.91L760.773 1072.91L761.118 1067.92ZM777.052 1077.09L781.191 1074.28L781.191 1074.28L777.052 1077.09ZM791.559 1098.48L795.9 1096L795.805 1095.84L795.697 1095.68L791.559 1098.48ZM807.072 1125.64L811.414 1123.16L807.072 1125.64ZM810.266 1130.33L814.164 1127.2L814.164 1127.2L810.266 1130.33ZM832.093 1157.5L828.196 1160.63L828.196 1160.63L832.093 1157.5ZM836.796 1162.34L833.551 1166.15L833.551 1166.15L836.796 1162.34ZM871.502 1191.94L868.258 1195.75L868.416 1195.88L868.585 1196.01L871.502 1191.94ZM969.185 1210.49L966.705 1206.15L969.185 1210.49ZM1002.83 1116.92L1007.8 1116.47L1007.79 1116.27L1007.75 1116.06L1002.83 1116.92ZM994.952 1071.99L999.877 1071.13L999.877 1071.13L994.952 1071.99ZM993.168 1065.48L997.846 1063.71L997.846 1063.71L993.168 1065.48ZM980.85 1032.88L976.173 1034.65L976.173 1034.65L980.85 1032.88ZM963.376 1001.39L958.861 1003.54L958.942 1003.71L959.035 1003.87L963.376 1001.39ZM951.884 977.241L956.399 975.093L956.399 975.093L951.884 977.241ZM952.064 958.824L956.536 961.06L956.536 961.06L952.064 958.824ZM1026.13 862.777L1022.85 859.006L1022.85 859.006L1026.13 862.777ZM1043.88 857.991L1044.83 853.081L1044.83 853.081L1043.88 857.991ZM1069.27 862.863L1070.59 858.039L1070.4 857.989L1070.21 857.952L1069.27 862.863ZM1099.44 871.096L1098.13 875.919L1098.13 875.919L1099.44 871.096ZM1105.02 872.153L1104.47 877.124L1104.47 877.124L1105.02 872.153ZM1139.66 875.931L1139.12 880.901L1139.12 880.901L1139.66 875.931ZM1146.41 876.03L1146.02 871.046L1146.02 871.046L1146.41 876.03ZM1191.89 872.421L1192.28 877.406L1192.49 877.389L1192.69 877.356L1191.89 872.421ZM1274.07 816.461L1269.25 815.145L1269.25 815.145L1274.07 816.461ZM1231.7 726.514L1234.9 722.675L1234.74 722.541L1234.57 722.422L1231.7 726.514ZM1194.36 700.31L1197.23 696.217L1197.23 696.217L1194.36 700.31ZM1188.49 696.967L1186.44 701.524L1186.44 701.524L1188.49 696.967ZM1156.73 682.625L1158.79 678.068L1158.79 678.068L1156.73 682.625ZM1151.39 680.705L1152.71 675.881L1152.71 675.881L1151.39 680.705ZM1122.11 672.715L1120.44 677.426L1120.61 677.489L1120.79 677.538L1122.11 672.715ZM1096.91 663.765L1098.58 659.053L1098.58 659.053L1096.91 663.765ZM1084.01 650.614L1079.27 652.194L1079.27 652.194L1084.01 650.614ZM1285.87 773.216L1290.69 774.532L1285.87 773.216ZM1285.22 771.154L1282.02 774.994L1285.22 771.154ZM961.249 940.46L956.777 938.223L961.249 940.46ZM961.578 939.987L965.23 943.403L961.578 939.987ZM1009.11 1186.34L1004.13 1186.79L1009.11 1186.34ZM661.084 1076.66L662.664 1081.41L661.084 1076.66ZM661.648 1076.56L661.822 1081.56L661.648 1076.56ZM518.009 1285.34L516.693 1290.16L518.009 1285.34ZM520.071 1284.69L516.232 1281.49L520.071 1284.69ZM1187.41 282.281L1186.96 277.301L1187.41 282.281ZM413.818 1008.93L411.13 1013.15L413.818 1008.93ZM414.252 1009.3L418.023 1006.02L414.252 1009.3ZM350.928 960.178L348.691 964.65L350.928 960.178ZM351.4 960.507L347.984 964.158L351.4 960.507ZM1067.62 551.352L1062.74 552.44L1067.62 551.352ZM1067.58 550.778L1062.59 550.433L1067.58 550.778ZM58.778 927.033L62.8387 929.95L58.778 927.033ZM224.839 738.964L219.959 740.052L224.839 738.964ZM224.883 739.539L229.871 739.883L224.883 739.539ZM214.726 660.013L209.982 661.594L214.726 660.013ZM214.827 660.577L209.83 660.751L214.827 660.577ZM105.052 1008.04L104.602 1003.06L105.052 1008.04ZM31.2509 429.002L30.4424 424.068L31.2509 429.002ZM29.6448 430.449L34.4685 431.765L34.4685 431.765L29.6448 430.449ZM282.457 412.747L278.241 410.058L278.241 410.058L282.457 412.747ZM282.083 413.181L285.366 416.952L282.083 413.181ZM1260.66 861.152L1261.47 866.086L1260.66 861.152ZM1262.27 859.705L1267.09 861.021L1262.27 859.705ZM331.21 349.856L326.738 347.619L331.21 349.856ZM330.881 350.329L327.229 346.913L330.881 350.329ZM6.04587 516.938L10.8695 518.254L6.04587 516.938ZM6.69434 519L3.49184 522.84L6.69434 519ZM364.354 57.7072L361.437 61.7679L364.354 57.7072ZM928.104 1232.61L931.021 1228.55L928.104 1232.61ZM930.263 1232.72L932.743 1237.06L930.263 1232.72ZM633.006 213.601L631.425 208.857L633.006 213.601ZM632.434 213.703L632.59 218.7L632.434 213.703ZM1010.9 876.155L1006.67 873.483L1006.67 873.483L1010.9 876.155ZM1011.28 875.714L1014.56 879.485L1011.28 875.714ZM283.352 103.982L288.331 103.531L283.352 103.982ZM862.223 30.7236L857.289 31.5321L862.223 30.7236ZM860.776 29.1175L859.46 33.9412L860.776 29.1175ZM1077.68 631.363L1072.69 631.519L1077.68 631.363ZM1077.79 631.935L1073.04 633.515L1077.79 631.935ZM552.422 223.768L553.51 228.649L552.422 223.768ZM551.848 223.812L551.503 228.8L551.848 223.812ZM430.073 1260.14L435.007 1259.33L430.073 1260.14ZM941.531 330.139L943.768 325.667L941.531 330.139ZM941.058 329.809L937.642 333.461L941.058 329.809ZM1233.68 363.283L1237.74 366.201L1233.68 363.283ZM740.035 1066.55L741.123 1071.43L740.035 1066.55ZM740.609 1066.5L740.954 1061.52L740.954 1061.52L740.609 1066.5ZM774.287 5.51864L772.971 10.3423L774.287 5.51864ZM772.225 6.1671L768.385 2.9646L772.225 6.1671ZM877.226 280.488L879.898 276.261L877.226 280.488ZM876.785 280.11L880.556 276.826L876.785 280.11ZM1062.74 552.44C1068.58 578.643 1071.87 605.118 1072.69 631.519L1082.68 631.208C1081.84 604.186 1078.48 577.087 1072.5 550.264L1062.74 552.44ZM1072.56 551.122L1073.98 530.614L1064 529.925L1062.59 550.433L1072.56 551.122ZM1073.98 530.614C1074.32 525.709 1076.89 521.233 1080.96 518.474L1075.35 510.197C1068.74 514.68 1064.55 521.955 1064 529.925L1073.98 530.614ZM1080.96 518.474L1102.36 503.967L1096.75 495.69L1075.35 510.197L1080.96 518.474ZM1102.03 504.17L1129.19 488.657L1124.23 479.974L1097.07 495.487L1102.03 504.17ZM1129.19 488.657C1131.06 487.586 1132.85 486.37 1134.53 485.019L1128.27 477.223C1127 478.245 1125.65 479.164 1124.23 479.974L1129.19 488.657ZM1134.53 485.019L1161.7 463.192L1155.44 455.396L1128.27 477.223L1134.53 485.019ZM1161.7 463.192C1163.7 461.583 1165.55 459.79 1167.22 457.836L1159.61 451.347C1158.35 452.824 1156.95 454.18 1155.44 455.396L1161.7 463.192ZM1167.22 457.836L1196.82 423.13L1189.21 416.64L1159.61 451.347L1167.22 457.836ZM1197.08 422.802L1237.74 366.201L1229.62 360.366L1188.96 416.968L1197.08 422.802ZM1238.13 358.644L1215.9 319.722L1207.22 324.683L1229.45 363.604L1238.13 358.644ZM1215.9 319.722L1193.66 280.8L1184.98 285.761L1207.22 324.683L1215.9 319.722ZM1186.96 277.301L1117.54 283.583L1118.45 293.542L1187.86 287.26L1186.96 277.301ZM1117.13 283.637L1072.2 291.511L1073.93 301.361L1118.86 293.487L1117.13 283.637ZM1072.2 291.511C1069.67 291.954 1067.19 292.634 1064.78 293.542L1068.32 302.896C1070.14 302.21 1072.01 301.696 1073.93 301.361L1072.2 291.511ZM1064.78 293.542L1032.18 305.86L1035.72 315.215L1068.32 302.896L1064.78 293.542ZM1032.18 305.86C1030.17 306.623 1028.21 307.543 1026.34 308.613L1031.3 317.296C1032.71 316.487 1034.19 315.791 1035.72 315.215L1032.18 305.86ZM1026.34 308.613L999.981 323.67L1004.94 332.353L1031.3 317.296L1026.34 308.613ZM1000.31 323.496L976.163 334.989L980.46 344.018L1004.61 332.526L1000.31 323.496ZM976.163 334.989C971.714 337.106 966.538 337.055 962.131 334.851L957.658 343.795C964.819 347.376 973.231 347.459 980.461 344.018L976.163 334.989ZM962.131 334.851L943.768 325.667L939.294 334.61L957.658 343.795L962.131 334.851ZM874.554 284.714C896.887 298.834 918.031 315.114 937.642 333.461L944.474 326.158C924.399 307.378 902.756 290.713 879.898 276.261L874.554 284.714ZM880.556 276.826L867.619 261.969L860.077 268.536L873.014 283.393L880.556 276.826ZM867.619 261.969C864.39 258.261 863.046 253.275 863.972 248.447L854.151 246.562C852.646 254.408 854.831 262.511 860.077 268.536L867.619 261.969ZM863.972 248.447L868.844 223.06L859.023 221.175L854.151 246.562L863.972 248.447ZM868.757 223.434L876.99 193.261L867.343 190.629L859.11 220.801L868.757 223.434ZM876.99 193.261C877.558 191.18 877.961 189.057 878.195 186.913L868.253 185.829C868.077 187.45 867.772 189.055 867.343 190.629L876.99 193.261ZM878.195 186.913L881.972 152.267L872.031 151.183L868.253 185.829L878.195 186.913ZM881.972 152.267C882.25 149.714 882.288 147.14 882.085 144.58L872.116 145.371C872.27 147.306 872.241 149.252 872.031 151.183L881.972 152.267ZM882.085 144.58L878.477 99.1057L868.508 99.8967L872.116 145.371L882.085 144.58ZM878.427 98.6927L867.157 29.9151L857.289 31.5321L868.558 100.31L878.427 98.6927ZM862.092 24.2938L818.848 12.4944L816.215 22.1417L859.46 33.9412L862.092 24.2938ZM818.848 12.4944L775.603 0.694976L772.971 10.3423L816.215 22.1417L818.848 12.4944ZM768.385 2.9646L723.746 56.4872L731.425 62.8922L776.065 9.3696L768.385 2.9646ZM723.493 56.8175L697.288 94.1568L705.474 99.9013L731.678 62.562L723.493 56.8175ZM697.288 94.1569C695.813 96.2591 694.538 98.4953 693.481 100.836L702.595 104.951C703.395 103.182 704.358 101.491 705.474 99.9013L697.288 94.1569ZM693.481 100.836L679.139 132.599L688.253 136.715L702.595 104.951L693.481 100.836ZM679.139 132.599C678.251 134.565 677.52 136.599 676.952 138.68L686.599 141.312C687.029 139.738 687.582 138.201 688.253 136.715L679.139 132.599ZM676.952 138.68L668.962 167.963L678.609 170.595L686.599 141.312L676.952 138.68ZM669.074 167.606L660.124 192.808L669.547 196.155L678.497 170.952L669.074 167.606ZM660.124 192.808C658.475 197.451 654.779 201.076 650.104 202.633L653.265 212.121C660.862 209.59 666.868 203.7 669.547 196.155L660.124 192.808ZM650.104 202.633L631.425 208.857L634.586 218.344L653.265 212.121L650.104 202.633ZM553.51 228.649C579.714 222.807 606.188 219.522 632.59 218.7L632.279 208.705C605.257 209.546 578.157 212.908 551.334 218.888L553.51 228.649ZM552.192 218.824L531.71 217.409L531.021 227.385L551.503 228.8L552.192 218.824ZM531.71 217.409C526.794 217.069 522.309 214.484 519.552 210.4L511.264 215.996C515.745 222.632 523.033 226.833 531.021 227.385L531.71 217.409ZM519.552 210.4L504.586 188.235L496.299 193.831L511.264 215.996L519.552 210.4ZM504.784 188.553L489.728 162.197L481.045 167.157L496.101 193.513L504.784 188.553ZM489.728 162.197C488.657 160.324 487.441 158.538 486.09 156.856L478.294 163.119C479.316 164.391 480.235 165.741 481.045 167.157L489.728 162.197ZM486.09 156.856L464.263 129.687L456.467 135.95L478.294 163.119L486.09 156.856ZM464.263 129.687C462.654 127.684 460.861 125.838 458.907 124.171L452.418 131.779C453.895 133.039 455.251 134.436 456.467 135.95L464.263 129.687ZM458.907 124.171L424.201 94.5677L417.711 102.176L452.418 131.779L458.907 124.171ZM423.873 94.3111L367.272 53.6465L361.437 61.7679L418.039 102.432L423.873 94.3111ZM359.715 53.2534L320.793 75.4883L325.754 84.1713L364.675 61.9364L359.715 53.2534ZM320.793 75.4883L281.871 97.7232L286.832 106.406L325.754 84.1713L320.793 75.4883ZM278.372 104.432L284.654 173.843L294.613 172.942L288.331 103.531L278.372 104.432ZM284.708 174.256L292.582 219.188L302.432 217.462L294.558 172.53L284.708 174.256ZM292.582 219.188C293.025 221.718 293.705 224.2 294.613 226.603L303.967 223.068C303.281 221.252 302.767 219.375 302.432 217.462L292.582 219.188ZM294.613 226.603L306.931 259.204L316.286 255.67L303.967 223.068L294.613 226.603ZM306.931 259.204C307.694 261.222 308.614 263.177 309.684 265.05L318.367 260.09C317.558 258.674 316.862 257.196 316.286 255.67L306.931 259.204ZM309.684 265.05L325.198 292.207L333.881 287.247L318.367 260.09L309.684 265.05ZM325.021 291.867L336.084 315.229L345.122 310.95L334.059 287.587L325.021 291.867ZM336.084 315.229C338.188 319.673 338.132 324.837 335.933 329.234L344.877 333.707C348.451 326.562 348.541 318.17 345.122 310.95L336.084 315.229ZM335.933 329.234L326.738 347.619L335.682 352.092L344.877 333.707L335.933 329.234ZM286.672 415.435C300.586 393.617 316.568 372.946 334.532 353.745L327.229 346.913C308.841 366.568 292.481 387.727 278.241 410.058L286.672 415.435ZM278.8 409.41L262.515 423.59L269.082 431.131L285.366 416.952L278.8 409.41ZM262.515 423.59C258.799 426.826 253.8 428.169 248.962 427.231L247.059 437.048C254.919 438.572 263.044 436.389 269.082 431.132L262.515 423.59ZM248.962 427.231L222.707 422.14L220.804 431.957L247.059 437.048L248.962 427.231ZM223.071 422.225L193.788 414.235L191.156 423.882L220.439 431.872L223.071 422.225ZM193.789 414.235C191.707 413.667 189.584 413.265 187.44 413.031L186.356 422.972C187.977 423.149 189.582 423.453 191.156 423.882L193.789 414.235ZM187.44 413.031L152.794 409.253L151.71 419.194L186.356 422.972L187.44 413.031ZM152.794 409.253C150.241 408.975 147.667 408.937 145.107 409.14L145.898 419.109C147.834 418.955 149.78 418.984 151.71 419.194L152.794 409.253ZM145.107 409.14L99.633 412.749L100.424 422.717L145.898 419.109L145.107 409.14ZM99.22 412.799L30.4424 424.068L32.0593 433.936L100.837 422.667L99.22 412.799ZM24.8211 429.133L13.0217 472.377L22.669 475.01L34.4685 431.765L24.8211 429.133ZM13.0217 472.378L1.22221 515.622L10.8695 518.254L22.669 475.01L13.0217 472.378ZM3.49184 522.84L57.0145 567.48L63.4195 559.8L9.89683 515.161L3.49184 522.84ZM57.3448 567.733L94.6841 593.937L100.429 585.752L63.0893 559.547L57.3448 567.733ZM94.6841 593.937C96.7863 595.412 99.0225 596.687 101.363 597.744L105.479 588.63C103.709 587.831 102.018 586.867 100.429 585.752L94.6841 593.937ZM101.363 597.744L133.126 612.086L137.242 602.972L105.479 588.63L101.363 597.744ZM133.127 612.086C135.093 612.974 137.126 613.705 139.207 614.273L141.839 604.626C140.266 604.197 138.728 603.644 137.242 602.972L133.127 612.086ZM139.207 614.273L169.38 622.506L172.012 612.859L141.839 604.626L139.207 614.273ZM169.014 622.391L193.356 631.088L196.721 621.671L172.378 612.974L169.014 622.391ZM193.356 631.088C197.986 632.742 201.599 636.433 203.153 641.097L212.64 637.936C210.114 630.357 204.244 624.359 196.721 621.671L193.356 631.088ZM203.153 641.097L209.982 661.594L219.469 658.433L212.64 637.936L203.153 641.097ZM229.719 737.876C223.996 712.204 220.727 686.272 219.824 660.403L209.83 660.751C210.754 687.229 214.1 713.773 219.959 740.052L229.719 737.876ZM219.895 739.194L218.479 759.678L228.456 760.367L229.871 739.883L219.895 739.194ZM218.479 759.678C218.14 764.593 215.554 769.078 211.471 771.835L217.067 780.123C223.703 775.643 227.904 768.355 228.456 760.367L218.479 759.678ZM211.471 771.835L189.306 786.801L194.902 795.089L217.067 780.123L211.471 771.835ZM189.624 786.604L163.268 801.66L168.228 810.343L194.584 795.287L189.624 786.604ZM163.268 801.66C161.394 802.73 159.609 803.946 157.927 805.297L164.19 813.093C165.461 812.072 166.812 811.152 168.228 810.343L163.268 801.66ZM157.927 805.297L130.757 827.125L137.02 834.92L164.19 813.093L157.927 805.297ZM130.757 827.125C128.755 828.733 126.908 830.526 125.242 832.48L132.85 838.97C134.11 837.492 135.506 836.137 137.02 834.92L130.757 827.125ZM125.242 832.48L95.6384 867.187L103.247 873.676L132.85 838.97L125.242 832.48ZM95.3819 867.514L54.7173 924.116L62.8387 929.95L103.503 873.349L95.3819 867.514ZM54.3241 931.672L76.5591 970.594L85.2421 965.634L63.0071 926.712L54.3241 931.672ZM76.5591 970.594L98.794 1009.52L107.477 1004.56L85.2421 965.634L76.5591 970.594ZM105.503 1013.02L174.914 1006.73L174.013 996.775L104.602 1003.06L105.503 1013.02ZM175.326 1006.68L220.259 998.806L218.533 988.956L173.6 996.829L175.326 1006.68ZM220.259 998.806C222.788 998.362 225.271 997.682 227.673 996.775L224.139 987.42C222.322 988.106 220.445 988.621 218.533 988.956L220.259 998.806ZM227.673 996.775L260.275 984.456L256.741 975.102L224.139 987.42L227.673 996.775ZM260.275 984.456C262.293 983.694 264.248 982.773 266.121 981.703L261.161 973.02C259.744 973.829 258.266 974.525 256.74 975.102L260.275 984.456ZM266.121 981.703L293.278 966.189L288.317 957.506L261.161 973.02L266.121 981.703ZM292.937 966.367L316.3 955.304L312.02 946.266L288.658 957.329L292.937 966.367ZM316.3 955.304C320.744 953.199 325.908 953.255 330.305 955.454L334.778 946.51C327.633 942.937 319.241 942.846 312.02 946.266L316.3 955.304ZM330.305 955.454L348.691 964.65L353.164 955.706L334.778 946.51L330.305 955.454ZM416.506 1004.71C394.689 990.802 374.018 974.819 354.816 956.856L347.984 964.158C367.64 982.547 388.799 998.906 411.13 1013.15L416.506 1004.71ZM410.481 1012.59L424.661 1028.87L432.202 1022.31L418.023 1006.02L410.481 1012.59ZM424.661 1028.87C427.897 1032.59 429.24 1037.59 428.302 1042.42L438.119 1044.33C439.643 1036.47 437.46 1028.34 432.203 1022.31L424.661 1028.87ZM428.302 1042.42L423.211 1068.68L433.028 1070.58L438.119 1044.33L428.302 1042.42ZM423.296 1068.32L415.306 1097.6L424.953 1100.23L432.943 1070.95L423.296 1068.32ZM415.306 1097.6C414.738 1099.68 414.335 1101.8 414.102 1103.95L424.043 1105.03C424.22 1103.41 424.524 1101.8 424.953 1100.23L415.306 1097.6ZM414.102 1103.95L410.324 1138.59L420.265 1139.68L424.043 1105.03L414.102 1103.95ZM410.324 1138.59C410.046 1141.15 410.008 1143.72 410.211 1146.28L420.18 1145.49C420.026 1143.55 420.055 1141.61 420.265 1139.68L410.324 1138.59ZM410.211 1146.28L413.82 1191.75L423.788 1190.96L420.18 1145.49L410.211 1146.28ZM413.87 1192.17L425.139 1260.94L435.007 1259.33L423.738 1190.55L413.87 1192.17ZM430.204 1266.57L473.448 1278.37L476.081 1268.72L432.837 1256.92L430.204 1266.57ZM473.448 1278.37L516.693 1290.16L519.325 1280.52L476.081 1268.72L473.448 1278.37ZM523.911 1287.9L568.551 1234.37L560.871 1227.97L516.232 1281.49L523.911 1287.9ZM568.804 1234.04L595.008 1196.7L586.823 1190.96L560.618 1228.3L568.804 1234.04ZM595.008 1196.7C596.483 1194.6 597.758 1192.36 598.815 1190.02L589.701 1185.91C588.902 1187.68 587.938 1189.37 586.823 1190.96L595.008 1196.7ZM598.815 1190.02L613.157 1158.26L604.043 1154.15L589.701 1185.91L598.815 1190.02ZM613.157 1158.26C614.045 1156.29 614.776 1154.26 615.344 1152.18L605.697 1149.55C605.268 1151.12 604.715 1152.66 604.043 1154.15L613.157 1158.26ZM615.344 1152.18L623.577 1122.01L613.93 1119.38L605.697 1149.55L615.344 1152.18ZM623.462 1122.37L632.159 1098.03L622.742 1094.67L614.045 1119.01L623.462 1122.37ZM632.159 1098.03C633.813 1093.4 637.504 1089.79 642.168 1088.23L639.007 1078.75C631.428 1081.27 625.43 1087.14 622.742 1094.67L632.159 1098.03ZM642.168 1088.23L662.664 1081.41L659.503 1071.92L639.007 1078.75L642.168 1088.23ZM738.947 1061.67C713.274 1067.39 687.342 1070.66 661.473 1071.56L661.822 1081.56C688.299 1080.63 714.843 1077.29 741.123 1071.43L738.947 1061.67ZM740.264 1071.49L760.773 1072.91L761.463 1062.93L740.954 1061.52L740.264 1071.49ZM760.773 1072.91C765.678 1073.25 770.155 1075.82 772.914 1079.89L781.191 1074.28C776.708 1067.67 769.433 1063.48 761.463 1062.93L760.773 1072.91ZM772.914 1079.89L787.42 1101.29L795.697 1095.68L781.191 1074.28L772.914 1079.89ZM787.217 1100.96L802.731 1128.12L811.414 1123.16L795.9 1096L787.217 1100.96ZM802.731 1128.12C803.801 1129.99 805.017 1131.78 806.368 1133.46L814.164 1127.2C813.143 1125.93 812.223 1124.58 811.414 1123.16L802.731 1128.12ZM806.368 1133.46L828.196 1160.63L835.991 1154.37L814.164 1127.2L806.368 1133.46ZM828.196 1160.63C829.804 1162.63 831.597 1164.48 833.551 1166.15L840.041 1158.54C838.563 1157.28 837.208 1155.88 835.991 1154.37L828.196 1160.63ZM833.551 1166.15L868.258 1195.75L874.747 1188.14L840.041 1158.54L833.551 1166.15ZM868.585 1196.01L925.187 1236.67L931.021 1228.55L874.42 1187.88L868.585 1196.01ZM932.743 1237.06L971.665 1214.83L966.705 1206.15L927.783 1228.38L932.743 1237.06ZM971.665 1214.83L1010.59 1192.59L1005.63 1183.91L966.705 1206.15L971.665 1214.83ZM1014.09 1185.88L1007.8 1116.47L997.846 1117.37L1004.13 1186.79L1014.09 1185.88ZM1007.75 1116.06L999.877 1071.13L990.027 1072.85L997.9 1117.79L1007.75 1116.06ZM999.877 1071.13C999.433 1068.6 998.753 1066.12 997.846 1063.71L988.491 1067.25C989.177 1069.07 989.691 1070.94 990.027 1072.85L999.877 1071.13ZM997.846 1063.71L985.527 1031.11L976.173 1034.65L988.491 1067.25L997.846 1063.71ZM985.527 1031.11C984.765 1029.09 983.844 1027.14 982.774 1025.27L974.091 1030.23C974.9 1031.64 975.596 1033.12 976.173 1034.65L985.527 1031.11ZM982.774 1025.27L967.718 998.91L959.035 1003.87L974.091 1030.23L982.774 1025.27ZM967.891 999.242L956.399 975.093L947.369 979.39L958.861 1003.54L967.891 999.242ZM956.399 975.093C954.281 970.644 954.332 965.467 956.536 961.06L947.593 956.587C944.011 963.748 943.928 972.16 947.369 979.39L956.399 975.093ZM956.536 961.06L965.721 942.696L956.777 938.223L947.593 956.587L956.536 961.06ZM1006.67 873.483C992.554 895.816 976.274 916.96 957.927 936.571L965.23 943.403C984.01 923.328 1000.67 901.685 1015.13 878.827L1006.67 873.483ZM1014.56 879.485L1029.42 866.548L1022.85 859.006L1007.99 871.944L1014.56 879.485ZM1029.42 866.548C1033.13 863.319 1038.11 861.975 1042.94 862.901L1044.83 853.081C1036.98 851.575 1028.88 853.76 1022.85 859.006L1029.42 866.548ZM1042.94 862.901L1068.33 867.773L1070.21 857.952L1044.83 853.081L1042.94 862.901ZM1067.95 867.686L1098.13 875.919L1100.76 866.272L1070.59 858.039L1067.95 867.686ZM1098.13 875.919C1100.21 876.487 1102.33 876.89 1104.47 877.124L1105.56 867.183C1103.94 867.006 1102.33 866.701 1100.76 866.272L1098.13 875.919ZM1104.47 877.124L1139.12 880.901L1140.2 870.96L1105.56 867.183L1104.47 877.124ZM1139.12 880.901C1141.67 881.179 1144.25 881.217 1146.81 881.014L1146.02 871.046C1144.08 871.199 1142.13 871.17 1140.2 870.96L1139.12 880.901ZM1146.81 881.014L1192.28 877.406L1191.49 867.437L1146.02 871.046L1146.81 881.014ZM1192.69 877.356L1261.47 866.086L1259.86 856.218L1191.08 867.487L1192.69 877.356ZM1267.09 861.021L1278.89 817.777L1269.25 815.145L1257.45 858.389L1267.09 861.021ZM1278.89 817.777L1290.69 774.532L1281.04 771.9L1269.25 815.145L1278.89 817.777ZM1288.42 767.314L1234.9 722.675L1228.5 730.354L1282.02 774.994L1288.42 767.314ZM1234.57 722.422L1197.23 696.217L1191.49 704.403L1228.83 730.607L1234.57 722.422ZM1197.23 696.217C1195.13 694.742 1192.89 693.467 1190.55 692.41L1186.44 701.524C1188.21 702.324 1189.9 703.287 1191.49 704.403L1197.23 696.217ZM1190.55 692.41L1158.79 678.068L1154.67 687.182L1186.44 701.524L1190.55 692.41ZM1158.79 678.068C1156.82 677.18 1154.79 676.449 1152.71 675.881L1150.08 685.528C1151.65 685.958 1153.19 686.511 1154.67 687.182L1158.79 678.068ZM1152.71 675.881L1123.42 667.891L1120.79 677.538L1150.08 685.528L1152.71 675.881ZM1123.78 668.003L1098.58 659.053L1095.23 668.476L1120.44 677.426L1123.78 668.003ZM1098.58 659.053C1093.94 657.404 1090.31 653.708 1088.75 649.033L1079.27 652.194C1081.8 659.791 1087.69 665.797 1095.23 668.476L1098.58 659.053ZM1088.75 649.033L1082.53 630.354L1073.04 633.515L1079.27 652.194L1088.75 649.033ZM1290.69 774.532C1291.41 771.89 1290.53 769.069 1288.42 767.314L1282.02 774.994C1281.12 774.242 1280.74 773.033 1281.04 771.9L1290.69 774.532ZM965.721 942.696C965.591 942.956 965.425 943.193 965.23 943.403L957.927 936.571C957.468 937.062 957.08 937.618 956.777 938.223L965.721 942.696ZM1010.59 1192.59C1012.97 1191.23 1014.33 1188.61 1014.09 1185.88L1004.13 1186.79C1004.02 1185.62 1004.61 1184.49 1005.63 1183.91L1010.59 1192.59ZM662.664 1081.41C662.391 1081.5 662.107 1081.55 661.822 1081.56L661.473 1071.56C660.805 1071.59 660.141 1071.71 659.503 1071.92L662.664 1081.41ZM516.693 1290.16C519.336 1290.89 522.156 1290 523.911 1287.9L516.232 1281.49C516.984 1280.59 518.192 1280.21 519.325 1280.52L516.693 1290.16ZM1193.66 280.8C1192.31 278.422 1189.68 277.054 1186.96 277.301L1187.86 287.26C1186.69 287.366 1185.56 286.78 1184.98 285.761L1193.66 280.8ZM411.13 1013.15C410.889 1012.99 410.67 1012.81 410.481 1012.59L418.023 1006.02C417.581 1005.51 417.07 1005.07 416.506 1004.71L411.13 1013.15ZM348.691 964.65C348.431 964.52 348.194 964.354 347.984 964.158L354.816 956.856C354.325 956.396 353.769 956.009 353.164 955.706L348.691 964.65ZM1072.5 550.264C1072.56 550.544 1072.58 550.833 1072.56 551.122L1062.59 550.433C1062.54 551.108 1062.59 551.784 1062.74 552.44L1072.5 550.264ZM54.7173 924.116C53.1189 926.341 52.9652 929.294 54.3241 931.672L63.0071 926.712C63.5895 927.731 63.5237 928.997 62.8387 929.95L54.7173 924.116ZM219.959 740.052C219.897 739.773 219.875 739.484 219.895 739.194L229.871 739.883C229.917 739.209 229.866 738.533 229.719 737.876L219.959 740.052ZM209.982 661.594C209.891 661.32 209.84 661.036 209.83 660.751L219.824 660.403C219.801 659.734 219.682 659.07 219.469 658.433L209.982 661.594ZM98.794 1009.52C100.153 1011.89 102.775 1013.26 105.503 1013.02L104.602 1003.06C105.771 1002.95 106.895 1003.54 107.477 1004.56L98.794 1009.52ZM30.4424 424.068C27.7389 424.511 25.5423 426.49 24.8211 429.133L34.4685 431.765C34.1594 432.898 33.218 433.746 32.0593 433.936L30.4424 424.068ZM278.241 410.058C278.394 409.818 278.582 409.599 278.8 409.41L285.366 416.952C285.873 416.51 286.313 415.999 286.672 415.435L278.241 410.058ZM1261.47 866.086C1264.18 865.644 1266.37 863.664 1267.09 861.021L1257.45 858.389C1257.76 857.256 1258.7 856.408 1259.86 856.218L1261.47 866.086ZM326.738 347.619C326.868 347.36 327.034 347.122 327.229 346.913L334.532 353.745C334.991 353.253 335.379 352.697 335.682 352.092L326.738 347.619ZM1.22221 515.622C0.501065 518.265 1.38797 521.086 3.49184 522.84L9.89683 515.161C10.7985 515.913 11.1786 517.122 10.8695 518.254L1.22221 515.622ZM367.272 53.6465C365.047 52.0481 362.094 51.8944 359.715 53.2534L364.675 61.9364C363.656 62.5188 362.39 62.4529 361.437 61.7679L367.272 53.6465ZM925.187 1236.67C927.412 1238.27 930.365 1238.42 932.743 1237.06L927.783 1228.38C928.802 1227.8 930.068 1227.86 931.021 1228.55L925.187 1236.67ZM631.425 208.857C631.702 208.765 631.99 208.714 632.279 208.705L632.59 218.7C633.267 218.679 633.94 218.56 634.586 218.344L631.425 208.857ZM1015.13 878.827C1014.97 879.071 1014.78 879.293 1014.56 879.485L1007.99 871.944C1007.48 872.391 1007.04 872.91 1006.67 873.483L1015.13 878.827ZM281.871 97.7232C279.493 99.0821 278.125 101.704 278.372 104.432L288.331 103.531C288.437 104.7 287.851 105.824 286.832 106.406L281.871 97.7232ZM867.157 29.9151C866.714 27.2116 864.735 25.015 862.092 24.2938L859.46 33.9412C858.327 33.6321 857.479 32.6907 857.289 31.5321L867.157 29.9151ZM1072.69 631.519C1072.71 632.196 1072.83 632.869 1073.04 633.515L1082.53 630.354C1082.62 630.631 1082.67 630.919 1082.68 631.208L1072.69 631.519ZM551.334 218.888C551.614 218.826 551.903 218.804 552.192 218.824L551.503 228.8C552.178 228.847 552.854 228.795 553.51 228.649L551.334 218.888ZM425.139 1260.94C425.582 1263.65 427.561 1265.84 430.204 1266.57L432.837 1256.92C433.969 1257.23 434.817 1258.17 435.007 1259.33L425.139 1260.94ZM943.768 325.667C944.027 325.797 944.265 325.963 944.474 326.158L937.642 333.461C938.133 333.92 938.69 334.308 939.294 334.61L943.768 325.667ZM1237.74 366.201C1239.34 363.976 1239.49 361.023 1238.13 358.644L1229.45 363.604C1228.87 362.585 1228.93 361.32 1229.62 360.366L1237.74 366.201ZM741.123 1071.43C740.843 1071.49 740.554 1071.51 740.264 1071.49L740.954 1061.52C740.279 1061.47 739.603 1061.52 738.947 1061.67L741.123 1071.43ZM775.603 0.694976C772.96 -0.0261622 770.14 0.860741 768.385 2.9646L776.065 9.3696C775.313 10.2713 774.104 10.6514 772.971 10.3423L775.603 0.694976ZM879.898 276.261C880.142 276.416 880.364 276.606 880.556 276.826L873.014 283.393C873.462 283.907 873.981 284.351 874.554 284.714L879.898 276.261Z" fill="#FDC637" mask="url(#path-1-outside-1_212_605)"/>
</svg>
